<?xml version="1.0" encoding="UTF-8"?>
<svg width="24px" height="24px" viewBox="0 0 24 24" version="1.1" xmlns="http://www.w3.org/2000/svg" xmlns:xlink="http://www.w3.org/1999/xlink">
    <!-- Generator: Sketch 49.2 (51160) - http://www.bohemiancoding.com/sketch -->
    <title>icon/24/天使@2x</title>
    <desc>Created with Sketch.</desc>
    <defs></defs>
    <g id="icon/24/天使" stroke="none" stroke-width="1" fill="none" fill-rule="evenodd">
        <g id="天使" transform="translate(0.000000, 4.000000)">
            <path d="M9.28284528,5.31347352 C9.28284528,3.79451819 10.5089376,2.56322969 12.0218969,2.56322969 C13.5344853,2.56322969 14.7609484,3.79451819 14.7609484,5.31347352 C14.7609484,6.83261504 13.5344853,8.06371736 12.0218969,8.06371736 C10.509123,8.06371736 9.28284528,6.83261504 9.28284528,5.31347352 Z" id="Shape" fill="#FFFFFF" fill-rule="nonzero"></path>
            <path d="M13.1097926,9.10288214 C13.1097926,9.41896046 12.6596473,9.85825567 12.001739,9.85825567 C11.3438308,9.85825567 10.8903331,9.62480074 10.8903331,9.10288214 C10.1114019,9.10288214 9.47933258,11.0614761 9.47933258,12.8653898 L9.47933258,16.8907277 C9.47933258,17.5999345 14.5206674,17.505558 14.5102333,16.8907277 C14.5241455,14.8340844 14.5276235,13.4923051 14.5206674,12.8653898 C14.5102333,11.9250169 14.0322599,9.10288214 13.1097926,9.10288214 Z" id="Shape" fill="#FFFFFF" fill-rule="nonzero"></path>
            <path d="M-1.25055521e-12,8.14805523 C-1.25049181e-12,9.65279882 2.88710045,11.9748868 1.65700435,15.4598506 C0.881076797,17.6581174 2.62370028,16.5364939 6.88487479,12.09498 L6.88489679,12.0950011 C7.07608328,11.8957233 7.06952399,11.5791895 6.8702462,11.388003 C6.78347427,11.3047543 6.66960842,11.2555632 6.54951563,11.2494446 L4.79732343,11.1601716 C7.39450723,9.07127602 8.69309914,7.78829584 8.69309914,7.3112311 C8.69309914,6.59563399 5.61981216,8.75953661 5.61981216,7.74983603 C5.61981216,6.74013545 9.85952657,4.01326197 7.63647751,4.01326197 C5.41342844,4.01326197 -1.25055521e-12,6.64331164 -1.25055521e-12,8.14805523 Z" id="Path-4-Copy" fill="#FFFFFF" transform="translate(4.346550, 10.282400) scale(-1, 1) translate(-4.346550, -10.282400) "></path>
            <path d="M15.2529663,8.14805523 C13.9853751,10.4141803 17.9472419,11.7860051 16.9099707,15.4598506 C16.2543998,17.7817759 18.0116685,16.6576921 22.1817768,12.0875992 L22.1817609,12.0875847 C22.3678843,11.8836088 22.353412,11.567371 22.1494362,11.3812476 C22.0637946,11.3031015 21.953657,11.2571469 21.8378706,11.2512476 L20.0502898,11.1601716 C22.6474736,9.62241258 23.9460655,8.3394324 23.9460655,7.3112311 C23.9460655,5.76892915 21.0524211,8.64312093 20.8727785,7.74983603 C20.6931359,6.85655113 25.0637705,3.77335056 22.8894439,4.01326197 C20.7151172,4.25317339 16.5205576,5.88193016 15.2529663,8.14805523 Z" id="Path-4-Copy" fill="#FFFFFF"></path>
            <ellipse id="Oval-4" stroke="#FFFFFF" stroke-width="0.5" cx="12" cy="0.5" rx="3" ry="1"></ellipse>
        </g>
    </g>
</svg>