<?xml version="1.0" encoding="UTF-8"?>
<svg width="24px" height="24px" viewBox="0 0 24 24" version="1.1" xmlns="http://www.w3.org/2000/svg" xmlns:xlink="http://www.w3.org/1999/xlink">
    <!-- Generator: Sketch 49.2 (51160) - http://www.bohemiancoding.com/sketch -->
    <title>icon/24/董事@2x</title>
    <desc>Created with Sketch.</desc>
    <defs>
        <polygon id="path-1" points="0.0677182739 0.00334177215 20.9583923 0.00334177215 20.9583923 21.9488152 0.0677182739 21.9488152"></polygon>
    </defs>
    <g id="icon/24/董事" stroke="none" stroke-width="1" fill="none" fill-rule="evenodd">
        <g id="Page-1" transform="translate(2.000000, 1.000000)">
            <mask id="mask-2" fill="white">
                <use xlink:href="#path-1"></use>
            </mask>
            <g id="Clip-2"></g>
            <path d="M10.5575013,12.2601823 C10.3790934,12.2601823 9.34134342,12.2153468 8.41052763,11.457043 C7.39368553,10.6090684 7.08439605,9.25138059 7.08439605,9.22743122 C7.03990921,9.02664641 6.88517237,8.89176878 6.68604079,8.87078987 C5.91290921,8.80497553 5.66606711,7.95087426 5.66606711,7.61511899 C5.66606711,7.34239325 5.79105395,7.030773 5.874225,6.82711055 C5.89808026,6.77011477 5.97526447,6.76705148 6.00215921,6.82107679 C6.34101447,7.49537215 6.89115921,8.63408101 6.99809342,8.03469705 L6.95065921,4.15387848 C6.94761974,4.02197131 7.07251447,3.92311055 7.20044868,3.95606414 L10.0669487,4.5554481 C10.3642645,4.61838481 10.667475,4.63332996 10.9707776,4.60343966 L13.7420408,4.33071392 C13.8311987,4.31873924 13.9115145,4.39068017 13.9086592,4.48053671 L13.7688434,7.58225823 C13.7897513,7.75900084 13.7717908,7.93889958 13.9502908,7.98382785 C14.1285145,8.04973502 14.176225,7.96284895 14.2861987,7.80392911 L14.779975,6.96783629 C14.8304487,6.88392068 14.9552513,6.88689114 14.996975,6.97684051 C15.124725,7.23768439 15.2586461,7.70803882 15.1902118,8.12464641 C15.0889882,8.74491646 14.2089224,8.93372658 14.1642513,8.93372658 C13.9858434,8.95479831 13.8311987,9.08958312 13.7867118,9.26938903 C13.2336197,11.6368489 10.8875145,12.1941823 10.5575013,12.2601823 M10.5129224,20.9628996 C9.92418553,20.9569586 9.01427763,20.8609755 9.01427763,20.8609755 L10.0757908,15.0891781 L9.78427763,14.9003679 C9.69208026,14.8404017 9.63561974,14.7355072 9.63561974,14.6247646 L9.63561974,14.3250262 C9.63561974,14.1183004 9.80223816,13.9474059 10.0104882,13.9474059 L10.9618434,13.9474059 C11.1669618,13.9474059 11.3366197,14.1151443 11.3366197,14.3250262 L11.3366197,14.6307055 C11.3366197,14.7385705 11.2830145,14.8404017 11.1967118,14.9003679 L10.9024355,15.104216 L11.9371461,20.8939291 C11.9312513,20.8968996 11.1016592,20.9719038 10.5129224,20.9628996 M20.9230276,19.494562 L19.9566592,17.1328574 C19.8883171,17.016081 19.8407908,16.8783257 19.7961197,16.7613637 C19.1984487,15.2570093 18.6928829,14.234984 16.6709882,13.6808068 L12.9630145,13.009389 L12.9690013,12.2631527 C13.6053566,11.7297688 14.4616592,10.785811 14.7620145,9.74289958 C15.3596855,9.58110211 16.1179882,9.14054515 16.2338566,8.21450295 C16.3350803,7.2854903 15.8473829,6.59030886 15.5589092,6.26365063 C16.0138171,4.21087426 15.341725,3.15895865 14.946225,2.51464641 C14.8542118,2.35284895 14.7858697,2.23588692 14.7382513,2.14315274 C14.601475,1.81937215 14.8750276,1.30993755 15.0355671,1.1000557 C15.1277645,0.983372152 15.1516197,0.821481857 15.1039092,0.683633755 C15.0594224,0.545785654 14.9433697,0.428916456 14.8065934,0.383988186 C14.7382513,0.359945992 12.6240671,-0.287336709 10.025225,0.153220253 C7.91113289,0.524713924 6.71579079,1.28905148 6.30242237,1.58869705 C6.11802763,1.58869705 5.93381711,1.65757468 5.75227763,1.77435105 C5.40743553,2.02916118 4.99406711,2.58668017 4.94654079,3.88115274 C4.93171184,4.53149873 5.11011974,5.2986211 5.34793553,6.02387848 C5.13683026,6.34153249 4.80092237,6.93200506 4.78590921,7.58819916 C4.76214605,8.70008101 5.291475,9.51213165 6.16564605,9.74289958 C6.32029079,10.2762835 7.001225,11.6128068 7.90210658,12.4160388 L7.86655395,12.9104354 L4.35181711,13.6327224 C2.32992237,14.1900557 1.82435658,15.2329671 1.22668553,16.713465 C1.15834342,16.8302414 1.110725,16.9681823 1.06614605,17.0851443 L0.0997776316,19.4464776 C0.00758026316,19.6772456 0.123540789,19.9319629 0.328751316,20.0489249 C0.557725,20.1657013 4.28052763,21.9488152 10.1411855,21.9488152 C13.1533961,21.9488152 16.6918039,21.484216 20.6435803,20.1178025 C20.7802645,20.0727814 20.8724618,19.9798616 20.9201724,19.8630852 C20.9706461,19.7492793 20.9706461,19.6082751 20.9230276,19.494562" id="Fill-1" fill="#FFFFFF" mask="url(#mask-2)"></path>
        </g>
    </g>
</svg>