<?xml version="1.0" encoding="UTF-8"?>
<svg width="24px" height="24px" viewBox="0 0 24 24"  xmlns="http://www.w3.org/2000/svg" xmlns:xlink="http://www.w3.org/1999/xlink">
    <g id="icon/24/仙女" stroke="none" stroke-width="1" fill="none" fill-rule="evenodd">
        <g  transform="translate(2.000000, 0.000000)" fill="#FFFFFF">
            <path d="M16.7923901,18.1874348 C16.1951374,18.4609698 15.6046978,18.7023242 15.1328846,19.1726266 C14.5216209,19.7818907 13.9424451,20.4197598 13.3639835,21.0587124 C13.3075549,21.1211233 13.2280498,21.2555706 13.0861816,21.2694397 C13.2671707,20.8369521 13.4997527,20.3861707 13.7572802,20.0203738 C14.2194231,19.3639765 14.4781044,18.6350916 14.6422253,17.8636244 C14.715522,17.5190104 14.720467,17.518902 15.0488187,17.6461616 C15.5484341,17.8398953 16.0698077,17.9579449 16.5900824,18.0798953 C16.6513462,18.0942519 16.7187637,18.0921391 16.7923901,18.1874348 Z M10.5241844,14.4587112 C10.9473396,13.4691466 10.9330528,11.4103236 11.1964834,11 C11.4599141,10.5896764 11.3848859,14.0550135 10.6470694,15.0808704 C9.87436619,16.1552338 9.63060181,16.0783915 9.16255495,16.3846176 C9.40887363,15.8586221 10.1010292,15.4482758 10.5241844,14.4587112 Z M2.72383137,5.01801489 C3.5847006,4.95239107 7.18452293,5.62607153 7.71249498,6.43826155 C8.24046703,7.25045158 8.24046703,8.03401178 8.80370615,8.76079368 C8.9325025,8.92698749 9.2931044,9.27846763 9.48180382,9.48620777 C9.94464286,10.0194735 9.71047625,10.6439825 9.3193749,10.6439825 C7.77718117,10.6439825 6.6830435,10.7491571 5.00823879,10.239384 C3.33343407,9.72961099 0.0695593811,5.22040038 2.72383137,5.01801489 Z M18.5294915,14.5946851 C19.0351911,14.7130463 19.9993681,14.941042 19.9993681,15.0808704 C19.9993681,15.3578727 19.4425952,14.928419 19.4425952,15.1040578 C19.4425952,15.6160758 20.4631936,16.1615631 19.6396527,16.0912111 C19.3887188,16.0697747 18.5548491,15.1586873 18.1412615,15.1586873 C17.5993302,15.1586873 16.3243996,12.6668388 16.0674451,12.6668388 C15.8104905,12.6668388 15.7645015,13.1421407 15.8104905,14.275814 C15.8564795,15.4094873 19.057633,17.1665477 19.057633,18.2516655 C19.057633,19.3367832 15.2559623,20.6885503 12.8547211,22.3654334 C11.9947527,22.9659837 10.9967959,23.2054194 10.8799195,23.1968715 C10.1966247,23.1578596 11.4130554,22.3150177 11.8326416,22.0844269 C12.2522278,21.8538361 12.2713165,21.4838104 12.5392609,21.4608154 C12.7120972,21.4608154 12.6393127,21.559967 12.8547211,21.559967 C13.0042379,21.559967 13.0266154,21.3526764 13.0911865,21.2654114 C12.9554485,21.2958453 12.5025961,21.2206647 12.204486,21.5398667 C11.9063759,21.8590688 11.586397,22.1046752 11.397386,22.1702824 C11.5146937,21.3792034 12.0532143,20.7658366 11.9947527,19.9366718 C11.8898077,18.4492677 12.2372802,17.2066312 11.9020055,15.7142971 C11.4797585,16.3816307 11.7065894,17.1737847 11.7065894,17.9607969 C11.7065894,18.747809 9.55760989,18.541778 9.57508242,19.3367832 C9.58828115,19.9373292 7.72849915,19.5222617 7.02315791,19.3367832 C7.02315791,19.7642294 7.19003116,20.0503362 7.19003116,20.9502716 C7.19003116,21.8502069 6.04577821,22.9659837 4.98532811,22.9659837 C4.55237434,22.9659837 4.40667778,22.857958 4.39448328,22.5718605 C4.3185989,20.7915209 5.64615289,20.6006428 5.64615289,19.8415378 C5.64615289,19.3367832 4.92351189,19.4163811 4.32706044,19.4383603 C3.00767081,19.4869796 3.10233516,18.4828027 3.05788462,17.8034889 C3.05315934,17.7310014 2.95651099,17.2566357 2.94843407,17.2195251 C2.9331044,17.1491503 3.08848901,16.8898095 3.07843407,16.8043738 C3.06684066,16.7053941 2.79151099,16.4360307 2.74903846,16.3066582 C2.6675,16.0583693 2.8307967,15.8048795 2.73942308,15.5282564 C2.58942308,15.0742609 2.68755495,14.6571594 2.96728022,14.275814 C3.19107143,13.9707485 3.10345367,13.1227295 4.3185989,13.1227295 C4.54714762,13.7300694 5.3953282,14.4587112 6.50400756,14.4587112 C7.90001141,14.4587112 9.83771452,13.5446537 9.83771452,13.8393701 C9.83771452,14.0933561 9.7001025,14.2147057 9.57508242,14.3580533 C9.36870473,14.5946851 8.24046703,15.0808704 7.62421159,15.0808704 C6.43353354,15.0808704 5.74523633,14.8405995 4.87266484,14.8405995 C4.00009334,14.8405995 3.68081702,16.1714219 4.43046703,16.3066582 C4.58755855,16.3349974 4.43046703,16.6617282 4.19414835,16.6617282 C3.70419293,16.6617282 3.71514057,17.8034889 4.87266484,17.8034889 C6.8781044,17.8034889 7.80014454,17.0459449 8.45569399,16.6617282 C8.44756212,16.6664957 8.60255495,15.7086628 8.6203022,15.6875883 C8.4896978,15.753033 8.41881868,15.9130149 8.24046703,15.9117688 C8.48431319,15.6068117 8.3022483,15.3768343 9.07315934,15.1040578 C9.84407038,14.8312813 10.0722253,13.5019088 10.1096978,13.352112 C10.4181593,11.6989632 10.4181593,11.0958109 10.4181593,10.3765995 C9.16931319,11.578225 7.63653766,11.7977553 7.25993328,11.8108624 C5.67684066,11.8659596 4.20465812,11.2282845 3.91861417,11.276447 C6.49795046,14.6720108 8.95129913,12.5879207 9.79074176,12.2026041 C10.6301844,11.8172874 9.76047202,12.7990873 9.70123626,13.3869472 C9.6948951,13.4498773 9.68392857,13.4694032 9.65958791,13.5041842 C9.6457967,13.5238501 9.62546703,13.5382068 9.60211538,13.5446537 C8.20887363,13.9301165 6.73307252,14.1971238 5.33103955,13.6755166 C4.69807252,13.2139906 4.72662088,12.8170963 4.3185989,12.2627668 C4.06892857,11.9235704 3.6064011,11.9480849 3.33343407,11.5048704 C3.12502747,11.1665409 3.27667582,10.5959043 2.79233516,10.4804551 C1.84766484,10.255191 2.31557692,9.35505553 1.84997253,9.12664921 C1.29228022,8.85306005 1.3964011,8.43070339 1.22123626,7.95774628 C1.02947802,7.44014808 0.950521978,7.52753409 0.553708791,7.11314131 C-0.25717033,6.26642348 -0.184368132,5.04193589 0.818104396,4.46588172 C3.3085989,3.03503747 6.35513736,4.50082528 8.54337912,5.82808488 C9.05326923,6.13737607 9.55288462,6.81343928 10.0714011,6.30120451 C9.74552198,6.05741219 9.19123626,6.4065228 9.32228022,5.68446411 C9.38107143,5.36027449 9.56255495,4.73351151 9.16931319,5.11025192 C9.0681044,4.82328126 9.14491758,4.73296975 9.55760989,4.67846862 C9.13804945,4.26342573 9.25343407,4.01080271 9.1707967,3.50896975 C9.14601648,3.35857698 8.76695055,2.84650474 8.87717033,2.73105553 C8.89178571,2.71566953 9.26074176,2.80143025 9.2931044,2.74579142 C9.3864011,2.58505102 10.4181593,0.990867937 11.8927747,0.990867937 C12.3967555,0.990867937 13.1206319,0.990867937 13.1206319,1.76357923 C13.1206319,2.00608967 13.9275,1.83693363 13.7810165,2.09448668 C13.5114011,2.56852731 14.3085548,2.90791674 14.3085548,3.28673209 C14.3085548,3.83882527 12.9269505,3.45772169 12.9618956,4.67846862 C12.9618956,6.38114597 15.7552588,6.07573367 15.7552588,7.25045158 C15.7552588,10.4811324 17.7338574,14.5946851 18.5294915,14.5946851 Z" id="Fill-1"></path>
        </g>
    </g>
</svg>