<?xml version="1.0" encoding="UTF-8"?>
<svg width="24px" height="24px" viewBox="0 0 24 24" version="1.1" xmlns="http://www.w3.org/2000/svg" xmlns:xlink="http://www.w3.org/1999/xlink">
    <!-- Generator: Sketch 49.2 (51160) - http://www.bohemiancoding.com/sketch -->
    <title>icon/24/扫码未点击@2x</title>
    <desc>Created with Sketch.</desc>
    <defs></defs>
    <g id="icon/24/扫码未点击" stroke="none" stroke-width="1" fill="none" fill-rule="evenodd">
        <g id="扫码" transform="translate(0.000000, 1.000000)" fill="#9B9B9B">
            <path d="M16.1724545,1.46696663 C15.7649885,1.46696663 15.4374698,1.13767984 15.4374698,0.733483313 C15.4374698,0.329286791 15.7674306,1.42108547e-14 16.1724545,1.42108547e-14 L21.0724867,1.42108547e-14 C22.1550105,1.42108547e-14 23.0324459,0.875643076 23.0324459,1.9559555 L23.0324459,6.84595139 C23.0324459,7.25261187 22.7024851,7.5794347 22.2974344,7.5794347 C21.8924105,7.5794347 21.5624497,7.25014791 21.5624497,6.84595139 L21.5624497,1.9559555 C21.5624497,1.6864733 21.3424937,1.46951093 21.074902,1.46951093 L16.1724545,1.46951093 L16.1724545,1.46696663 Z M21.5624765,15.1540486 C21.5624765,14.747281 21.8924373,14.4204314 22.2974612,14.4204314 C22.7049541,14.4204314 23.0324728,14.7498253 23.0324728,15.1540486 L23.0324728,20.0414734 C23.0324728,21.1217858 22.1550373,21.9974289 21.0725136,21.9974289 L16.120015,21.9974289 C15.7125221,21.9974289 15.3850035,21.6681421 15.3850035,21.2639456 C15.3850035,20.8597491 15.7149643,20.5304623 16.120015,20.5304623 L21.0625034,20.5304623 C21.3325372,20.5304623 21.550051,20.3109288 21.550051,20.0439106 L21.550051,15.1540218 L21.5624765,15.1540486 Z M7.83752885,20.5328995 C8.2449949,20.5328995 8.57248672,20.8622934 8.57248672,21.2665167 C8.57248672,21.6731504 8.24257957,22 7.83752885,22 L2.93993881,22 C1.85752241,22 0.979979604,21.124223 0.979979604,20.0439374 L0.979979604,15.1540486 C0.979979604,14.747281 1.31007461,14.4204314 1.71496431,14.4204314 C2.11998819,14.4204314 2.44994901,14.7498253 2.44994901,15.1540486 L2.44994901,20.0414734 C2.44994901,20.3109556 2.67003918,20.527918 2.93749665,20.527918 L7.83752885,20.5328995 Z M2.44750684,6.84597817 C2.44750684,7.25263865 2.1175997,7.57946148 1.71254898,7.57946148 C1.30752509,7.57946148 0.977564275,7.25017469 0.977564275,6.84597817 L0.977564275,1.9559555 C0.977564275,0.875643076 1.85499973,0 2.93752348,0 L7.83752885,0 C8.2449949,0 8.57248672,0.329286791 8.57248672,0.733483313 C8.57248672,1.13765305 8.24257957,1.46696663 7.83752885,1.46696663 L2.93993881,1.46696663 C2.67003918,1.46696663 2.45249852,1.6864733 2.45249852,1.95351833 L2.44750684,6.84597817 Z M0.73501154,10.2700005 C0.327491815,10.2700005 0,10.6000755 0,11.0050005 C0,11.4126092 0.329960818,11.7375583 0.73501154,11.7400005 L4.36500993,11.7400005 L4.36500993,10.27255 L0.73501154,10.2700005 Z M23.2650153,10.2664631 L19.6349901,10.2664631 L19.6349901,11.7309926 L23.2650153,11.7309926 C23.6724813,11.7309926 24,11.4017058 24,10.9975093 C24,10.5933127 23.6700123,10.2664631 23.2650153,10.2664631 Z" id="Shape" fill-rule="nonzero"></path>
            <rect id="Rectangle" x="4" y="10.2700005" width="16" height="1.47000003"></rect>
        </g>
    </g>
</svg>