<?xml version="1.0" encoding="UTF-8"?>
<svg width="24px" height="24px" viewBox="0 0 24 24" version="1.1" xmlns="http://www.w3.org/2000/svg" xmlns:xlink="http://www.w3.org/1999/xlink">
    <!-- Generator: Sketch 49.2 (51160) - http://www.bohemiancoding.com/sketch -->
    <title>icon/24/首页 copy@2x</title>
    <desc>Created with Sketch.</desc>
    <defs></defs>
    <g id="icon/24/首页-copy" stroke="none" stroke-width="1" fill="none" fill-rule="evenodd">
        <g id="首页" fill="#9B9B9B" fill-rule="nonzero">
            <path d="M0.590383781,12.1605561 C0.351622836,12.159608 0.136806633,12.0153105 0.0456402656,11.7946379 C-0.0455261018,11.5739653 0.00480808882,11.3201263 0.173280656,11.150938 L10.8219808,0.487953539 C11.4721964,-0.162256275 12.5263981,-0.162256275 13.1766137,0.487953539 L23.8241711,11.1503666 C24.0549768,11.3816572 24.0549768,11.7561392 23.8241711,11.9874298 C23.7135533,12.09828 23.5633838,12.1605747 23.4067822,12.1605747 C23.2501806,12.1605747 23.1000111,12.09828 22.9893934,11.9874298 L12.3424074,1.32387391 C12.1529454,1.13537954 11.8467918,1.13537954 11.6573298,1.32387391 L1.00862967,11.9868584 C0.897857225,12.0980684 0.747349407,12.1605744 0.590383781,12.1605561 Z" id="Shape"></path>
            <path d="M19.8662623,23.9977145 L14.641617,23.9977145 C14.4833648,23.9977148 14.3316109,23.9347712 14.219817,23.8227629 C14.108023,23.7107546 14.0453703,23.5588804 14.0456737,23.4006285 L14.0456737,21.0528521 C14.0456748,19.9217332 13.129558,19.0043379 11.9984402,19.0027616 C10.8676762,19.0049671 9.95209086,19.922086 9.95177794,21.0528521 L9.95177794,23.4006285 C9.95177794,23.7308828 9.68437484,23.9977145 9.35526333,23.9977145 L4.13118942,23.9977145 C3.18213696,23.9977145 2.41021048,23.2429292 2.41021048,22.315589 L2.41021048,12.1794115 C2.41021048,11.8499656 2.67727916,11.5828969 3.00672509,11.5828969 C3.33617101,11.5828969 3.6032397,11.8499656 3.6032397,12.1794115 L3.6032397,22.315589 C3.6032397,22.5847062 3.84035998,22.8041139 4.13118942,22.8041139 L8.7587487,22.8041139 L8.7587487,21.0528521 C8.7587487,19.2638796 10.2123245,17.8085896 11.9978688,17.8085897 C13.7845558,17.8085897 15.2375602,19.2638796 15.2375602,21.0528521 L15.2375602,22.8041139 L19.8656909,22.8041139 C20.1570917,22.8041139 20.394212,22.5841348 20.394212,22.315589 L20.394212,12.1794115 C20.3874809,11.9619981 20.4996263,11.7581563 20.68687,11.6474599 C20.8741137,11.5367636 21.1067682,11.5367636 21.2940118,11.6474599 C21.4812555,11.7581563 21.593401,11.9619981 21.5866699,12.1794115 L21.5866699,22.315589 C21.5866699,23.2429292 20.8153147,23.9977145 19.8662623,23.9977145 Z" id="Shape"></path>
        </g>
    </g>
</svg>