<?xml version="1.0" encoding="UTF-8"?>
<svg width="24px" height="24px" viewBox="0 0 24 24" version="1.1" xmlns="http://www.w3.org/2000/svg" xmlns:xlink="http://www.w3.org/1999/xlink">
    <!-- Generator: Sketch 49.2 (51160) - http://www.bohemiancoding.com/sketch -->
    <title>icon/24/首页@2x</title>
    <desc>Created with Sketch.</desc>
    <defs></defs>
    <g id="icon/24/首页" stroke="none" stroke-width="1" fill="none" fill-rule="evenodd">
        <g id="首页">
            <path d="M3.11627461,11.1032008 L12.8536331,1.15483038 C13.0467912,0.957486551 13.3633555,0.95409329 13.5606993,1.14725132 C13.5613058,1.147845 13.5619109,1.14844021 13.5625144,1.14903697 L23.6234631,11.0974073 C23.8198207,11.2915678 23.8216019,11.6081453 23.6274414,11.8045029 C23.5335167,11.8994906 23.4054878,11.9529443 23.2719045,11.9529443 L22.0234842,11.9529443 L22.0234842,23.4977145 C22.0234842,23.7738569 21.7996265,23.9977145 21.5234842,23.9977145 L16.3933118,23.9977145 C16.1171694,23.9977145 15.8933118,23.7738569 15.8933118,23.4977145 L15.8933118,21.3666527 C15.8933118,20.0595416 14.8336889,18.9999186 13.5265777,18.9999186 L13.5265777,18.9999186 C12.2194666,18.9999186 11.1598436,20.0595416 11.1598436,21.3666527 L11.1598436,23.4977145 C11.1598436,23.7738569 10.935986,23.9977145 10.6598436,23.9977145 L5.56119111,23.9977145 C5.28504873,23.9977145 5.06119111,23.7738569 5.06119111,23.4977145 L5.06119111,11.9529443 L3.47359722,11.9529443 C3.19745484,11.9529443 2.97359722,11.7290867 2.97359722,11.4529443 C2.97359722,11.3221922 3.02481519,11.1966421 3.11627461,11.1032008 Z" id="Path-3" fill="#C5E57D"></path>
            <path d="M0.590383781,12.1605561 C0.351622836,12.159608 0.136806633,12.0153105 0.0456402656,11.7946379 C-0.0455261018,11.5739653 0.00480808882,11.3201263 0.173280656,11.150938 L10.8219808,0.487953539 C11.4721964,-0.162256275 12.5263981,-0.162256275 13.1766137,0.487953539 L23.8241711,11.1503666 C24.0549768,11.3816572 24.0549768,11.7561392 23.8241711,11.9874298 C23.7135533,12.09828 23.5633838,12.1605747 23.4067822,12.1605747 C23.2501806,12.1605747 23.1000111,12.09828 22.9893934,11.9874298 L12.3424074,1.32387391 C12.1529454,1.13537954 11.8467918,1.13537954 11.6573298,1.32387391 L1.00862967,11.9868584 C0.897857225,12.0980684 0.747349407,12.1605744 0.590383781,12.1605561 Z" id="Shape" fill="#4F4F4F" fill-rule="nonzero"></path>
            <path d="M19.8662623,23.9977145 L14.641617,23.9977145 C14.4833648,23.9977148 14.3316109,23.9347712 14.219817,23.8227629 C14.108023,23.7107546 14.0453703,23.5588804 14.0456737,23.4006285 L14.0456737,21.0528521 C14.0456748,19.9217332 13.129558,19.0043379 11.9984402,19.0027616 C10.8676762,19.0049671 9.95209086,19.922086 9.95177794,21.0528521 L9.95177794,23.4006285 C9.95177794,23.7308828 9.68437484,23.9977145 9.35526333,23.9977145 L4.13118942,23.9977145 C3.18213696,23.9977145 2.41021048,23.2429292 2.41021048,22.315589 L2.41021048,12.1794115 C2.41021048,11.8499656 2.67727916,11.5828969 3.00672509,11.5828969 C3.33617101,11.5828969 3.6032397,11.8499656 3.6032397,12.1794115 L3.6032397,22.315589 C3.6032397,22.5847062 3.84035998,22.8041139 4.13118942,22.8041139 L8.7587487,22.8041139 L8.7587487,21.0528521 C8.7587487,19.2638796 10.2123245,17.8085896 11.9978688,17.8085897 C13.7845558,17.8085897 15.2375602,19.2638796 15.2375602,21.0528521 L15.2375602,22.8041139 L19.8656909,22.8041139 C20.1570917,22.8041139 20.394212,22.5841348 20.394212,22.315589 L20.394212,12.1794115 C20.3874809,11.9619981 20.4996263,11.7581563 20.68687,11.6474599 C20.8741137,11.5367636 21.1067682,11.5367636 21.2940118,11.6474599 C21.4812555,11.7581563 21.593401,11.9619981 21.5866699,12.1794115 L21.5866699,22.315589 C21.5866699,23.2429292 20.8153147,23.9977145 19.8662623,23.9977145 Z" id="Shape" fill="#4F4F4F" fill-rule="nonzero"></path>
        </g>
    </g>
</svg>