<?xml version="1.0" encoding="UTF-8"?>
<svg width="24px" height="24px" viewBox="0 0 24 24" version="1.1" xmlns="http://www.w3.org/2000/svg" xmlns:xlink="http://www.w3.org/1999/xlink">
    <!-- Generator: Sketch 49.2 (51160) - http://www.bohemiancoding.com/sketch -->
    <title>icon/24/订单列表未点击@2x</title>
    <desc>Created with Sketch.</desc>
    <defs></defs>
    <g id="icon/24/订单列表未点击" stroke="none" stroke-width="1" fill="none" fill-rule="evenodd">
        <g id="订单-copy" transform="translate(3.000000, 0.000000)" fill="#9B9B9B" fill-rule="nonzero">
            <path d="M6.37381233,3.56745763 L11.4766113,3.56745763 C12.1155818,3.56745763 12.6396354,3.04515254 12.6396354,2.40650847 L12.6396354,1.18454237 C12.6396354,0.545898305 12.1155818,0.0235932203 11.4766113,0.0235932203 L6.37381233,0.0235932203 C5.73402681,0.0235932203 5.2107882,0.545898305 5.2107882,1.18454237 L5.2107882,2.40650847 C5.2107882,3.04515254 5.73402681,3.56745763 6.37381233,3.56745763 Z M6.37381233,1.18454237 L11.4766113,1.18454237 L11.4766113,2.40650847 L6.37381233,2.40650847 L6.37381233,1.18454237 Z M14.7407399,1.52054237 C14.4139532,1.52054237 14.1490402,1.78498273 14.1490402,2.11118644 C14.1490402,2.43739015 14.4139532,2.70183051 14.7407399,2.70183051 C15.1963324,2.70183051 16.5802252,2.70183051 16.5802252,5.45816949 L16.5802252,15.5153898 C16.5802252,15.6919322 15.8165576,15.9555254 15.415571,15.9555254 L11.9582842,15.9555254 C10.9354424,15.9555254 10.1652547,16.7324746 10.1652547,17.7640678 L10.1652547,20.8466441 C10.1652547,21.6968136 10.3722681,22.2418983 10.7985201,22.5136271 C10.9933083,22.6381017 11.1962466,22.6820339 11.3894048,22.6820339 C11.7349705,22.6820339 12.0406005,22.5404746 12.188933,22.471322 C12.9623807,22.1125424 15.7065308,19.2781017 16.5419196,18.2774237 C17.5590563,17.0595254 17.7644397,16.3322034 17.7644397,15.5560678 L17.7644397,5.45735593 C17.7644397,2.95566102 16.6625416,1.52054237 14.7407399,1.52054237 Z M15.6331796,17.5208136 C14.6021877,18.7557966 12.1335121,21.1842712 11.6901448,21.3990508 C11.608683,21.4402526 11.5228392,21.4721819 11.4342306,21.4942373 C11.4032601,21.4234576 11.3486542,21.2420339 11.3486542,20.8458305 L11.3486542,17.7632542 C11.3486542,17.4614237 11.5393673,17.136 11.9590992,17.136 L15.4163861,17.136 C15.534563,17.136 15.7432064,17.1181017 15.9885255,17.0684746 C15.8882788,17.2059661 15.7701019,17.3564746 15.6331796,17.5208136 Z M8.49121716,21.6016271 L3.91899196,21.6016271 C2.41855228,21.6016271 1.1976622,20.3642034 1.1976622,18.8452881 L1.1976622,5.45735593 C1.1976622,4.42820339 1.45520643,2.70101695 3.18058981,2.70101695 C3.50737655,2.70101695 3.77228954,2.43657659 3.77228954,2.11037288 C3.77228954,1.78416917 3.50737655,1.51972881 3.18058981,1.51972881 C1.22781769,1.51972881 0.0142627346,3.0280678 0.0142627346,5.45735593 L0.0142627346,18.8452881 C0.0142627346,21.0158644 1.76654155,22.7829153 3.91980697,22.7829153 L8.49203217,22.7829153 C8.81881891,22.7826906 9.08354946,22.5180681 9.0833244,22.1918644 C9.08309934,21.8656607 8.8180039,21.6014025 8.49121716,21.6016271 Z" id="Shape"></path>
            <path d="M13.9648472,5.83484746 L3.63781233,5.83484746 C3.31102559,5.83484746 3.0461126,6.09928781 3.0461126,6.42549153 C3.0461126,6.75169524 3.31102559,7.01613559 3.63781233,7.01613559 L13.9648472,7.01613559 C14.2795775,6.99964033 14.5262951,6.74009305 14.5262951,6.42549153 C14.5262951,6.11089 14.2795775,5.85134272 13.9648472,5.83484746 Z M13.9648472,13.2862373 L3.63781233,13.2862373 C3.31080053,13.2862373 3.04570509,13.5508598 3.04570509,13.8772881 C3.04570509,14.2037165 3.31080053,14.468339 3.63781233,14.468339 L13.9648472,14.468339 C14.2833151,14.4565426 14.5353906,14.1954067 14.5353906,13.8772881 C14.5353906,13.5591696 14.2833151,13.2980336 13.9648472,13.2862373 Z M13.9648472,9.56013559 L3.63781233,9.56013559 C3.31102559,9.56013559 3.0461126,9.82457595 3.0461126,10.1507797 C3.0461126,10.4769834 3.31102559,10.7414237 3.63781233,10.7414237 L13.9648472,10.7414237 C14.2795775,10.7249285 14.5262951,10.4653812 14.5262951,10.1507797 C14.5262951,9.83617814 14.2795775,9.57663086 13.9648472,9.56013559 Z" id="Shape"></path>
        </g>
    </g>
</svg>