<?xml version="1.0" encoding="UTF-8"?>
<svg width="68px" height="68px" viewBox="0 0 68 68" version="1.1" xmlns="http://www.w3.org/2000/svg" xmlns:xlink="http://www.w3.org/1999/xlink">

    <defs>
        <circle id="path-1" cx="30" cy="30" r="30"></circle>
        <filter x="-11.7%" y="-8.3%" width="123.3%" height="123.3%" filterUnits="objectBoundingBox" id="filter-2">
            <feOffset dx="0" dy="2" in="SourceAlpha" result="shadowOffsetOuter1"></feOffset>
            <feGaussianBlur stdDeviation="3" in="shadowOffsetOuter1" result="shadowBlurOuter1"></feGaussianBlur>
            <feColorMatrix values="0 0 0 0 0   0 0 0 0 0   0 0 0 0 0  0 0 0 0.274422554 0" type="matrix" in="shadowBlurOuter1"></feColorMatrix>
        </filter>
    </defs>
    <g id="Page-1" stroke="none" stroke-width="1" fill="none" fill-rule="evenodd">
        <g id="Group-7-Copy" transform="translate(4.000000, 2.000000)">
            <g id="Group-5">
                <g id="Oval-5">
                    <use fill="black" fill-opacity="1" filter="url(#filter-2)" xlink:href="#path-1"></use>
                    <use fill="#FFFFFF" fill-rule="evenodd" xlink:href="#path-1"></use>
                </g>
                <g id="Group-4" transform="translate(20.000000, 38.000000)" fill="#4A4A4A" font-family="PingFang-SC-Medium, PingFang SC" font-size="10" font-weight="400">
                    <text id="扫描">
                        <tspan x="0" y="11">扫描</tspan>
                    </text>
                </g>
            </g>
            <g id="icon/24/扫码" transform="translate(17.000000, 12.000000)">
                <g id="扫码" transform="translate(0.000000, 1.083333)">
                    <path d="M17.5201591,1.58921385 C17.0787375,1.58921385 16.7239256,1.23248649 16.7239256,0.794606923 C16.7239256,0.356727357 17.0813832,1.42108547e-14 17.5201591,1.42108547e-14 L22.8285273,1.42108547e-14 C24.0012613,1.42108547e-14 24.9518164,0.948613333 24.9518164,2.11895179 L24.9518164,7.41644734 C24.9518164,7.85699619 24.5943589,8.21105426 24.1555539,8.21105426 C23.716778,8.21105426 23.3593205,7.8543269 23.3593205,7.41644734 L23.3593205,2.11895179 C23.3593205,1.82701274 23.1210348,1.59197018 22.8311439,1.59197018 L17.5201591,1.59197018 L17.5201591,1.58921385 Z M23.3593496,16.416886 C23.3593496,15.9762211 23.7168071,15.622134 24.155583,15.622134 C24.5970336,15.622134 24.9518455,15.9789774 24.9518455,16.416886 L24.9518455,21.7115962 C24.9518455,22.8819347 24.0012904,23.830548 22.8285563,23.830548 L17.4633496,23.830548 C17.021899,23.830548 16.6670871,23.4738206 16.6670871,23.0359411 C16.6670871,22.5980615 17.0245447,22.2413341 17.4633496,22.2413341 L22.817712,22.2413341 C23.1102486,22.2413341 23.3458886,22.0035062 23.3458886,21.7142365 L23.3458886,16.416857 L23.3593496,16.416886 Z M8.49065625,22.2439744 C8.93207781,22.2439744 9.28686061,22.6008178 9.28686061,23.0387264 C9.28686061,23.4792463 8.9294612,23.8333333 8.49065625,23.8333333 L3.18493371,23.8333333 C2.01231594,23.8333333 1.06164457,22.8845749 1.06164457,21.7142655 L1.06164457,16.416886 C1.06164457,15.9762211 1.41924749,15.622134 1.857878,15.622134 C2.29665387,15.622134 2.65411143,15.9789774 2.65411143,16.416886 L2.65411143,21.7115962 C2.65411143,22.0035352 2.89254245,22.2385778 3.18228803,22.2385778 L8.49065625,22.2439744 Z M2.65146575,7.41647635 C2.65146575,7.85702521 2.29406634,8.21108327 1.85526139,8.21108327 C1.41648552,8.21108327 1.05902796,7.85435592 1.05902796,7.41647635 L1.05902796,2.11895179 C1.05902796,0.948613333 2.00958304,0 3.18231711,0 L8.49065625,0 C8.93207781,0 9.28686061,0.356727357 9.28686061,0.794606923 C9.28686061,1.23245748 8.9294612,1.58921385 8.49065625,1.58921385 L3.18493371,1.58921385 C2.89254245,1.58921385 2.6568734,1.82701274 2.6568734,2.11631152 L2.65146575,7.41647635 Z M4.33678338,11.1218697 L4.33678338,11.1150002 L21.6666667,11.1150002 L21.6666667,12.696667 L4.72876076,12.696667 L4.72876076,12.7086019 L0.796262502,12.7086019 C0.357457553,12.7059616 0,12.3546599 0,11.913995 C0,11.4762315 0.354782799,11.1193881 0.796262502,11.1193881 L4.33678338,11.1218697 Z" id="Shape" fill="#4A4A4A" fill-rule="nonzero"></path>
                    <path d="M21.2712392,11.1220017 L21.2712392,12.7085753 L25.2037666,12.7085753 C25.6451881,12.7085753 26,12.3518479 26,11.9139684 C26,11.4760888 25.6425134,11.1220017 25.2037666,11.1220017 L21.2712392,11.1220017 Z" id="Path" fill="#4A4A4A"></path>
                    <polygon id="Path" fill="#C5E57D" points="4.74402682 3.6602723 21.2814212 3.6602723 21.2814212 11.1176121 4.74402682 11.1176121"></polygon>
                    <polygon id="Path" fill="#C5E57D" points="4.74402682 12.7031087 21.2814212 12.7031087 21.2814212 20.1604195 4.74402682 20.1604195"></polygon>
                </g>
            </g>
        </g>
    </g>
</svg>