<?xml version="1.0" encoding="UTF-8"?>
<svg width="24px" height="24px" viewBox="0 0 24 24" version="1.1" xmlns="http://www.w3.org/2000/svg" xmlns:xlink="http://www.w3.org/1999/xlink">
    <!-- Generator: Sketch 49.2 (51160) - http://www.bohemiancoding.com/sketch -->
    <title>icon/24/购物车未点击@2x</title>
    <desc>Created with Sketch.</desc>
    <defs>
        <polygon id="path-1" points="0.00175609756 0.00837533512 23.97782 0.00837533512 23.97782 21.9705344 0.00175609756 21.9705344"></polygon>
    </defs>
    <g id="icon/24/购物车未点击" stroke="none" stroke-width="1" fill="none" fill-rule="evenodd">
        <g id="购物车" transform="translate(0.000000, 2.000000)">
            <mask id="mask-2" fill="white">
                <use xlink:href="#path-1"></use>
            </mask>
            <g id="Clip-2"></g>
            <path d="M18.5274146,15.8377882 L7.72156098,15.8377882 C6.40802927,15.8325094 5.28520976,14.8836193 5.05141463,13.5811957 L3.22053659,4.06044504 L2.67553171,1.4853244 L0.653970732,1.4853244 C0.292009756,1.42424933 0.0204585366,1.11875603 0,0.749563003 C0,0.41466756 0.2616,0.00837533512 0.583082927,0.00837533512 L3.26959024,0.00837533512 L3.43843902,0.0413163539 L3.53654634,0.0851983914 L3.65098537,0.145683646 C3.68107317,0.170101877 3.70849756,0.197764075 3.73273171,0.228050938 C3.76279024,0.25441555 3.7902439,0.283906166 3.81447805,0.315815013 C3.81813659,0.354182306 3.81813659,0.392785523 3.81447805,0.431152815 L3.81447805,0.480549598 L4.46833171,3.33574263 L22.0476,3.33574263 C22.6775415,3.33816086 23.2662439,3.65205898 23.6223805,4.17575335 C23.9852488,4.70404826 24.076361,5.37507775 23.8676195,5.98217158 L21.0993659,13.9765469 C20.7245854,15.0868391 19.6912683,15.8345737 18.5274146,15.8377882 Z M21.6333951,4.71383914 L4.81164878,4.71383914 L6.53906341,13.0760509 C6.66699512,13.7962708 7.28426341,14.3237694 8.01038049,14.3334424 L18.363922,14.3334424 C19.0059805,14.3265121 19.5728195,13.9096327 19.7751805,13.2956086 L22.3417756,5.73506971 C22.423639,5.50112064 22.3891024,5.24180965 22.2491707,5.03779357 C22.1125463,4.83421984 21.8827317,4.71431099 21.6388683,4.71926542 L21.6333951,4.71383914 Z M7.30197073,17.1390617 C8.27549268,17.1212198 9.16302439,17.6983512 9.54799024,18.599555 C9.93280976,19.5007292 9.7385561,20.5470858 9.0564878,21.247134 C8.37427317,21.9471823 7.33969756,22.1620509 6.43835122,21.790882 C5.53709268,21.4195952 4.94806829,20.5360268 4.94795122,19.554992 C4.94209756,18.9200295 5.18689756,18.3087775 5.62832195,17.8557131 C6.06986341,17.4026488 6.67179512,17.1448418 7.30197073,17.1390617 Z M7.30197073,20.6530751 C7.74272195,20.6530751 8.14012683,20.3855657 8.3088878,19.9752332 C8.47750244,19.5649008 8.38434146,19.0924906 8.07254634,18.778445 C7.76089756,18.464429 7.29213659,18.3704129 6.88489756,18.5404558 C6.47765854,18.7103807 6.21207805,19.1108043 6.21207805,19.554992 C6.21207805,20.1614075 6.70003902,20.6530751 7.30197073,20.6530751 Z M17.7045659,17.1390617 C18.6780878,17.1212198 19.5656195,17.6983512 19.9504683,18.599555 C20.3354049,19.5007292 20.1411512,20.5470858 19.4589659,21.247134 C18.7768683,21.9471823 17.7421756,22.1620509 16.8409171,21.790882 C15.9396585,21.4195952 15.3506341,20.5360268 15.3504293,19.554992 C15.3446927,18.9200295 15.5893756,18.3087775 16.0309171,17.8557131 C16.4723415,17.4026488 17.0743902,17.1448418 17.7045659,17.1390617 Z M17.7045659,20.6256488 C18.1488585,20.6434906 18.5594049,20.3876595 18.7420098,19.9790375 C18.9244683,19.570445 18.8422537,19.0911046 18.5343805,18.7678579 C18.226361,18.4447292 17.7544098,18.3424263 17.3418146,18.5094611 C16.9290732,18.676496 16.6586927,19.0794558 16.6582244,19.5274772 C16.6494146,19.8137426 16.7554244,20.0916032 16.9522829,20.2981555 C17.1491707,20.5047962 17.4202244,20.6227587 17.7045659,20.6256488 Z" id="Fill-1" fill="#9B9B9B" mask="url(#mask-2)"></path>
        </g>
    </g>
</svg>