<?xml version="1.0" encoding="UTF-8"?>
<svg width="80px" height="45px" viewBox="0 0 80 45" version="1.1" xmlns="http://www.w3.org/2000/svg" xmlns:xlink="http://www.w3.org/1999/xlink">
    <!-- Generator: Sketch 49.2 (51160) - http://www.bohemiancoding.com/sketch -->
    <title>Page 1 Copy@2x</title>
    <desc>Created with Sketch.</desc>
    <defs></defs>
    <g id="Page-1" stroke="none" stroke-width="1" fill="none" fill-rule="evenodd">
        <g id="账号登录" transform="translate(-148.000000, -160.000000)" fill="#FFFFFF">
            <g id="Page-1-Copy" transform="translate(148.000000, 160.000000)">
                <path d="M77.9885564,33.3082924 C77.378559,32.9263462 75.7926763,32.3920952 74.6294189,33.5287268 C74.1838218,33.9640718 73.832326,34.2665773 73.4204947,34.7213878 C72.5517189,35.6804619 71.626759,36.394375 70.6500435,37.1303841 C69.1125953,38.109976 66.4896616,39.3331505 62.9473035,39.3331505 C58.1354089,39.3331505 55.1762016,37.1595825 54.2465367,36.3559699 C54.1397041,36.2591682 54.0317645,36.1636816 53.9276996,36.0610928 C52.6686803,34.8189787 51.6559849,33.5860714 50.8907204,31.7447333 L49.3294702,27.925009 C49.0438452,27.2308245 47.9301294,27.2132003 47.5645184,27.8758189 L43.5430742,36.5274774 C43.362898,36.8946928 43.4808013,37.4123719 43.7495434,37.7267146 C43.7495434,37.7267146 48.9231742,45 60.7705204,45 C61.7162378,45 62.6140744,44.9505469 63.4753775,44.8668976 C63.5027775,44.8642671 63.5307312,44.8621627 63.5581312,44.8590061 C73.4279675,43.8696815 77.8061661,37.8235164 78.4668121,36.7092438 C79.3604971,35.6223282 79.1249673,34.0208902 77.9885564,33.3082924" id="Fill-1"></path>
                <path d="M11.3885648,10.3764833 C10.3584317,8.38856431 8.89028702,7.82608696 7.09950117,7.82608696 L0.482387688,7.82608696 C0.128076198,7.82608696 -0.10492673,8.1754966 0.0474865928,8.47732024 L16.577687,41.2937567 C17.1157993,42.3623032 18.2564957,43.0434783 19.5086037,43.0434783 L19.9231453,43.0434783 C21.2725263,43.0434783 22.4946606,42.2909242 23.0406905,41.1247996 L24.4751855,38.0611159 C24.775205,37.4200414 24.7624804,36.6867357 24.4398392,36.055018 L11.3885648,10.3764833 Z" id="Fill-3"></path>
                <g id="Group-7" transform="translate(14.814815, 0.000000)">
                    <path d="M64.8157112,10.0203617 C64.7954435,9.98300988 64.7836664,9.94459091 64.7612076,9.90830632 L64.7683287,9.90270356 C64.5360722,9.51531225 64.2890258,9.187417 64.0386928,8.90247628 C60.1045752,3.66255534 53.48061,0.221656126 45.9700716,0.221656126 C39.3192655,0.221656126 33.6032369,2.88003557 29.5948957,7.13627075 C26.8902583,9.98701186 24.7262745,14.3334249 24.7262745,14.3334249 L20.8773358,21.9123676 C20.5859197,22.5145316 19.7048242,22.5102628 19.4191597,21.9059644 L11.0113663,4.73588538 C9.97059446,2.74183399 8.2831746,2.25572727 7.11285403,2.25572727 L0.517099284,2.25572727 C0.174192344,2.25572727 -0.0514908185,2.60389921 0.0961344538,2.90564822 L16.3513477,36.249581 C16.5860691,36.7404901 17.3280299,37.4517747 18.1143604,37.7321798 C18.5120448,37.8738498 19.2121008,37.9202727 19.6303268,37.8701146 C20.9093806,37.7151047 21.7663741,36.8090573 22.1837784,35.8902036 L25.8483909,27.8262213 L29.5239589,19.7363597 C29.5239589,19.7363597 30.7263243,17.2687411 31.8572051,15.2418735 C33.4509555,12.7481087 35.8030999,9.91977866 38.9503392,8.24695257 C39.6788796,7.89077668 40.4753439,7.55861265 41.3476751,7.26139921 C41.6801743,7.16401779 41.9737815,7.07303953 42.2495861,6.98472925 C46.5367445,5.80334585 50.3237846,6.65816798 50.3237846,6.65816798 C50.3237846,6.65816798 55.6930719,7.35451186 59.754821,11.8041759 C59.7997386,11.8546008 59.8446561,11.9034249 59.8892997,11.9541166 C59.9495549,12.0218834 60.0092624,12.091251 60.0689698,12.1608854 C60.2031746,12.3161621 60.3379272,12.4722391 60.4652848,12.623247 C61.3978711,13.7240573 62.8820666,14.0100652 64.0606038,13.1525751 C65.0550887,12.428751 65.4300405,11.1430494 64.8157112,10.0203617" id="Fill-5"></path>
                </g>
            </g>
        </g>
    </g>
</svg>