<?xml version="1.0" encoding="UTF-8"?>
<svg width="24px" height="24px" viewBox="0 0 24 24" version="1.1" xmlns="http://www.w3.org/2000/svg" xmlns:xlink="http://www.w3.org/1999/xlink">
    <!-- Generator: Sketch 51.3 (57544) - http://www.bohemiancoding.com/sketch -->
    <title>icon/24/发货@2x</title>
    <desc>Created with Sketch.</desc>
    <defs></defs>
    <g id="icon/24/发货" stroke="none" stroke-width="1" fill="none" fill-rule="evenodd">
        <g id="待发货-(1)" transform="translate(0.000000, 2.000000)" fill="#BBADA6" fill-rule="nonzero">
            <path d="M2.73142969,17.2083433 C1.22798437,17.2083433 0.0048515625,15.9643623 0.0048515625,14.4351847 L0.0048515625,2.78805721 C0.0048515625,1.25892729 1.22798437,0.0148986889 2.73142969,0.0148986889 L12.5471719,0.0148986889 C14.0506172,0.0148986889 15.2738906,1.25892729 15.2738906,2.78805721 L15.2738906,15.5444338 C15.2738906,15.8507032 15.0297422,16.0990226 14.7284766,16.0990226 C14.4272578,16.0990226 14.1830859,15.8507032 14.1830859,15.5444338 L14.1830859,2.78805721 C14.1830859,1.87058403 13.4492344,1.12417163 12.5471484,1.12417163 L2.73142969,1.12417163 C1.82936719,1.12417163 1.09544531,1.87058403 1.09544531,2.78805721 L1.09544531,14.4351609 C1.09544531,15.3526341 1.82934375,16.0990226 2.73142969,16.0990226 C3.03255469,16.0990226 3.27672656,16.3473897 3.27672656,16.6537068 C3.27672656,16.960143 3.03255469,17.2083433 2.73142969,17.2083433 Z" id="Shape"></path>
            <path d="M14.7284766,17.2083433 L9.27529688,17.2083433 C8.97414844,17.2083433 8.73,16.960143 8.73,16.6537068 C8.73,16.3473897 8.97414844,16.0990226 9.27529688,16.0990226 L14.7284766,16.0990226 C15.0297422,16.0990226 15.2738906,16.3473897 15.2738906,16.6537068 C15.2738906,16.960143 15.0297422,17.2083433 14.7284766,17.2083433 Z M22.3629609,17.2083433 L21.2723438,17.2083433 C20.9711953,17.2083433 20.727,16.960143 20.727,16.6537068 C20.727,16.3473897 20.9711953,16.0990226 21.2723438,16.0990226 L22.3629609,16.0990226 C22.6636172,16.0990226 22.9082344,15.8502265 22.9082344,15.5444338 L22.9082344,11.6620977 C22.9082344,11.169702 22.6535156,10.3922288 22.3629609,9.9984267 L20.3999063,7.33611442 C20.1430547,6.98781883 19.519125,6.67060787 19.0910625,6.67060787 L15.2738906,6.67060787 C14.972625,6.67060787 14.7284766,6.4222646 14.7284766,6.11599523 C14.7284766,5.80958284 14.972625,5.56133492 15.2738906,5.56133492 L19.0910859,5.56133492 C19.8681094,5.56133492 20.8058438,6.03811681 21.2723438,6.67046484 L23.235375,9.33272944 C23.6706094,9.92283671 23.9988984,10.9242908 23.9988984,11.6620977 L23.9988984,15.5444577 C23.9988984,16.4619547 23.2650469,17.2083433 22.3629609,17.2083433 Z" id="Shape"></path>
            <path d="M22.3629609,12.2166865 L18.0004687,12.2166865 C17.3990625,12.2166865 16.9098281,11.7190703 16.9098281,11.1073659 L16.9098281,8.88910608 C16.9098281,8.27747318 17.3990625,7.77985697 18.0004687,7.77985697 L20.7270234,7.77985697 C21.0281719,7.77985697 21.2723672,8.02820024 21.2723672,8.33446961 C21.2723672,8.64073897 21.0281719,8.88910608 20.7270234,8.88910608 L18.0004687,8.88910608 L18.0004687,11.1073659 L22.3629844,11.1073659 C22.6641094,11.1073659 22.9082578,11.3557092 22.9082578,11.6620977 C22.9082344,11.9682956 22.6640859,12.2166865 22.3629609,12.2166865 Z M6.00342188,19.981621 C4.49995313,19.981621 3.27672656,18.7374493 3.27672656,17.2083194 C3.27672656,15.6791895 4.49995313,14.4351609 6.00342188,14.4351609 C7.50684375,14.4351609 8.72997656,15.6791895 8.72997656,17.2083194 C8.72997656,18.7374493 7.50684375,19.981621 6.00342188,19.981621 Z M6.00342188,15.5444577 C5.10121875,15.5444577 4.36734375,16.2908939 4.36734375,17.2083433 C4.36734375,18.1259595 5.10121875,18.8723242 6.00342188,18.8723242 C6.90546094,18.8723242 7.63935938,18.1259595 7.63935938,17.2083433 C7.63938281,16.2908939 6.90546094,15.5444577 6.00342188,15.5444577 Z M18.0004688,19.981621 C16.497,19.981621 15.2737734,18.7374493 15.2737734,17.2083194 C15.2737734,15.6791895 16.4969766,14.4351609 18.0004688,14.4351609 C19.5039141,14.4351609 20.7270234,15.6791895 20.7270234,17.2083194 C20.7270234,18.7374493 19.5039141,19.981621 18.0004688,19.981621 Z M18.0004688,15.5444577 C17.0984297,15.5444577 16.3645078,16.2908939 16.3645078,17.2083433 C16.3645078,18.1259595 17.0984063,18.8723242 18.0004688,18.8723242 C18.9024844,18.8723242 19.6363359,18.1259595 19.6363359,17.2083433 C19.6363125,16.2908939 18.9024844,15.5444577 18.0004688,15.5444577 Z M9.27529688,9.44376639 L6.54874219,9.44376639 C6.2475,9.44376639 6.00344531,9.19542312 6.00344531,8.88910608 L6.00344531,4.45196663 C6.00344531,4.14569726 6.2475,3.89735399 6.54874219,3.89735399 C6.84989063,3.89735399 7.0940625,4.14569726 7.0940625,4.45196663 L7.0940625,8.33449344 L9.27529688,8.33449344 C9.57642188,8.33449344 9.82059375,8.58281287 9.82059375,8.88912992 C9.82059375,9.19542312 9.57642188,9.44376639 9.27529688,9.44376639 Z" id="Shape"></path>
        </g>
    </g>
</svg>