<?xml version="1.0" encoding="UTF-8"?>
<svg width="24px" height="24px" viewBox="0 0 24 24" version="1.1" xmlns="http://www.w3.org/2000/svg" xmlns:xlink="http://www.w3.org/1999/xlink">
    <!-- Generator: Sketch 51.3 (57544) - http://www.bohemiancoding.com/sketch -->
    <title>icon/24/发货 copy@2x</title>
    <desc>Created with Sketch.</desc>
    <defs></defs>
    <g id="icon/24/发货-copy" stroke="none" stroke-width="1" fill="none" fill-rule="evenodd">
        <g id="待付款" transform="translate(0.000000, 1.000000)" fill="#BAACA4" fill-rule="nonzero">
            <path d="M15.3684211,9.76360536 C14.2231579,9.76360536 13.3473684,10.6553959 13.3473684,11.8215834 C13.3473684,12.987771 14.2231579,13.8795615 15.3684211,13.8795615 C16.5136842,13.8795615 17.3894737,12.987771 17.3894737,11.8215834 C17.3894737,10.6553959 16.5136842,9.76360536 15.3684211,9.76360536 Z M15.3684211,12.9191717 C14.7621053,12.9191717 14.3578947,12.4389769 14.3578947,11.8901827 C14.3578947,11.2727893 14.8294737,10.8611937 15.3684211,10.8611937 C15.9747368,10.8611937 16.3789474,11.3413886 16.3789474,11.8901827 C16.4463158,12.4389769 15.9747368,12.9191717 15.3684211,12.9191717 Z" id="Shape"></path>
            <path d="M21.9031579,20.2592935 C21.9031579,20.6022899 21.6336842,20.876687 21.2968421,20.876687 L1.76,20.876687 C1.35578947,20.876687 1.01894737,20.6708892 1.01894737,20.2592935 L1.01894737,4.5500609 C1.01894737,4.13846529 1.35578947,3.79546894 1.76,3.79546894 L21.1621053,3.79546894 C21.5663158,3.79546894 21.9031579,4.13846529 21.9031579,4.5500609 L21.9031579,5.85344702 C21.9031579,6.05924482 22.1052632,6.26504263 22.3073684,6.26504263 L22.5094737,6.26504263 C22.7115789,6.26504263 22.9136842,6.05924482 22.9136842,5.85344702 L22.9136842,4.48146163 C22.9136842,3.58967113 22.1726316,2.69788063 21.2968421,2.69788063 L19.68,2.69788063 L19.68,0.43410475 C19.68,0.228306943 19.5452632,0.0225091352 19.2757895,0.0225091352 L2.77052632,0.0225091352 C2.09684211,0.0225091352 1.08631579,0.0225091352 0.547368421,0.845700365 C0.143157895,1.32589525 0.00842105263,1.80609013 0.00842105263,3.52107186 C0.00842105263,3.52107186 0.00842105263,20.4650914 0.00842105263,20.4650914 C0.00842105263,21.3568819 0.749473684,21.9742753 1.62526316,21.9742753 L21.3642105,21.9742753 C22.24,21.9742753 22.9810526,21.3568819 22.9810526,20.4650914 L22.9810526,17.9269184 C22.9810526,17.7211206 22.7789474,17.5153228 22.5768421,17.5153228 L22.3073684,17.5153228 C22.1052632,17.5153228 21.9031579,17.7211206 21.9031579,17.9269184 L21.9031579,20.2592935 Z M1.35578947,1.60029233 C1.69263158,1.18869671 2.02947368,1.12009744 2.43368421,1.12009744 L18.7368421,1.12009744 L18.7368421,2.7664799 L1.89473684,2.7664799 C1.55789474,2.7664799 1.28842105,2.90367844 1.08631579,3.04087698 C1.01894737,2.28628502 1.08631579,1.94328867 1.35578947,1.60029233 Z" id="Shape"></path>
            <path d="M23.5873684,7.29403167 L15.0315789,7.29403167 C12.6063158,7.29403167 10.5852632,9.35200974 10.5852632,11.8215834 C10.5852632,14.3597564 12.5389474,16.4177345 15.0315789,16.4177345 L23.5873684,16.4177345 C23.7894737,16.4177345 23.9915789,16.2119367 23.9915789,16.0061389 L23.9915789,7.70562728 C23.9915789,7.49982948 23.8568421,7.29403167 23.5873684,7.29403167 Z M22.9136842,15.3887454 L15.0989474,15.3887454 C13.1452632,15.3887454 11.5957895,13.8109622 11.5957895,11.8215834 C11.5957895,9.83220463 13.1452632,8.25442144 15.0989474,8.25442144 L22.9810526,8.25442144 L22.9136842,15.3887454 Z" id="Shape"></path>
        </g>
    </g>
</svg>