<?xml version="1.0" encoding="UTF-8"?>
<svg width="375px" height="403px" viewBox="0 0 375 403" version="1.1" xmlns="http://www.w3.org/2000/svg" xmlns:xlink="http://www.w3.org/1999/xlink">
    <!-- Generator: Sketch 49.2 (51160) - http://www.bohemiancoding.com/sketch -->
    <title>Oval@2x</title>
    <desc>Created with Sketch.</desc>
    <defs>
        <linearGradient x1="0%" y1="50%" x2="100%" y2="50%" id="linearGradient-1">
            <stop stop-color="#282828" offset="0%"></stop>
            <stop stop-color="#26211E" offset="100%"></stop>
        </linearGradient>
        <rect id="path-2" x="0" y="0" width="375" height="403"></rect>
    </defs>
    <g id="Page-1" stroke="none" stroke-width="1" fill="none" fill-rule="evenodd">
        <g id="授权查询-结果-copy">
            <g id="Oval">
                <mask id="mask-3" fill="white">
                    <use xlink:href="#path-2"></use>
                </mask>
                <use id="Mask" fill="url(#linearGradient-1)" xlink:href="#path-2"></use>
                <g id="Page-1" opacity="0.0849184783" mask="url(#mask-3)" stroke="#FEEFC5">
                    <g transform="translate(-419.000000, -209.000000)">
                        <path d="M458,397 C458,430.690919 430.689347,458 396.998988,458 C363.310653,458 336,430.690919 336,397 C336,363.309081 363.310653,336 396.998988,336 C430.689347,336 458,363.309081 458,397 Z" id="Stroke-1"></path>
                        <path d="M473,396.5 C473,438.749901 438.750352,473 396.498994,473 C354.249648,473 320,438.749901 320,396.5 C320,354.250099 354.249648,320 396.498994,320 C438.750352,320 473,354.250099 473,396.5 Z" id="Stroke-3"></path>
                        <path d="M489,396 C489,447.363195 447.363195,489 396,489 C344.636805,489 303,447.363195 303,396 C303,344.636805 344.636805,303 396,303 C447.363195,303 489,344.636805 489,396 Z" id="Stroke-5"></path>
                        <path d="M505,396 C505,456.198321 456.197868,505 395.998988,505 C335.800108,505 287,456.198321 287,396 C287,335.801679 335.800108,287 395.998988,287 C456.197868,287 505,335.801679 505,396 Z" id="Stroke-7"></path>
                        <path d="M520,395.5 C520,464.259329 464.258878,520 395.498992,520 C326.741122,520 271,464.259329 271,395.5 C271,326.740671 326.741122,271 395.498992,271 C464.258878,271 520,326.740671 520,395.5 Z" id="Stroke-9"></path>
                        <path d="M538,397 C538,474.871715 474.872169,538 396.998988,538 C319.129856,538 256,474.871715 256,397 C256,319.128285 319.129856,256 396.998988,256 C474.872169,256 538,319.128285 538,397 Z" id="Stroke-11"></path>
                        <path d="M555,397.5 C555,484.485009 484.485009,555 397.5,555 C310.514991,555 240,484.485009 240,397.5 C240,310.514991 310.514991,240 397.5,240 C484.485009,240 555,310.514991 555,397.5 Z" id="Stroke-13"></path>
                        <path d="M569,396.001012 C569,491.545563 491.545563,569 395.998988,569 C300.454437,569 223,491.545563 223,396.001012 C223,300.456462 300.454437,223 395.998988,223 C491.545563,223 569,300.456462 569,396.001012 Z" id="Stroke-15"></path>
                        <path d="M585,396 C585,500.381142 500.382714,585 395.998988,585 C291.619311,585 207,500.381142 207,396 C207,291.618858 291.619311,207 395.998988,207 C500.382714,207 585,291.618858 585,396 Z" id="Stroke-17"></path>
                        <path d="M600,395.5 C600,508.441246 508.441246,600 395.5,600 C282.556734,600 191,508.441246 191,395.5 C191,282.558754 282.556734,191 395.5,191 C508.441246,191 600,282.558754 600,395.5 Z" id="Stroke-19"></path>
                        <path d="M618,397 C618,519.054537 519.054537,618 397,618 C274.945463,618 176,519.054537 176,397 C176,274.945463 274.945463,176 397,176 C519.054537,176 618,274.945463 618,397 Z" id="Stroke-21"></path>
                        <path d="M634,397 C634,527.891687 527.891687,634 397,634 C266.110338,634 160,527.891687 160,397 C160,266.108313 266.110338,160 397,160 C527.891687,160 634,266.108313 634,397 Z" id="Stroke-23"></path>
                        <path d="M648,395.5 C648,534.951789 534.951789,648 395.5,648 C256.04619,648 143,534.951789 143,395.5 C143,256.048211 256.04619,143 395.5,143 C534.951789,143 648,256.048211 648,395.5 Z" id="Stroke-25"></path>
                        <path d="M665,396 C665,544.565082 544.565082,665 396,665 C247.434918,665 127,544.565082 127,396 C127,247.434918 247.434918,127 396,127 C544.565082,127 665,247.434918 665,396 Z" id="Stroke-27"></path>
                        <path d="M682,396.5 C682,554.176348 554.178376,682 396.5,682 C238.823652,682 111,554.176348 111,396.5 C111,238.823652 238.823652,111 396.5,111 C554.178376,111 682,238.823652 682,396.5 Z" id="Stroke-29"></path>
                        <path d="M697,395.998988 C697,562.236905 562.236905,697 395.998988,697 C229.761071,697 95,562.236905 95,395.998988 C95,229.761071 229.761071,95 395.998988,95 C562.236905,95 697,229.761071 697,395.998988 Z" id="Stroke-31"></path>
                        <path d="M714,397 C714,572.075627 572.074055,714 396.998988,714 C221.925945,714 80,572.075627 80,397 C80,221.924373 221.925945,80 396.998988,80 C572.074055,80 714,221.924373 714,397 Z" id="Stroke-33"></path>
                        <path d="M729,396.5 C729,580.13461 580.13461,729 396.5,729 C212.86539,729 64,580.13461 64,396.5 C64,212.86539 212.86539,64 396.5,64 C580.13461,64 729,212.86539 729,396.5 Z" id="Stroke-35"></path>
                        <path d="M745,396 C745,588.745878 588.74745,745 395.998988,745 C203.25255,745 47,588.745878 47,396 C47,203.252097 203.25255,47 395.998988,47 C588.74745,47 745,203.252097 745,396 Z" id="Stroke-37"></path>
                        <path d="M761,396.001012 C761,597.5846 597.5846,761 395.998988,761 C194.4154,761 31,597.5846 31,396.001012 C31,194.417425 194.4154,31 395.998988,31 C597.5846,31 761,194.417425 761,396.001012 Z" id="Stroke-39"></path>
                        <path d="M776,395.498989 C776,605.643585 605.645607,776 395.498989,776 C185.356415,776 15,605.643585 15,395.498989 C15,185.354393 185.356415,15 395.498989,15 C605.645607,15 776,185.354393 776,395.498989 Z" id="Stroke-41"></path>
                        <path d="M794,397 C794,616.256423 616.256423,794 397,794 C177.743577,794 0,616.256423 0,397 C0,177.743577 177.743577,0 397,0 C616.256423,0 794,177.743577 794,397 Z" id="Stroke-43"></path>
                    </g>
                </g>
            </g>
        </g>
    </g>
</svg>