<?xml version="1.0" encoding="UTF-8"?>
<svg width="80px" height="77px" viewBox="0 0 80 77" version="1.1" xmlns="http://www.w3.org/2000/svg" xmlns:xlink="http://www.w3.org/1999/xlink">
    <!-- Generator: Sketch 49.2 (51160) - http://www.bohemiancoding.com/sketch -->
    <title>Group 9@2x</title>
    <desc>Created with Sketch.</desc>
    <defs></defs>
    <g id="Page-1" stroke="none" stroke-width="1" fill="none" fill-rule="evenodd">
        <g id="授权查询" transform="translate(-148.000000, -91.000000)">
            <g id="Group-9" transform="translate(148.000000, 91.000000)">
                <g id="Page-1" fill="#DAC897">
                    <path d="M78.0176828,33.4530843 C77.4096828,33.0504458 75.8289931,32.4879157 74.6695448,33.6853012 C74.2254069,34.1439157 73.8750621,34.4625904 73.4645793,34.9417108 C72.5986483,35.9520482 71.6767172,36.7041205 70.7032,37.4794699 C69.1707862,38.5114217 66.5564414,39.7999759 63.0256828,39.7999759 C58.2295448,39.7999759 55.2800276,37.5102289 54.3534069,36.6636627 C54.2469241,36.5614096 54.1393379,36.4610964 54.0356138,36.352747 C52.7807172,35.0447952 51.7713379,33.7457108 51.0085793,31.8059518 L49.4524414,27.7820602 C49.1677517,27.050494 48.0576828,27.0319277 47.693269,27.730241 L43.6849931,36.8443373 C43.5054069,37.2311807 43.6229241,37.7765301 43.8907862,38.1076747 C43.8907862,38.1076747 49.0474759,45.7697229 60.8560276,45.7697229 C61.7986483,45.7697229 62.6935448,45.7173494 63.5520276,45.629506 C63.5793379,45.6264578 63.6072,45.6245181 63.6345103,45.6211928 C73.4720276,44.578988 77.8358897,38.2096506 78.4943724,37.0355422 C79.385131,35.8908072 79.1503724,34.203494 78.0176828,33.4530843" id="Fill-1"></path>
                    <path d="M11.1103448,10.7717313 C10.1053793,8.71115301 8.67310345,8.12811687 6.92606897,8.12811687 L0.47062069,8.12811687 C0.124965517,8.12811687 -0.102344828,8.49002048 0.0463448276,8.80315301 L16.1726897,42.8187675 C16.6976552,43.926647 17.8104828,44.6324422 19.032,44.6324422 L19.4364138,44.6324422 C20.7528276,44.6324422 21.9451034,43.852659 22.4777931,42.643912 L23.8772414,39.4682494 C24.169931,38.8037434 24.1575172,38.0436349 23.8427586,37.3891048 L11.1103448,10.7717313 Z" id="Fill-3"></path>
                    <g id="Group-7" transform="translate(14.344828, 0.046831)">
                        <path d="M65.2830345,10.4076108 C65.2626207,10.3688157 65.2507586,10.328912 65.2281379,10.2912253 L65.2353103,10.285406 C65.0013793,9.88304458 64.7525517,9.54247831 64.5004138,9.24652651 C60.537931,3.80411687 53.8662069,0.229972289 46.3015172,0.229972289 C39.6027586,0.229972289 33.8455172,2.99135783 29.8082759,7.41206867 C27.0841379,10.3729723 24.9045517,14.8873458 24.9045517,14.8873458 L21.0278621,22.758888 C20.7343448,23.3845988 19.8468966,23.3801651 19.5591724,22.7525145 L11.0907586,4.9189241 C10.0424828,2.84781566 8.34289655,2.3429241 7.16413793,2.3429241 L0.520827586,2.3429241 C0.175448276,2.3429241 -0.051862069,2.7045506 0.0968275862,3.01796024 L16.4692414,37.6504181 C16.7056552,38.1602976 17.4529655,38.8993458 18.2449655,39.1903096 C18.6455172,39.3374542 19.3506207,39.3856711 19.7718621,39.3335747 C21.0601379,39.1725747 21.9233103,38.2315145 22.3437241,37.277153 L26.0347586,28.9015506 L29.7368276,20.4990687 C29.7368276,20.4990687 30.9478621,17.9358157 32.0868966,15.8309 C33.6921379,13.2407675 36.0612414,10.303141 39.2311724,8.56567108 C39.9649655,8.19573133 40.7671724,7.85073133 41.6457931,7.54175542 C41.9806897,7.44088795 42.2764138,7.34639398 42.5542069,7.25467108 C46.8722759,6.02763494 50.6866207,6.91549036 50.6866207,6.91549036 C50.6866207,6.91549036 56.0946207,7.63874337 60.1856552,12.2603578 C60.2308966,12.3127313 60.2761379,12.3634422 60.3211034,12.4160928 C60.3817931,12.4862012 60.441931,12.5582494 60.502069,12.6305747 C60.6372414,12.7921289 60.7729655,12.9542373 60.9012414,13.1110807 C61.8405517,14.2544301 63.3354483,14.5512133 64.5224828,13.6605867 C65.5241379,12.9090687 65.9017931,11.5736831 65.2830345,10.4076108" id="Fill-5"></path>
                    </g>
                </g>
                <text id="授权查询" font-family="PingFang-SC-Medium, PingFang SC" font-size="16" font-weight="400" fill="#E8D39F">
                    <tspan x="9" y="75">授权查询</tspan>
                </text>
            </g>
        </g>
    </g>
</svg>