<?xml version="1.0" encoding="UTF-8"?>
<svg width="120px" height="122px" viewBox="0 0 120 122" version="1.1" xmlns="http://www.w3.org/2000/svg" xmlns:xlink="http://www.w3.org/1999/xlink">
    <!-- Generator: Sketch 51.3 (57544) - http://www.bohemiancoding.com/sketch -->
    <title>缺省-数据</title>
    <desc>Created with Sketch.</desc>
    <defs></defs>
    <g id="Page-1" stroke="none" stroke-width="1" fill="none" fill-rule="evenodd">
        <g id="我的物流-copy-2" transform="translate(-128.000000, -251.000000)" fill-rule="nonzero">
            <g id="缺省-数据" transform="translate(128.000000, 251.000000)">
                <path d="M20.8853613,0.0768100255 L114.670328,11.8835823 C117.292986,12.2133503 119.150687,14.6005809 118.819087,17.2149332 L106.072957,117.788766 C105.742464,120.403608 103.34682,122.253694 100.724654,121.923067 L6.93980994,110.117154 C4.31690597,109.786527 2.45859006,107.400155 2.79031359,104.785067 L15.5371816,4.21184771 C15.8681668,1.59675961 18.2634415,-0.253080491 20.8853613,0.0768100255 Z" id="Shape" fill="#E6E6E6"></path>
                <polygon id="Shape" fill="#D4D4D4" points="108.12002 74.2473762 116.579338 82.6793309 114.533259 84.7195019 106.072957 76.2858304 108.12002 74.2473762"></polygon>
                <path d="M4.82211992,7.31882842 L99.3526035,7.31882842 C101.995686,7.31882842 104.138354,9.45441013 104.138354,12.0896106 L104.138354,113.463765 C104.138354,116.096758 101.99581,118.232217 99.3526035,118.232217 L4.82211992,118.232217 C2.17817555,118.232217 0.0356308617,116.096758 0.0356307415,113.463765 L0.0356307415,12.0896106 C0.0355077355,9.45441013 2.17805255,7.31882842 4.82211992,7.31882842 Z" id="Shape" fill="#F8F8F8"></path>
                <path d="M89.7795023,60.9872458 L35.9331302,60.9872458 C34.6107889,60.9872458 33.5395781,59.9195776 33.539578,58.6014868 C33.539578,57.2843771 34.6107889,56.2165862 35.9331302,56.2165864 L89.7795023,56.2165864 C91.1020896,56.2165864 92.1724392,57.2843772 92.1724392,58.6014868 C92.1724392,59.9195776 91.1020896,60.9872458 89.7795023,60.9872458 Z M89.7795023,81.2616597 L35.9331302,81.2616597 C34.6107889,81.2616597 33.5395781,80.193133 33.539578,78.8767592 C33.539578,77.5586685 34.6107889,76.491736 35.9331302,76.491736 L89.7795023,76.491736 C91.1020896,76.491736 92.1724392,77.5586685 92.1724392,78.8767592 C92.1724392,80.1931331 91.1020896,81.2616598 89.7795023,81.2616597 Z M89.7795023,100.344298 L35.9331302,100.344298 C34.6107889,100.344298 33.5395781,99.2758937 33.539578,97.9592747 C33.539578,96.6415518 34.6107889,95.5729025 35.9331302,95.5729025 L89.7795023,95.5729025 C91.1020896,95.5729025 92.1724392,96.6415518 92.1724392,97.9592747 C92.1724392,99.2758937 91.1020896,100.344298 89.7795023,100.344298 Z" id="Shape" fill="#E0E0E0"></path>
                <path d="M105.861692,76.5623743 L114.536089,85.2082059 L95.0448741,104.636309 L86.3704777,95.9892514 L105.861692,76.5623743 Z M112.845849,71.2258727 L119.613697,77.9734231 C120.08126,78.4377226 120.08126,79.1936504 119.613697,79.6595442 L117.075939,82.1887872 L108.616498,73.75671 L111.154134,71.2257501 C111.378453,71.0021123 111.682739,70.8764791 112.000017,70.8765021 C112.317295,70.8765251 112.621562,71.0022024 112.845849,71.2258727 Z" id="Shape" fill="#D4D4D4"></path>
                <path d="M13.1971531,20.4375596 L89.7795023,20.4375596 C91.1020896,20.4375596 92.1724392,21.5046146 92.1724392,22.8225828 L92.1724392,35.941314 C92.1724392,37.2585463 91.1020896,38.327073 89.7795023,38.327073 L13.1971531,38.327073 C11.8764113,38.327073 10.8042161,37.2585463 10.8042161,35.941314 L10.8042161,22.8225828 C10.8042161,21.5046146 11.8764113,20.4375596 13.1971531,20.4375596 Z M13.1971531,52.6383157 L21.574401,52.6383157 C22.8951428,52.6383157 23.9663536,53.7061066 23.9663537,55.0239521 L23.9663537,63.3720237 C23.9663537,64.6899919 22.8951428,65.7569243 21.574401,65.7569243 L13.1971531,65.7569243 C11.8764113,65.7569243 10.8042161,64.6899919 10.8042161,63.3720237 L10.8042161,55.0239521 C10.8042161,53.7062293 11.8764113,52.6383158 13.1971531,52.6383157 Z M13.1971531,71.6189207 L21.574401,71.6189207 C22.8951428,71.6189207 23.9663536,72.6867116 23.9663537,74.0045572 L23.9663537,82.3526288 C23.9663537,83.6704742 22.8951428,84.7375293 21.574401,84.7375293 L13.1971531,84.7375293 C11.8764113,84.7375293 10.8042161,83.6704743 10.8042161,82.3526288 L10.8042161,74.0045572 C10.8042161,72.6867117 11.8764113,71.6189209 13.1971531,71.6189207 Z M13.1971531,90.5992806 L21.574401,90.5992806 C22.8951428,90.5992806 23.9663536,91.6670714 23.9663537,92.9849169 L23.9663537,101.332989 C23.9663537,102.650834 22.8951428,103.717889 21.574401,103.717889 L13.1971531,103.717889 C11.8764113,103.717889 10.8042161,102.650834 10.8042161,101.332989 L10.8042161,92.9849169 C10.8042161,91.667194 11.8764113,90.5992806 13.1971531,90.5992806 Z" id="Shape" fill="#E0E0E0"></path>
                <polygon id="Shape" fill="#D4D4D4" points="82.599461 97.9592747 92.1724392 107.499122 82.599461 107.499122"></polygon>
            </g>
        </g>
    </g>
</svg>