<?xml version="1.0" encoding="UTF-8"?>
<svg width="100px" height="54px" viewBox="0 0 100 54" version="1.1" xmlns="http://www.w3.org/2000/svg" xmlns:xlink="http://www.w3.org/1999/xlink">
    <!-- Generator: Sketch 49.2 (51160) - http://www.bohemiancoding.com/sketch -->
    <title>缺省页 (1)@2x</title>
    <desc>Created with Sketch.</desc>
    <defs></defs>
    <g id="Page-1" stroke="none" stroke-width="1" fill="none" fill-rule="evenodd">
        <g id="授权查询-未找到" transform="translate(-138.000000, -428.000000)">
            <g id="缺省页-(1)" transform="translate(138.000000, 429.000000)">
                <path d="M3.32211233,52.7173267 C3.32313416,26.9918633 24.2137304,6.13779569 49.9832335,6.13779569 C75.7527366,6.13779569 96.6433328,26.9918633 96.6443547,52.7173267" id="Shape" fill="#F4F4F4" fill-rule="nonzero"></path>
                <path d="M8.11185642,52.3191953 C8.11185642,29.2315936 26.860096,10.5153944 49.9872216,10.5153944 C73.1143472,10.5153944 91.8625868,29.2315936 91.8625868,52.3191953" id="Shape" fill="#E5E5E5" fill-rule="nonzero"></path>
                <path d="M50,30 C41.7157288,30 35,23.2842712 35,15 C35,6.71572875 41.7157288,1.52266988e-15 50,0 C58.2842712,-1.52266988e-15 65,6.71572875 65,15 C64.9864415,23.2786486 58.2786486,29.9864415 50,30" id="Shape" fill="#FFFFFF" fill-rule="nonzero"></path>
                <path d="M72,52 C72,39.8497355 62.1502645,30 50,30 C37.8497355,30 28,39.8497355 28,52" id="Oval-5" stroke="#C8C8C8" stroke-width="2" fill="#FFFFFF"></path>
                <path d="M60.9499595,5 C61.4247832,6.43508698 61.8273054,7.89364942 62.1559715,9.37005408 C63.3979839,14.9812126 57.6964269,24.693709 51.6843668,25.2721321 C45.6723067,25.8505551 40,24.1699402 40,24.1699402 L40.3172532,25.7640193 L47.1708217,29 L54.103141,28.9430686 L59.3479435,26.419869 L63.4542345,20.7130658 L65,13.9928836 C65,13.9928836 62.1447215,5.71278112 60.9499595,5" id="Shape" fill="#F2F2F2" fill-rule="nonzero"></path>
                <circle id="Oval-6" stroke="#C8C8C8" stroke-width="2" cx="50" cy="15" r="15"></circle>
                <path d="M56.8466255,21.9737878 C57.0882634,22.2463611 57.0390327,22.6439101 56.7366658,22.8617382 C56.4342989,23.0795664 55.9932958,23.0351867 55.751658,22.7626133 C54.3550621,21.1882171 52.2419001,20.269579 50.0056839,20.2647117 C47.7694678,20.2598444 45.6514095,21.169273 44.2463962,22.7375713 C44.0028406,23.0089921 43.5613193,23.051036 43.2602309,22.8314791 C42.9591425,22.6119221 42.9125029,22.213906 43.1560585,21.9424852 C44.8279357,20.0761122 47.3485396,18.993941 50.009665,19.0000255 C52.6707903,19.00611 55.1852722,20.0997936 56.8466255,21.9737878" id="Path" fill="#C8C8C8"></path>
                <path d="M13.958455,53 L0.398812986,53 C0.178554656,53 2.69738659e-17,52.8217505 0,52.6018686 C-2.69738659e-17,52.3819867 0.178554656,52.2037372 0.398812986,52.2037372 L13.958455,52.2037372 C14.1787134,52.2037372 14.357268,52.3819867 14.357268,52.6018686 C14.357268,52.8217505 14.1787134,53 13.958455,53" id="Shape" fill="#D7D7D7" fill-rule="nonzero"></path>
                <path d="M31.1074142,53 L17.547772,53 C17.3275137,53 17.1489591,52.8217505 17.1489591,52.6018686 C17.1489591,52.3819867 17.3275137,52.2037372 17.547772,52.2037372 L31.1074142,52.2037372 C31.3276725,52.2037372 31.5062271,52.3819867 31.5062271,52.6018686 C31.5062271,52.8217505 31.3276725,53 31.1074142,53" id="Shape" fill="#D7D7D7" fill-rule="nonzero"></path>
                <path d="M80.4086774,53 L33.8991051,53 C33.6788468,53 33.5002921,52.8217505 33.5002921,52.6018686 C33.5002921,52.3819867 33.6788468,52.2037372 33.8991051,52.2037372 L80.4086774,52.2037372 C80.6289357,52.2037372 80.8074904,52.3819867 80.8074904,52.6018686 C80.8074904,52.8217505 80.6289357,53 80.4086774,53" id="Shape" fill="#D7D7D7" fill-rule="nonzero"></path>
                <path d="M99.5716421,53 L83.220309,53 C83.0000507,53 82.821496,52.8217505 82.821496,52.6018686 C82.821496,52.3819867 83.0000507,52.2037372 83.220309,52.2037372 L99.5716421,52.2037372 C99.7919004,52.2037372 99.9704551,52.3819867 99.9704551,52.6018686 C99.9704551,52.8217505 99.7919004,53 99.5716421,53" id="Shape" fill="#D7D7D7" fill-rule="nonzero"></path>
            </g>
        </g>
    </g>
</svg>