<?xml version="1.0" standalone="no"?><!DOCTYPE svg PUBLIC "-//W3C//DTD SVG 1.1//EN" "http://www.w3.org/Graphics/SVG/1.1/DTD/svg11.dtd"><svg t="1534768884713" class="icon" style="" viewBox="0 0 1024 1024" version="1.1" xmlns="http://www.w3.org/2000/svg" p-id="1805" xmlns:xlink="http://www.w3.org/1999/xlink" width="200" height="200"><defs><style type="text/css"></style></defs><path d="M644.654545 421.236364c0-72.145455-60.509091-132.654545-132.654545-132.654546s-132.654545 60.509091-132.654545 132.654546 60.509091 132.654545 132.654545 132.654545 132.654545-58.181818 132.654545-132.654545z m-218.763636 0c0-46.545455 39.563636-86.109091 86.109091-86.109091s86.109091 39.563636 86.109091 86.109091-39.563636 86.109091-86.109091 86.109091-86.109091-37.236364-86.109091-86.109091z" fill="#1296db" p-id="1806"></path><path d="M763.345455 141.963636c-81.454545-72.145455-183.854545-104.727273-293.236364-93.090909C300.218182 67.490909 160.581818 202.472727 139.636364 372.363636c-11.636364 97.745455 13.963636 195.490909 72.145454 272.290909 0 2.327273 2.327273 2.327273 2.327273 4.654546 6.981818 9.309091 23.272727 11.636364 32.581818 4.654545 9.309091-6.981818 11.636364-20.945455 4.654546-30.254545 0-2.327273-2.327273-2.327273-2.327273-4.654546C197.818182 551.563636 174.545455 465.454545 186.181818 379.345455c18.618182-148.945455 139.636364-269.963636 288.581818-283.927273 95.418182-9.309091 186.181818 18.618182 256 81.454545s109.381818 151.272727 109.381819 244.363637c0 72.145455-23.272727 139.636364-67.49091 197.818181 0 0 0 2.327273-2.327272 2.327273l-228.072728 290.909091c-6.981818 13.963636-18.618182 18.618182-30.254545 18.618182s-23.272727-6.981818-32.581818-16.290909l-109.381818-139.636364c-6.981818-9.309091-23.272727-11.636364-32.581819-4.654545-9.309091 6.981818-11.636364 23.272727-4.654545 32.581818l109.381818 139.636364c18.618182 23.272727 41.890909 34.909091 67.490909 34.90909 25.6 0 51.2-11.636364 67.490909-34.90909l230.4-293.236364c2.327273-2.327273 2.327273-2.327273 2.327273-4.654546 48.872727-65.163636 74.472727-141.963636 74.472727-223.418181 4.654545-107.054545-41.890909-207.127273-121.018181-279.272728z" fill="#1296db" p-id="1807"></path></svg>