<?xml version="1.0" encoding="UTF-8"?>
<svg width="24px" height="24px" viewBox="0 0 24 24" version="1.1" xmlns="http://www.w3.org/2000/svg" xmlns:xlink="http://www.w3.org/1999/xlink">
    <!-- Generator: Sketch 49.2 (51160) - http://www.bohemiancoding.com/sketch -->
    <title>产品溯源防伪@2x</title>
    <desc>Created with Sketch.</desc>
    <defs></defs>
    <g id="Page-1" stroke="none" stroke-width="1" fill="none" fill-rule="evenodd">
        <g id="防伪查询-未找到" transform="translate(-326.000000, -214.000000)" fill="#D7D7D7" fill-rule="nonzero">
            <g id="Group-5" transform="translate(16.000000, 91.000000)">
                <g id="产品溯源防伪" transform="translate(310.000000, 123.000000)">
                    <path d="M16.0883265,23.9995107 L16.0883265,22.579999 L22.579102,22.579999 L22.579102,16.241862 L24,16.241862 L24,23.9995107 L16.0883265,23.9995107 Z M22.579102,1.44243704 L16.0883265,1.44243704 L16.0883265,0.0229253151 L24,0.0229253151 L24,7.78057398 L22.579102,7.78057398 L22.579102,1.44243704 Z M12.7748571,8.78318669 L15.4315102,8.78318669 L15.4315102,11.4372479 L12.7748571,11.4372479 L12.7748571,8.78318669 Z M12.7748571,4.84466557 L15.4315102,4.84466557 L15.4315102,7.49823744 L12.7748571,7.49823744 L12.7748571,4.84466557 Z M19.4204082,4.84466557 L19.4204082,11.5209213 L18,11.5209213 L18,4.84466557 L19.4204082,4.84466557 Z M19.4620408,19.1552618 L12.7288163,19.1552618 L12.7288163,12.428117 L19.4620408,12.428117 L19.4620408,19.1552618 Z M18.0416327,13.8476287 L14.1492245,13.8476287 L14.1492245,17.7357501 L18.0416327,17.7357501 L18.0416327,13.8476287 Z M5.17469388,4.79818036 L11.9079184,4.79818036 L11.9079184,11.5253252 L5.17469388,11.5253252 L5.17469388,4.79818036 Z M6.59559183,10.1058134 L10.4870204,10.1058134 L10.4870204,6.21769206 L6.59559183,6.21769206 L6.59559183,10.1058134 Z M1.42089797,7.78057398 L0,7.78057398 L0,0.0229253151 L7.91167348,0.0229253151 L7.91167348,1.44243704 L1.42089797,1.44243704 L1.42089797,7.78057398 Z M5.24816327,12.5024933 L7.90481632,12.5024933 L7.90481632,15.1560652 L5.24816327,15.1560652 L5.24816327,12.5024933 Z M7.90481632,19.0950757 L5.24816327,19.0950757 L5.24816327,16.4410145 L7.90481632,16.4410145 L7.90481632,19.0950757 Z M1.42089797,22.579999 L7.91167348,22.579999 L7.91167348,23.9995107 L0,23.9995107 L0,16.241862 L1.42089797,16.241862 L1.42089797,22.579999 Z M11.8942041,19.1782597 L10.4733061,19.1782597 L10.4733061,12.502004 L11.8942041,12.502004 L11.8942041,19.1782597 Z" id="Shape"></path>
                </g>
            </g>
        </g>
    </g>
</svg>