<?xml version="1.0" encoding="UTF-8"?>
<svg width="16px" height="16px" viewBox="0 0 16 16" version="1.1" xmlns="http://www.w3.org/2000/svg" xmlns:xlink="http://www.w3.org/1999/xlink">
    <!-- Generator: Sketch 51.3 (57544) - http://www.bohemiancoding.com/sketch -->
    <title>中通快递@2x</title>
    <desc>Created with Sketch.</desc>
    <defs></defs>
    <g id="Page-1" stroke="none" stroke-width="1" fill="none" fill-rule="evenodd">
        <g id="订单列表-详情" transform="translate(-16.000000, -578.000000)">
            <g id="Group-8" transform="translate(7.000000, 470.000000)">
                <g id="中通快递" transform="translate(9.000000, 108.000000)">
                    <rect id="Rectangle" fill="#0F6BAE" x="0" y="0" width="16" height="16" rx="2"></rect>
                    <path d="M14.9915172,6.53232209 C14.9112744,6.56229368 13.7083145,6.55779462 13.5425627,6.54273165 C13.51437,6.50407073 13.4989797,6.44686227 13.4688575,6.40451831 C13.4237309,6.34058334 13.392224,6.3475304 13.3772196,6.27261245 L14.9609409,6.27309764 C14.9849343,6.34618508 15.0149431,6.46715208 14.9915172,6.53232209 Z M13.0537971,5.00039698 C13.4174885,4.99717708 13.7519429,5.03239755 14.076455,5.15779742 C14.1313196,5.17883709 14.1613284,5.18117483 14.178807,5.22889998 C13.8895473,5.23117156 11.9761611,5.25318159 11.9151449,5.21562339 C12.0728837,5.09664128 12.7945689,5.00264649 13.0537971,5.00039698 Z M8.00531507,9.15952225 C7.72640633,9.17275475 6.39812244,9.1312709 6.27506847,9.1746073 L6.22719522,9.26725676 C6.2188191,9.36808833 6.22304121,9.29813256 6.24553641,9.326009 L7.8044018,9.32406824 C7.95744182,9.326009 7.90673115,9.35417214 7.85095848,9.46190665 C7.82789579,9.50614727 7.81718162,9.56688439 7.76599425,9.59182763 C7.71196944,9.61879985 6.46578965,9.60728759 6.21212274,9.60371481 C6.07515397,9.60195047 6.09717249,9.58148424 6.02587336,9.66039396 C6.01309354,9.71367678 6.02249114,9.68090432 6.00378675,9.71603658 L5.99622781,9.76751095 L7.67535516,9.76751095 L7.65660537,9.86201298 C7.62407698,9.8884559 7.63177212,9.89522652 7.61061618,9.93499015 C7.57670312,9.99804296 7.61020759,9.97254835 7.55420792,9.99563905 L5.87476281,9.9953744 L1,9.99076508 L1.30605734,9.39574421 C1.39951118,9.21388572 1.49950248,8.95878541 1.64087495,8.82043976 L4.180563,6.34759656 C4.23647187,6.29332131 4.37782165,6.18069078 4.39234933,6.1140652 L2.44282556,6.11042627 C2.44368814,6.01513031 2.94707223,5.14919631 2.94938757,5.05341514 C2.98507118,5.02375232 2.95828577,5.06856635 2.99179024,5.00149968 L6.69130917,5.00149968 L11.5511357,5 C11.5402399,5.07308743 11.4915949,5.16842751 11.447399,5.22550364 L6.59038721,5.23009091 L6.55942508,5.28114626 L6.52701019,5.33903839 C6.51818008,5.43212894 6.52374146,5.37313411 6.54385322,5.39657766 L11.3454782,5.39560727 C11.3482022,5.48452959 11.3257751,5.43021023 11.3110431,5.52380803 C11.4491014,5.49178542 11.422316,5.39382089 11.6454067,5.39505593 L14.0475585,5.39558522 C14.1550406,5.39558522 14.4330868,5.3691423 14.4998233,5.42114597 C14.543361,5.45499908 14.7001464,5.60355582 14.7007593,5.67300433 C14.3078083,5.69662432 13.1061649,5.67439375 12.6230514,5.67439375 L8.43245155,5.67439375 C8.14612007,5.67439375 6.45425831,5.63692376 6.3416461,5.69583037 L6.31068397,5.76152967 L6.29093541,5.82861839 L14.8182065,5.83088996 C14.8463993,5.88090876 14.9458912,6.05994432 14.9037382,6.09675269 C14.8707558,6.12639347 8.31184911,6.10954409 7.2070191,6.10954409 C6.9891039,6.10954409 6.25005361,6.07489704 6.10979341,6.12908407 C6.05438394,6.20719986 4.84102761,7.37884843 4.74330628,7.4736151 C4.51361005,7.6957224 4.29469607,7.91240439 4.05612434,8.14189985 C3.94392071,8.25045035 3.43588322,8.77090616 3.35697977,8.81152988 C3.33496125,8.8466842 3.33448457,8.83940632 3.32268083,8.89277735 L8.12766537,8.88962361 C8.12877764,8.95750627 8.03489251,9.11126779 8.00531507,9.15952225 Z M10.0247987,7.41735497 C10.0195778,7.3539493 10.079164,7.20020985 10.10545,7.14811795 L11.4887121,7.14622131 C11.4839906,7.20861249 11.4164369,7.37432734 11.3921711,7.4145982 L10.0247987,7.41735497 Z M11.3445703,7.58518702 C11.3469764,7.64665194 11.3286352,7.70326493 11.3179438,7.76184074 C11.3019406,7.85168934 11.2986492,7.85530622 11.200156,7.85557086 C10.9404965,7.85751162 10.0568958,7.86754626 9.91298096,7.84893255 C9.91027972,7.78909965 9.93522648,7.62309809 9.97172726,7.59561863 C10.0374196,7.56150087 11.1924609,7.56796273 11.3445703,7.58518702 Z M10.1838768,6.9757207 C10.1903461,6.8967889 10.2590575,6.76636068 10.2979418,6.71029904 L11.712234,6.70886553 C11.7009297,6.77145519 11.6057734,6.91085946 11.5676155,6.97400048 L10.1838768,6.9757207 Z M11.3972785,6.53882807 C11.0869309,6.53882807 10.7051027,6.55779462 10.4036533,6.53609334 C10.4135957,6.46207964 10.518649,6.33162934 10.5627541,6.27488403 L12.1319251,6.27265656 C12.1071599,6.3520956 12.1093391,6.30734774 12.0029011,6.39942379 C11.7959271,6.5784373 11.9844918,6.53882805 11.3972785,6.53882807 Z M8.28054649,8.62349623 C8.23353583,8.71868192 8.24894879,8.72847396 8.11838128,8.72704045 C7.691154,8.72289428 6.85156764,8.74973417 6.52909855,8.72289426 C6.53238998,8.67241231 6.6126554,8.49520725 6.66059675,8.4651254 C6.72109092,8.4359257 8.15928577,8.44618089 8.348418,8.45383368 C8.34946217,8.52804588 8.31087304,8.56095066 8.28054649,8.62349623 Z M8.44852279,8.2868838 L6.75870399,8.28908922 C6.75918068,8.23170433 6.8442584,8.0733335 6.87515241,8.02399836 C7.23296462,8.00026809 8.15603975,8.01586038 8.57632096,8.01844073 C8.57482278,8.08195666 8.48425179,8.2390704 8.44852279,8.2868838 Z M8.6650306,7.85354187 L6.97836704,7.85389474 C6.98181736,7.78909966 7.07842644,7.62481831 7.10564313,7.58243025 L8.79784538,7.58117316 C8.792738,7.65915661 8.70450503,7.80612545 8.6650306,7.85354187 Z M8.90253547,7.41102544 L7.20849456,7.41735497 C7.20422706,7.33976848 7.29770359,7.1874405 7.33536206,7.15863779 C7.4194183,7.12130013 8.79702821,7.14273675 9.01537467,7.14540529 C9.01528388,7.22502075 8.94284978,7.34975901 8.90253547,7.41102544 Z M9.17265949,6.88487966 C9.12648872,6.97889648 9.14126609,6.98493933 9.01303662,6.98348375 C8.56326874,6.97898471 7.79355143,7.00628773 7.42790791,6.98035206 C7.42647783,6.9177624 7.52499367,6.75537771 7.55230117,6.71210748 L9.24636477,6.70886553 C9.23862425,6.78005632 9.20198725,6.82476007 9.17265949,6.88487966 Z M9.34628798,6.53609334 L7.65404033,6.53785768 C7.65830783,6.4707028 7.74424815,6.32311646 7.78034034,6.27510458 L9.46505174,6.27309764 C9.46080694,6.35441127 9.3857397,6.48256792 9.34628798,6.53609334 Z M10.0045961,8.01674256 C10.2374249,8.02000657 11.1915984,7.99162289 11.2639416,8.03220251 C11.2662116,8.03542241 11.2685496,8.03720881 11.269049,8.04305315 C11.269957,8.0494709 11.2733846,8.05178659 11.2738386,8.05498444 L11.2803534,8.28672941 L9.87312064,8.28893484 C9.82186518,7.97195059 9.92943809,8.01550753 10.0045961,8.01674256 Z M9.87679796,8.45654635 L11.3140621,8.45753879 L11.4639015,8.72485708 C11.086999,8.7429856 10.5070722,8.72344562 10.0886297,8.72615829 C9.83321494,8.72752564 9.87262125,8.72946642 9.87679796,8.45654635 Z M12.9354646,9.80873016 C12.8776944,9.80817881 12.7505091,9.85930032 12.6833867,9.87972245 C12.250303,10.0120914 11.6283367,10.0276396 11.1808842,9.9631533 C10.9691432,9.93326993 10.7330231,9.81536847 10.6854903,9.81808111 C10.6751393,9.7437807 10.6897578,9.76294575 10.7823037,9.76384997 C11.3918079,9.77062059 12.2331421,9.7821108 12.8231929,9.76479829 C12.9735317,9.76027719 12.9297898,9.77040005 12.9354646,9.80873016 Z M13.6359712,9.40361754 L13.4115866,9.55506336 C13.2959554,9.63174563 13.0885728,9.59740732 12.9377346,9.59740732 L10.4031539,9.596459 C10.3370076,9.5860715 10.1684411,9.42639947 10.1529828,9.33335304 L13.6885432,9.33094914 C13.6730395,9.39719979 13.6946948,9.35891379 13.6359712,9.40361754 Z M13.8823742,9.16093372 L12.2418361,9.1613748 C11.5222165,9.1613748 10.7473237,9.18839113 10.0346049,9.15952225 C10.002644,9.11067231 9.93175345,8.97029767 9.94498725,8.89180698 L14.1429872,8.88960156 C14.1411258,8.94833176 13.9688366,9.14986254 13.8823742,9.16093372 Z M14.2472006,8.7265773 L12.7357318,8.72704045 C12.7536871,8.66498008 12.7391367,8.69503988 12.7874866,8.65816535 C13.1245742,8.40074935 12.8939019,8.45248837 13.4509476,8.45248837 C13.7753461,8.45248837 14.1404902,8.43740333 14.4594636,8.45420861 C14.4571483,8.49483235 14.3529576,8.71614571 14.2472006,8.7265773 Z M14.5623377,8.2876998 L13.1566486,8.28869223 C13.1623688,8.22804333 13.2663779,8.07745762 13.3030603,8.01921262 L14.6759487,8.01771294 C14.6778328,8.09942356 14.5971361,8.239313 14.5623377,8.2876998 Z M14.7558056,7.85023376 L13.3763797,7.85389474 L13.4646581,7.58192301 L14.8400661,7.58097469 C14.8399299,7.64583592 14.7806842,7.8078898 14.7558056,7.85023376 Z M14.9422138,7.22896845 C14.9315224,7.28284674 14.9158597,7.37538593 14.8979725,7.41014326 L13.5213387,7.41781812 C13.5096485,7.3425032 13.5438112,7.1833605 13.5753862,7.14037695 L14.8609496,7.13770841 C14.9572409,7.13865673 14.9572409,7.1509409 14.9422138,7.22896845 Z M14.974606,6.97164067 L13.5814697,6.97574274 L13.5738881,6.70943894 L14.9998933,6.70985797 L14.974606,6.97164067 Z" id="Shape" fill="#FFFFFF" fill-rule="nonzero"></path>
                </g>
            </g>
        </g>
    </g>
</svg>