<?xml version="1.0" encoding="UTF-8"?>
<svg width="14px" height="19px" viewBox="0 0 14 19" version="1.1" xmlns="http://www.w3.org/2000/svg" xmlns:xlink="http://www.w3.org/1999/xlink">
    <!-- Generator: Sketch 49.2 (51160) - http://www.bohemiancoding.com/sketch -->
    <title>地址 (1)@2x</title>
    <desc>Created with Sketch.</desc>
    <defs></defs>
    <g id="Page-1" stroke="none" stroke-width="1" fill="none" fill-rule="evenodd">
        <g id="订单列表-详情" transform="translate(-19.000000, -189.000000)" fill="#9B9B9B" fill-rule="nonzero">
            <g id="地址-(1)" transform="translate(19.000000, 189.000000)">
                <path d="M6.99926988,3.56153327 C5.35369492,3.56153327 4.01504302,4.90041977 4.01504302,6.54561155 C4.01504302,8.19046869 5.35369492,9.52790509 6.99926988,9.52790509 C8.64475359,9.52790509 9.98269361,8.19046869 9.98269361,6.54561155 C9.98269361,4.90032681 8.64475359,3.56153327 6.99926988,3.56153327 M6.99926988,8.20660568 C6.08450587,8.20660568 5.34029726,7.46129256 5.34029726,6.54497945 C5.34029726,5.62888943 6.08448761,4.88324168 6.99926988,4.88324168 C7.9134133,4.88324168 8.65753064,5.62887084 8.65753064,6.54497945 C8.65753064,7.46125538 7.9134133,8.20660568 6.99926988,8.20660568 M13.9837549,6.98846771 C13.9837549,3.13576223 10.8505476,0.00154305284 6.99926988,0.00154305284 C3.14866754,0.00154305284 0.016756193,3.13576223 0.016756193,6.98846771 C0.016756193,10.0100812 4.31670926,16.0985959 6.16647979,18.5756047 C6.36118383,18.8369755 6.67281617,18.9923405 6.99930639,18.9923405 C7.32504824,18.9923405 7.63733768,18.8370313 7.83277184,18.5756047 C9.68184876,16.0986145 13.9837549,10.0108806 13.9837549,6.98846771 M7.10937158,17.5180744 L6.99926988,17.6671928 L6.88907692,17.5180744 C3.39723598,12.7923356 1.22643286,8.75728963 1.22643286,6.98846771 C1.22643286,3.80377397 3.81561147,1.21274658 6.99926988,1.21274658 C10.1821799,1.21274658 12.7714681,3.80377397 12.7714681,6.98846771 C12.7721069,8.7579589 10.6026362,12.7923356 7.10937158,17.5180744" id="Shape"></path>
            </g>
        </g>
    </g>
</svg>