<?xml version="1.0" encoding="UTF-8"?>
<svg width="58px" height="39px" viewBox="0 0 58 39" version="1.1" xmlns="http://www.w3.org/2000/svg" xmlns:xlink="http://www.w3.org/1999/xlink">
    <!-- Generator: Sketch 49.2 (51160) - http://www.bohemiancoding.com/sketch -->
    <title>按钮@2x</title>
    <desc>Created with Sketch.</desc>
    <defs>
        <rect id="path-1" x="0" y="0" width="90" height="35" rx="17.5"></rect>
        <filter x="-0.6%" y="-1.4%" width="101.1%" height="105.7%" filterUnits="objectBoundingBox" id="filter-2">
            <feOffset dx="0" dy="1" in="SourceAlpha" result="shadowOffsetOuter1"></feOffset>
            <feColorMatrix values="0 0 0 0 0.843137255   0 0 0 0 0.843137255   0 0 0 0 0.843137255  0 0 0 1 0" type="matrix" in="shadowOffsetOuter1"></feColorMatrix>
        </filter>
        <filter x="-2.2%" y="-5.7%" width="104.4%" height="114.3%" filterUnits="objectBoundingBox" id="filter-3">
            <feGaussianBlur stdDeviation="1.5" in="SourceAlpha" result="shadowBlurInner1"></feGaussianBlur>
            <feOffset dx="0" dy="1" in="shadowBlurInner1" result="shadowOffsetInner1"></feOffset>
            <feComposite in="shadowOffsetInner1" in2="SourceAlpha" operator="arithmetic" k2="-1" k3="1" result="shadowInnerInner1"></feComposite>
            <feColorMatrix values="0 0 0 0 0.419031675   0 0 0 0 0.419031675   0 0 0 0 0.419031675  0 0 0 0.5 0" type="matrix" in="shadowInnerInner1"></feColorMatrix>
        </filter>
        <circle id="path-4" cx="19" cy="18" r="14"></circle>
        <filter x="-30.4%" y="-23.2%" width="160.7%" height="160.7%" filterUnits="objectBoundingBox" id="filter-5">
            <feOffset dx="0" dy="2" in="SourceAlpha" result="shadowOffsetOuter1"></feOffset>
            <feGaussianBlur stdDeviation="2.5" in="shadowOffsetOuter1" result="shadowBlurOuter1"></feGaussianBlur>
            <feColorMatrix values="0 0 0 0 0.843137255   0 0 0 0 0.843137255   0 0 0 0 0.843137255  0 0 0 1 0" type="matrix" in="shadowBlurOuter1"></feColorMatrix>
        </filter>
    </defs>
    <g id="Page-1" stroke="none" stroke-width="1" fill="none" fill-rule="evenodd">
        <g id="防伪查询-未找到" transform="translate(-317.000000, -129.000000)">
            <g id="按钮" transform="translate(317.000000, 129.000000)">
                <g id="Group-9">
                    <g id="Rectangle">
                        <use fill="black" fill-opacity="1" filter="url(#filter-2)" xlink:href="#path-1"></use>
                        <use fill="#FFFFFF" fill-rule="evenodd" xlink:href="#path-1"></use>
                        <use fill="black" fill-opacity="1" filter="url(#filter-3)" xlink:href="#path-1"></use>
                    </g>
                    <g id="Oval-9">
                        <use fill="black" fill-opacity="1" filter="url(#filter-5)" xlink:href="#path-4"></use>
                        <use fill="#FFFFFF" fill-rule="evenodd" xlink:href="#path-4"></use>
                    </g>
                    <text id="授" font-family="PingFang-SC-Medium, PingFang SC" font-size="10" font-weight="400" letter-spacing="-0.625" fill="#9B9B9B">
                        <tspan x="14" y="22">授</tspan>
                    </text>
                    <path d="M26.420894,13.4671503 C27.349896,14.8745078 27.8382536,16.5140933 27.8382536,18.2068394 C27.8382536,20.5151295 26.9373181,22.6863213 25.2982328,24.317513 C23.6619543,25.9487047 21.4839917,26.8496373 19.1685031,26.8496373 C17.6697505,26.8496373 16.1934511,26.4635233 14.8967775,25.7304663 C13.6393971,25.0197927 12.5700624,23.9957513 11.8066528,22.773057 C10.8692308,21.3517098 10.3808732,19.7121243 10.3808732,18.0193782 C10.3808732,15.7110881 11.2818087,13.5398964 12.920894,11.9087046 C14.5571725,10.2775129 16.7351351,9.37658029 19.0506237,9.37658031 C20.1480249,9.37658031 21.214553,9.57803109 22.224948,9.97533678 C22.8143451,10.2075648 23.3784823,10.5041451 23.9033264,10.8566839 C24.2176715,11.0693264 24.6470894,10.9881865 24.860395,10.6720207 C25.0737006,10.3586528 24.9923077,9.93056995 24.6751559,9.71792745 C24.0661123,9.30663211 23.4121621,8.96248703 22.7301455,8.693886 C21.5569646,8.23222797 20.3192308,8 19.047817,8 C17.6922037,8 16.3758836,8.26580312 15.135343,8.7862176 C13.9397089,9.28984455 12.8647609,10.0117098 11.9413721,10.932228 C11.0179834,11.8527461 10.2938669,12.9243523 9.78866942,14.1162694 C9.26382536,15.3529533 8.99999998,16.6623834 9,18.0165803 C9,19.9751295 9.56694386,21.8721243 10.6390852,23.5033161 C11.5259875,24.9190674 12.7609147,26.0997927 14.2147609,26.9223834 C15.7163202,27.7729534 17.431185,28.2206218 19.1685031,28.2206218 C20.5241164,28.2206218 21.8404366,27.9548186 23.0809771,27.4344041 C24.2766112,26.9307772 25.3515593,26.2089119 26.274948,25.2883938 C27.1983368,24.3678756 27.9224532,23.2962694 28.4276507,22.1043523 C28.9524948,20.8676684 29.2163202,19.5582383 29.2163202,18.2040414 C29.2163202,16.2426943 28.6465696,14.3429015 27.5716216,12.7117098 C27.3639293,12.395544 26.9345114,12.3060104 26.6173597,12.5158549 C26.3002079,12.7256995 26.210395,13.1509845 26.420894,13.4671503 Z" id="Shape" fill="#9B9B9B" fill-rule="nonzero"></path>
                </g>
            </g>
        </g>
    </g>
</svg>