<?xml version="1.0" encoding="UTF-8"?>
<svg width="18px" height="18px" viewBox="0 0 18 18" version="1.1" xmlns="http://www.w3.org/2000/svg" xmlns:xlink="http://www.w3.org/1999/xlink">
    <!-- Generator: Sketch 51.3 (57544) - http://www.bohemiancoding.com/sketch -->
    <title>授权 (1)@2x</title>
    <desc>Created with Sketch.</desc>
    <defs></defs>
    <g id="Page-1" stroke="none" stroke-width="1" fill="none" fill-rule="evenodd">
        <g id="我的授权" transform="translate(-76.000000, -1154.000000)" fill="#4A4A4A" fill-rule="nonzero">
            <g id="Group-9" transform="translate(76.000000, 1152.000000)">
                <g id="授权-(1)" transform="translate(0.000000, 2.000000)">
                    <path d="M17.9882148,11.7699723 C17.9882148,9.59803278 16.2183649,7.8364999 14.0362319,7.8364999 C11.8540714,7.8364999 10.0841942,9.59803278 10.0841942,11.7699723 C10.0841942,12.8854009 10.5516475,13.893159 11.3008377,14.6083457 L10.1025934,16.6746315 L11.6906969,16.5608567 L12.3847718,17.9871424 L13.715698,15.6912634 C13.8218764,15.6993843 13.928,15.7034447 14.0362319,15.7034447 C14.144409,15.7034447 14.2505326,15.6993843 14.3567384,15.6912634 L15.6876372,17.9871424 L16.3817121,16.5608567 L17.969843,16.6746315 L16.7715987,14.6083457 C17.5207615,13.8911424 17.9882148,12.8853736 17.9882148,11.7699723 Z M16.0795773,13.8037743 C15.5345848,14.3462414 14.8079008,14.6469338 14.0362593,14.6469338 C13.2645904,14.6469338 12.537879,14.348258 11.9928864,13.8037743 C11.4478391,13.2592361 11.1457318,12.5379723 11.1457318,11.7699451 C11.1457318,11.0019451 11.4457857,10.2786102 11.9928864,9.73614307 C12.5399324,9.19367595 13.2645904,8.89301087 14.0362593,8.89301087 C14.8079008,8.89301087 15.5345848,9.19165936 16.0795773,9.73614307 C16.624652,10.2806813 16.9267594,11.0019451 16.9267594,11.7699451 C16.9267594,12.5379723 16.6266781,13.2592361 16.0795773,13.8037743 Z M4.87682566,1.16101511 L4.87682566,0.00699850117 L0.0327580729,3.16601235 L1.19020663,3.16601235 L4.8789339,3.16813795 L4.87682566,1.16101511 Z" id="Shape"></path>
                    <path d="M5.74079144,4.0962674 L1.41066781,4.08438578 L0.0327580729,4.08438578 L0.0115662071,16.3384032 C0.418948454,16.3384032 7.59584685,16.3252135 7.59584685,16.3252135 L9.36161712,16.3252135 L10.2944428,14.7160434 C10.0392916,14.3930049 9.82696214,14.0415159 9.66167102,13.6615763 C9.40035937,13.0622082 9.26767743,12.4262687 9.26767743,11.767983 C9.26767743,10.5001644 9.76371508,9.30753247 10.6639315,8.41153247 C11.5642028,7.51550522 12.7624471,7.02179094 14.0362319,7.02179094 C14.6587636,7.02179094 15.2610071,7.13962615 15.8223452,7.36515904 L15.8223452,0.35622567 C15.8223452,0.15933404 15.8263427,0.0947481218 15.8210584,0.0351219836 L15.6230759,0.0351219836 L5.79744,0.00699850117 L5.79744,1.38047094 L5.74079144,4.0962674 Z M3.53976641,6.28450331 L7.50754739,6.28450331 C7.88719403,6.28450331 8.19748792,6.5933166 8.19748792,6.97121226 C8.19748792,7.34913519 7.88924749,7.65797573 7.50960085,7.65797573 L3.53976641,7.65797573 C3.16006503,7.65797573 2.8497985,7.34913519 2.8497985,6.97121226 C2.8497985,6.59331658 3.16006503,6.28450331 3.53976641,6.28450331 Z M7.62648472,11.4570713 L3.50912855,11.4570713 C3.14577282,11.4570713 2.84977112,11.148258 2.84977112,10.7703351 C2.84977112,10.3924394 3.14574546,10.0836262 3.50912855,10.0836261 L7.62645733,10.0836261 C7.98981306,10.0836261 8.28581476,10.3924394 8.28581476,10.7703351 C8.28581476,11.148258 7.98984042,11.4570713 7.62648472,11.4570713 Z" id="Shape"></path>
                </g>
            </g>
        </g>
    </g>
</svg>