<?xml version="1.0" standalone="no"?><!DOCTYPE svg PUBLIC "-//W3C//DTD SVG 1.1//EN" "http://www.w3.org/Graphics/SVG/1.1/DTD/svg11.dtd"><svg t="1540434648912" class="icon" style="" viewBox="0 0 1024 1024" version="1.1" xmlns="http://www.w3.org/2000/svg" p-id="3286" xmlns:xlink="http://www.w3.org/1999/xlink" width="200" height="200"><defs><style type="text/css"></style></defs><path d="M431.686325 124.32147l-1.867534 1.868557 0-14.758122-61.677734 0 0 341.883531-180.846858-180.848904-43.617403 43.61024 211.68419 211.68419L143.676795 739.445152l43.617403 43.626613 180.846858-180.854021 0 341.890694 61.677734 0 0-14.788821 1.867534 1.867534 207.160153-207.15913-43.61024-43.624567-0.007163 0.007163-152.641469-152.646586 196.258872-196.268082L431.686325 124.32147zM551.620881 724.020858 429.818791 845.833181 429.818791 602.218768 551.620881 724.020858zM429.818791 453.30418 429.818791 209.68772l121.80823 121.809253L429.818791 453.30418zM696.549691 411.577846l-35.461653 29.588899c24.771173 19.561521 40.912805 51.003628 40.912805 86.60138 0 35.568077-16.141632 67.011206-40.912805 86.587054l35.461653 29.573549c33.534767-26.021653 55.447846-68.305689 55.447846-116.16265C751.996514 479.882512 730.086505 437.629175 696.549691 411.577846zM797.472242 327.400678l-40.176025 33.505092c42.675962 41.019229 69.691245 100.471272 69.691245 166.863379 0 66.378803-27.013237 125.829823-69.691245 166.849052l40.176025 33.491789c48.969295-50.538023 79.524195-121.582079 79.524195-200.338794C876.995413 448.998107 846.441537 377.952005 797.472242 327.400678z" fill="#fff" p-id="3287"></path></svg>