<?xml version="1.0" encoding="UTF-8"?>
<svg width="18px" height="18px" viewBox="0 0 18 18" version="1.1" xmlns="http://www.w3.org/2000/svg" xmlns:xlink="http://www.w3.org/1999/xlink">
    <!-- Generator: Sketch 49.2 (51160) - http://www.bohemiancoding.com/sketch -->
    <title>icon/18/取消@2x</title>
    <desc>Created with Sketch.</desc>
    <defs></defs>
    <g id="icon/18/取消" stroke="none" stroke-width="1" fill="none" fill-rule="evenodd">
        <g id="取消" fill="#9B9B9B" fill-rule="nonzero">
            <path d="M8.96114824,18 C6.76286118,18 4.64318118,17.2035 2.99424,15.759 C1.36065882,14.3271 0.299915294,12.3606 0.00807529412,10.224 C-0.0298729412,9.9441 0.167096471,9.6858 0.448094118,9.6471 C0.729091765,9.6093 0.988404706,9.8055 1.02725647,10.0854 C1.56304941,14.0139 4.97387294,16.9758 8.96024471,16.9758 C13.3748894,16.9758 16.9673224,13.3983 16.9673224,9.0009 C16.9673224,4.6035 13.3757929,1.0251 8.96024471,1.0251 C5.90631529,1.0251 3.07465412,2.7963 1.74556235,5.5368 C1.62177882,5.7915 1.31457882,5.8986 1.05888,5.7753 C0.804084706,5.652 0.696564706,5.346 0.820348235,5.0913 C1.54859294,3.5883 2.68071529,2.3175 4.09383529,1.4166 C5.54580706,0.4896 7.22908235,0 8.96114824,0 C10.1809129,0 11.3636329,0.2385 12.4785882,0.7074 C13.5546918,1.161 14.5205647,1.8099 15.3500047,2.6361 C16.1794447,3.4623 16.8308894,4.4253 17.2862682,5.4972 C17.7570071,6.6069 17.9964424,7.785 17.9964424,9 C17.9964424,10.215 17.7579106,11.3931 17.2862682,12.5037 C16.8308894,13.5756 16.1794447,14.5377 15.3500047,15.3639 C14.5205647,16.1901 13.5546918,16.839 12.4785882,17.2926 C11.3636329,17.7615 10.1809129,18 8.96114824,18 Z" id="Shape"></path>
            <path d="M12.9258353,13.6395 C12.7776565,13.6395 12.6294776,13.581 12.5183435,13.4658 L4.71184941,5.3064 C4.49771294,5.0823 4.50584471,4.7277 4.73082353,4.5144 C4.95580235,4.3011 5.31179294,4.3092 5.52592941,4.5333 L13.3324235,12.6927 C13.54656,12.9168 13.5384282,13.2714 13.3134494,13.4847 C13.2050259,13.5882 13.0658824,13.6395 12.9258353,13.6395 Z" id="Shape"></path>
            <path d="M5.07416471,13.6395 C4.93502118,13.6395 4.79497412,13.5882 4.68655059,13.4847 C4.46157176,13.2714 4.45344,12.9168 4.66757647,12.6927 L12.4740706,4.5333 C12.6882071,4.3092 13.0441976,4.3011 13.2691765,4.5144 C13.4941553,4.7277 13.5022871,5.0823 13.2881506,5.3064 L5.48165647,13.4658 C5.37052235,13.5819 5.22234353,13.6395 5.07416471,13.6395 Z" id="Shape"></path>
        </g>
    </g>
</svg>