<?xml version="1.0" encoding="UTF-8"?>
<svg width="16px" height="16px" viewBox="0 0 16 16" version="1.1" xmlns="http://www.w3.org/2000/svg" xmlns:xlink="http://www.w3.org/1999/xlink">
    <!-- Generator: Sketch 49.2 (51160) - http://www.bohemiancoding.com/sketch -->
    <title>BUTTON/16/编辑@2x</title>
    <desc>Created with Sketch.</desc>
    <defs></defs>
    <g id="BUTTON/16/编辑" stroke="none" stroke-width="1" fill="none" fill-rule="evenodd">
        <g id="编辑" fill="#9B9B9B" fill-rule="nonzero">
            <path d="M13.8126016,6.80486957 L13.8126016,14.1469317 C13.8126016,14.4582857 13.564065,14.7122816 13.2584553,14.7122816 L1.82203252,14.7122816 C1.51596748,14.7122816 1.26744715,14.4582526 1.26744715,14.1469317 L1.26744715,2.49740787 C1.26744715,2.18605383 1.51639024,1.93248861 1.82203252,1.93248861 L9.29138211,1.93248861 L9.29138211,0.654774327 L1.82203252,0.654774327 C0.824487805,0.654774327 0.0126504065,1.48127536 0.0126504065,2.4973913 L0.0126504065,14.1464845 C0.0126504065,15.163942 0.824455285,15.9895818 1.82203252,15.9895818 L13.2584553,15.9895818 C14.2564228,15.9895818 15.0669593,15.1639752 15.0669593,14.1464845 L15.0669593,6.80483644 L13.8126179,6.80483644 L13.8126016,6.80486957 Z" id="Shape"></path>
            <path d="M8.6116748,1.29344928 C8.6116748,1.6464265 8.89256911,1.93250518 9.23904065,1.93250518 C9.5855122,1.93250518 9.8664065,1.64637681 9.8664065,1.29344928 C9.8664065,0.94047205 9.5855122,0.654393375 9.23904065,0.654393375 C8.89252033,0.654393375 8.6116748,0.940521739 8.6116748,1.29344928 Z" id="Shape"></path>
            <path d="M13.8126016,6.85821946 C13.8126016,7.21119669 14.0934959,7.49727536 14.4399675,7.49727536 C14.786439,7.49727536 15.0673333,7.211147 15.0673333,6.85821946 C15.0673333,6.50524224 14.786439,6.21916356 14.4399675,6.21916356 C14.0934472,6.21916356 13.8126016,6.50529193 13.8126016,6.85821946 Z" id="Shape"></path>
            <polygon id="Shape" points="6.22334959 8.83183437 14.8546179 0.00997101449 15.9877236 1.16733747 7.35557724 9.98873706 5.93995122 10.279205 6.22333333 8.83186749"></polygon>
        </g>
    </g>
</svg>