<?xml version="1.0" standalone="no"?><!DOCTYPE svg PUBLIC "-//W3C//DTD SVG 1.1//EN" "http://www.w3.org/Graphics/SVG/1.1/DTD/svg11.dtd"><svg t="1534756569018" class="icon" style="" viewBox="0 0 1024 1024" version="1.1" xmlns="http://www.w3.org/2000/svg" p-id="2493" xmlns:xlink="http://www.w3.org/1999/xlink" width="32" height="32"><defs><style type="text/css"></style></defs><path d="M512 1024C230.4 1024 0 793.6 0 512S230.4 0 512 0s512 230.4 512 512-230.4 512-512 512z m0-981.333333C253.866667 42.666667 42.666667 253.866667 42.666667 512s211.2 469.333333 469.333333 469.333333 469.333333-211.2 469.333333-469.333333S770.133333 42.666667 512 42.666667z" p-id="2494" fill="#707070"></path><path d="M629.333333 663.466667L360.533333 394.666667c-8.533333-8.533333-8.533333-23.466667 0-34.133334 8.533333-8.533333 23.466667-8.533333 34.133334 0l268.8 268.8c8.533333 8.533333 8.533333 23.466667 0 34.133334-10.666667 8.533333-25.6 8.533333-34.133334 0z" p-id="2495" fill="#707070"></path><path d="M663.466667 394.666667L394.666667 663.466667c-8.533333 8.533333-23.466667 8.533333-34.133334 0-8.533333-8.533333-8.533333-23.466667 0-34.133334l268.8-268.8c8.533333-8.533333 23.466667-8.533333 34.133334 0 8.533333 10.666667 8.533333 25.6 0 34.133334z" p-id="2496" fill="#707070"></path></svg>