<?xml version="1.0" standalone="no"?><!DOCTYPE svg PUBLIC "-//W3C//DTD SVG 1.1//EN" "http://www.w3.org/Graphics/SVG/1.1/DTD/svg11.dtd"><svg t="1534570234745" class="icon" style="" viewBox="0 0 1024 1024" version="1.1" xmlns="http://www.w3.org/2000/svg" p-id="5685" xmlns:xlink="http://www.w3.org/1999/xlink" width="32" height="32"><defs><style type="text/css"></style></defs><path d="M744.58 965.797a96.05 96.05 0 0 1-44.763-11.13L512 855.926l-187.817 98.741a96 96 0 0 1-139.29-101.202l35.869-209.137L68.814 496.217A96 96 0 0 1 122.02 332.47l209.986-30.513 93.91-190.28a95.999 95.999 0 0 1 172.17 0l93.91 190.28 209.986 30.513a96 96 0 0 1 53.206 163.746L803.238 644.328l35.87 209.138a96.184 96.184 0 0 1-94.528 112.33zM512 787.772a31.987 31.987 0 0 1 14.89 3.676L729.6 898.018a32 32 0 0 0 46.43-33.733l-38.714-225.72a31.997 31.997 0 0 1 9.204-28.324l163.995-159.854a32 32 0 0 0-17.736-54.581l-226.634-32.934a31.997 31.997 0 0 1-24.094-17.505L540.695 140.002a32 32 0 0 0-57.39 0L381.95 345.367a31.997 31.997 0 0 1-24.094 17.505l-226.634 32.933a32 32 0 0 0-17.735 54.583L277.481 610.24a31.997 31.997 0 0 1 9.204 28.324l-38.713 225.72a32 32 0 0 0 46.43 33.734l202.707-106.57A31.987 31.987 0 0 1 512 787.771z" p-id="5686"></path></svg>