<?xml version="1.0" encoding="UTF-8"?>
<svg width="12px" height="12px" viewBox="0 0 12 12" version="1.1" xmlns="http://www.w3.org/2000/svg" xmlns:xlink="http://www.w3.org/1999/xlink">
    <!-- Generator: Sketch 49.2 (51160) - http://www.bohemiancoding.com/sketch -->
    <title>删除／数字面板编辑态 copy 4@2x</title>
    <desc>Created with Sketch.</desc>
    <defs></defs>
    <g id="Page-1" stroke="none" stroke-width="1" fill="none" fill-rule="evenodd">
        <g id="购物车-copy-2" transform="translate(-327.000000, -319.000000)" fill="#D7D7D7" fill-rule="nonzero">
            <g id="删除／数字面板编辑态-copy-4" transform="translate(327.000000, 319.000000)">
                <path d="M6,4.77079432 L1.49494089,0.26472103 C1.27536445,0.0451445826 0.955324803,-0.0406097813 0.6553778,0.0397607778 C0.355430796,0.120131337 0.121145519,0.354416619 0.0407749662,0.654363624 C-0.0395955866,0.95431063 0.046158784,1.27435027 0.265735236,1.49392671 L4.76978014,6 L0.263706824,10.5050591 C0.0441303687,10.7246356 -0.0416240012,11.0446752 0.0387465569,11.3446222 C0.119117115,11.6445692 0.353402401,11.8788545 0.653349411,11.959225 C0.953296421,12.0395956 1.27333607,11.9538412 1.49291251,11.7342648 L6,7.23021986 L10.5050591,11.7362932 C10.7246356,11.9558696 11.0446752,12.041624 11.3446222,11.9612534 C11.6445692,11.8808829 11.8788545,11.6465976 11.959225,11.3466506 C12.0395956,11.0467036 11.9538412,10.7266639 11.7342648,10.5070875 L7.23021986,6 L11.7362932,1.49494089 C11.9558696,1.27536445 12.041624,0.955324803 11.9612534,0.6553778 C11.8808829,0.355430796 11.6465976,0.121145519 11.3466506,0.0407749662 C11.0467036,-0.0395955866 10.7266639,0.046158784 10.5070875,0.265735236 L6,4.76978014 L6,4.77079432 Z" id="Shape"></path>
            </g>
        </g>
    </g>
</svg>