<?xml version="1.0" encoding="UTF-8"?>
<svg width="18px" height="15px" viewBox="0 0 18 15" version="1.1" xmlns="http://www.w3.org/2000/svg" xmlns:xlink="http://www.w3.org/1999/xlink">
    <!-- Generator: Sketch 49.2 (51160) - http://www.bohemiancoding.com/sketch -->
    <title>派送@2x</title>
    <desc>Created with Sketch.</desc>
    <defs></defs>
    <g id="Page-1" stroke="none" stroke-width="1" fill="none" fill-rule="evenodd">
        <g id="我的物流" transform="translate(-289.000000, -270.000000)" fill="#FBA703" fill-rule="nonzero">
            <g id="派送" transform="translate(289.000000, 270.000000)">
                <path d="M0.549818182,8.65298429 L7.299,8.65298429 C7.59810588,8.63646695 7.83236622,8.3833342 7.83236622,8.07664921 C7.83236622,7.76996423 7.59810588,7.51683148 7.299,7.50031414 L0.549818182,7.50031414 C0.250712306,7.51683148 0.0164519596,7.76996423 0.0164519596,8.07664921 C0.0164519596,8.3833342 0.250712306,8.63646695 0.549818182,8.65298429 Z M1.674,6.34931937 L7.29981818,6.34931937 C7.59892406,6.33280203 7.8331844,6.07966928 7.8331844,5.77298429 C7.8331844,5.4662993 7.59892406,5.21316656 7.29981818,5.19664921 L1.674,5.19664921 C1.37489412,5.21316656 1.14063378,5.4662993 1.14063378,5.77298429 C1.14063378,6.07966928 1.37489412,6.33280203 1.674,6.34931937 Z M2.79981818,4.04649215 L7.299,4.04649215 C7.59810588,4.0299748 7.83236622,3.77684206 7.83236622,3.47015707 C7.83236622,3.16347208 7.59810588,2.91033934 7.299,2.89382199 L2.79981818,2.89382199 C2.50071231,2.91033934 2.26645196,3.16347208 2.26645196,3.47015707 C2.26645196,3.77684206 2.50071231,4.0299748 2.79981818,4.04649215 Z" id="Shape"></path>
                <path d="M17.9124545,5.75120419 L15.7328182,1.4739267 C15.6540817,1.333909 15.5212681,1.23443274 15.3670909,1.2 C15.3063862,1.17690935 15.2420248,1.16554788 15.1772727,1.16649215 L11.2712727,1.16649215 L11.2712727,0.590157068 C11.2708221,0.272047292 11.0190629,0.0142833532 10.7083636,0.0138219895 L5.04981818,0.0138219895 C4.75071231,0.0303393356 4.51645196,0.28347208 4.51645196,0.590157068 C4.51645196,0.896842057 4.75071231,1.1499748 5.04981818,1.16649215 L10.1119091,1.16649215 L10.1119091,6.34931937 C10.1119091,6.66596859 10.3630909,6.92565445 10.6748182,6.92565445 L16.8635455,6.92565445 L16.8635455,9.40942408 C16.7743636,10.5981152 15.8334545,11.5329843 14.6487273,11.5329843 L14.6487273,11.5354974 L14.6135455,11.5329843 L14.3108182,11.5329843 C13.9102204,10.8192625 13.1675482,10.3792318 12.3635455,10.3792318 C11.5595427,10.3792318 10.8168705,10.8192625 10.4162727,11.5329843 L6.435,11.5329843 C6.0344022,10.8192625 5.29173005,10.3792318 4.48772727,10.3792318 C3.6837245,10.3792318 2.94105235,10.8192625 2.54045455,11.5329843 L0.549818182,11.5329843 C0.250712306,11.5495016 0.0164519596,11.8026344 0.0164519596,12.1093194 C0.0164519596,12.4160044 0.250712306,12.6691371 0.549818182,12.6856545 L2.23609091,12.6856545 C2.23609091,13.9589529 3.24245455,14.9893194 4.48609091,14.9893194 C5.72972727,14.9893194 6.73609091,13.9589529 6.73609091,12.6856545 L10.1119091,12.6856545 C10.1119091,13.9589529 11.1182727,14.9893194 12.3619091,14.9893194 C13.6055455,14.9893194 14.6119091,13.9589529 14.6119091,12.6856545 C14.6233636,12.6856545 14.6356364,12.6856545 14.6470909,12.6831414 L14.6470909,12.6856545 C16.5117273,12.6856545 17.9877273,11.139267 17.9877273,9.22931937 L17.9877273,6.2052356 C17.9869091,6.06115183 17.9893636,5.89361257 17.9124545,5.75120419 Z M11.2712727,5.77298429 L11.2712727,2.31664921 L14.8933636,2.31664921 L16.6549091,5.77298429 L11.2712727,5.77298429 Z M4.48690909,13.8366492 C3.86513688,13.8366492 3.36109091,13.3205812 3.36109091,12.6839791 C3.36109091,12.0473769 3.86513688,11.5313089 4.48690909,11.5313089 C5.1086813,11.5313089 5.61272727,12.0473769 5.61272727,12.6839791 C5.61272727,13.3205812 5.1086813,13.8366492 4.48690909,13.8366492 Z M12.3619091,13.8366492 C11.7401369,13.8366492 11.2360909,13.3205812 11.2360909,12.6839791 C11.2360909,12.0473769 11.7401369,11.5313089 12.3619091,11.5313089 C12.9836813,11.5313089 13.4877273,12.0473769 13.4877273,12.6839791 C13.4877273,13.3205812 12.9836813,13.8366492 12.3619091,13.8366492 Z" id="Shape"></path>
            </g>
        </g>
    </g>
</svg>