<?xml version="1.0" encoding="UTF-8"?>
<svg width="24px" height="24px" viewBox="0 0 24 24" version="1.1" xmlns="http://www.w3.org/2000/svg" xmlns:xlink="http://www.w3.org/1999/xlink">
    <!-- Generator: Sketch 49.2 (51160) - http://www.bohemiancoding.com/sketch -->
    <title>icon/24/推出登录@2x</title>
    <desc>Created with Sketch.</desc>
    <defs>
        <polygon id="path-1" points="0.00180722892 0.0113366834 15.6684036 0.0113366834 15.6684036 23.9698794 0.00180722892 23.9698794"></polygon>
    </defs>
    <g id="icon/24/推出登录" stroke="none" stroke-width="1" fill="none" fill-rule="evenodd">
        <g id="退出登录" transform="translate(4.000000, 0.000000)">
            <g id="Group-3">
                <mask id="mask-2" fill="white">
                    <use xlink:href="#path-1"></use>
                </mask>
                <g id="Clip-2"></g>
                <path d="M13.8178916,23.9698794 L1.85063253,23.9698794 C0.863614458,23.9698794 0,23.105397 0,22.1173869 L0,1.86382915 C0,0.875819095 0.863614458,0.0113366834 1.85063253,0.0113366834 L13.6944578,0.0113366834 C14.8048193,0.0113366834 15.6684036,0.875819095 15.6684036,1.86382915 L15.6684036,4.58071357 L14.4346386,4.58071357 L14.4346386,1.86382915 C14.4346386,1.49330653 14.1879217,1.24634171 13.8178916,1.24634171 L1.85063253,1.24634171 C1.48048193,1.24634171 1.23376506,1.49330653 1.23376506,1.86382915 L1.23376506,21.9939497 C1.23376506,22.3643518 1.48048193,22.6113166 1.85063253,22.6113166 L13.6944578,22.6113166 C14.0646084,22.6113166 14.3113554,22.3643518 14.3113554,21.9939497 L14.3113554,18.7830151 L15.5451205,18.7830151 L15.5451205,21.9939497 C15.6684036,23.105397 14.8048193,23.9698794 13.8178916,23.9698794 Z" id="Fill-1" fill="#E35264" mask="url(#mask-2)"></path>
            </g>
            <polygon id="Fill-4" fill="#E35264" points="18.5751506 11.3521508 18.5837349 12.5870352 7.85027108 12.6612362 7.84156627 11.4262312"></polygon>
            <polygon id="Fill-5" fill="#E35264" points="14.9282229 16.9304925 14.0646084 16.0660101 18.1359337 11.990593 14.0646084 7.91520603 14.9282229 7.05072362 19.9864759 11.990593"></polygon>
        </g>
    </g>
</svg>