<?xml version="1.0" encoding="UTF-8"?>
<svg width="18px" height="18px" viewBox="0 0 18 18" version="1.1" xmlns="http://www.w3.org/2000/svg" xmlns:xlink="http://www.w3.org/1999/xlink">
    <!-- Generator: Sketch 49.2 (51160) - http://www.bohemiancoding.com/sketch -->
    <title>异常@2x</title>
    <desc>Created with Sketch.</desc>
    <defs></defs>
    <g id="Page-1" stroke="none" stroke-width="1" fill="none" fill-rule="evenodd">
        <g id="我的物流" transform="translate(-273.000000, -420.000000)" fill="#F23030" fill-rule="nonzero">
            <g id="异常" transform="translate(273.000000, 420.000000)">
                <path d="M9,0.0117574092 C4.0338,0.0117574092 0.00779999414,4.03761492 0.00779999414,9.00406516 C0.00779999414,13.9702139 4.0338,17.9963729 9,17.9963729 C13.9662,17.9963729 17.9922,13.9702139 17.9922,9.00406516 C17.9922,4.03761492 13.9662,0.0117574092 9,0.0117574092 Z M9,16.874294 C4.6746,16.874294 1.1682,13.3506889 1.1682,9.00406516 C1.1682,4.65713995 4.6746,1.13353484 9,1.13353484 C13.3254,1.13353484 16.8318,4.65713995 16.8318,9.00406516 C16.8318,13.3506889 13.3254,16.874294 9,16.874294 Z" id="Shape"></path>
                <path d="M9,10.9217288 C8.61719999,10.9217288 8.3448,10.627492 8.3448,10.2428137 L8.20139999,4.06324003 C8.20139999,3.67826026 8.61719999,3.36382491 9,3.36382493 C9.38280001,3.36382495 9.79860001,3.67826026 9.79860001,4.06324003 L9.6552,10.2428137 C9.6552,10.6274921 9.38280001,10.9217288 9,10.9217288 Z M8.073,13.1818646 C8.073,13.6963446 8.48803204,14.1134132 9,14.1134132 C9.51196796,14.1134132 9.927,13.6963446 9.927,13.1818646 C9.927,12.6673845 9.51196796,12.250316 9,12.250316 C8.48803204,12.250316 8.073,12.6673845 8.073,13.1818646 Z" id="Shape"></path>
            </g>
        </g>
    </g>
</svg>