<?xml version="1.0" encoding="UTF-8"?>
<svg width="24px" height="24px" viewBox="0 0 24 24" version="1.1" xmlns="http://www.w3.org/2000/svg" xmlns:xlink="http://www.w3.org/1999/xlink">
    <!-- Generator: Sketch 49.2 (51160) - http://www.bohemiancoding.com/sketch -->
    <title>icon/24/授权管理@2x</title>
    <desc>Created with Sketch.</desc>
    <defs></defs>
    <g id="icon/24/授权管理" stroke="none" stroke-width="1" fill="none" fill-rule="evenodd">
        <g id="授权" transform="translate(0.000000, 1.000000)" fill="#73A8F5" fill-rule="nonzero">
            <path d="M23.7942094,15.0216216 C23.6685969,14.8945946 23.5429844,14.8324324 23.3532294,14.8324324 L21.525167,14.8324324 L21.525167,2.85945946 C21.525167,1.46486486 20.514922,0.327027027 19.1919822,0.072972973 C19.0663697,0.0108108108 19.0022272,0.0108108108 18.8766147,0.0108108108 L2.47750557,0.0108108108 C1.1545657,0.0108108108 0.0187082405,1.08648649 0.0187082405,2.41621622 L0.0187082405,6.28108108 C0.0187082405,6.66216216 0.269933185,6.91351351 0.649443207,6.91351351 L3.67750557,6.91351351 L3.67750557,19.1378378 C3.67750557,20.7216216 4.9389755,21.9891892 6.51581292,21.9891892 L20.4534521,21.9891892 C22.4071269,21.9891892 23.9839644,20.4054054 23.9839644,18.4405405 L23.9839644,15.4648649 C23.9839644,15.2756757 23.9198218,15.1486486 23.7942094,15.0216216 Z M3.61336303,5.71081081 L1.28017817,5.71081081 L1.28017817,2.41621622 C1.28017817,1.78378378 1.78530067,1.27567568 2.41603563,1.27567568 L2.48017817,1.27567568 C3.11091314,1.27567568 3.61603563,1.78108108 3.61603563,2.41621622 L3.61603563,5.71081081 L3.61336303,5.71081081 Z M8.59510022,15.2756757 L8.59510022,15.3378378 C8.59510022,15.4 8.53095768,15.4648649 8.53095768,15.527027 L8.53095768,18.9486486 C8.53095768,19.9621622 7.71046771,20.7216216 6.76436526,20.7216216 C5.81826281,20.7216216 4.99777283,19.8972973 4.99777283,18.9486486 L4.99777283,2.35405405 C4.99777283,1.91081081 4.87216036,1.52972973 4.68240535,1.21351351 L18.745657,1.21351351 C19.566147,1.27837838 20.2583519,1.97297297 20.2583519,2.85945946 L20.2583519,14.8324324 L9.15902004,14.8945946 C8.91046771,14.8945946 8.65657016,15.0864865 8.59510022,15.2756757 Z M22.7224944,18.4432432 C22.7224944,19.7108108 21.714922,20.7243243 20.4534521,20.7243243 L9.16169265,20.7243243 C9.54120267,20.2162162 9.72828508,19.5837838 9.72828508,18.9513514 L9.72828508,16.1621622 L22.7198218,16.0972973 L22.7198218,18.4432432 L22.7224944,18.4432432 Z M18.5585746,11.7918919 C18.5585746,11.4108108 18.3073497,11.1594595 17.9278396,11.1594595 C7.71046771,11.0972973 7.58485523,11.1594595 7.45924276,11.1594595 C7.14387528,11.2216216 6.89265033,11.5405405 6.95412027,11.9189189 C7.01826281,12.2351351 7.26948775,12.4243243 7.52071269,12.4243243 L17.9278396,12.4243243 C18.3073497,12.4243243 18.5585746,12.172973 18.5585746,11.7918919 Z M7.58485523,7.86486486 L10.2334076,7.86486486 C10.6129176,7.86486486 10.8641425,7.61081081 10.8641425,7.23243243 C10.8641425,6.85135135 10.6129176,6.6 10.2334076,6.6 L7.58485523,6.6 C7.20534521,6.6 6.95412027,6.85405405 6.95412027,7.23243243 C6.95412027,7.61081081 7.26948775,7.86486486 7.58485523,7.86486486 Z M15.5305122,10.2081081 C17.2971047,10.2081081 18.7483296,8.75135135 18.7483296,6.97837838 C18.7483296,5.20540541 17.2971047,3.74864865 15.5305122,3.74864865 C13.7639198,3.74864865 12.3153675,5.20540541 12.3153675,6.97837838 C12.3153675,8.75135135 13.7665924,10.2081081 15.5305122,10.2081081 Z M15.5305122,5.01351351 C16.6022272,5.01351351 17.4868597,5.9 17.4868597,6.97837838 C17.4868597,8.05675676 16.6048998,8.94324324 15.5305122,8.94324324 C14.4587973,8.94324324 13.5768374,8.05675676 13.5768374,6.97837838 C13.5768374,5.9 14.4587973,5.01351351 15.5305122,5.01351351 Z" id="Shape"></path>
        </g>
    </g>
</svg>