<?xml version="1.0" encoding="UTF-8"?>
<svg width="24px" height="24px" viewBox="0 0 24 24" version="1.1" xmlns="http://www.w3.org/2000/svg" xmlns:xlink="http://www.w3.org/1999/xlink">
    <!-- Generator: Sketch 49.2 (51160) - http://www.bohemiancoding.com/sketch -->
    <title>icon/24/地址管理@2x</title>
    <desc>Created with Sketch.</desc>
    <defs></defs>
    <g id="icon/24/地址管理" stroke="none" stroke-width="1" fill="none" fill-rule="evenodd">
        <g id="地址管理" transform="translate(0.000000, 1.000000)" fill="#73A8F5" fill-rule="nonzero">
            <polygon id="Shape" points="3.91556429 20.9785818 0.0125182907 6.67117062 4.20381748 5.03818211 4.68234817 6.23443235 1.57336376 7.44573892 4.79452214 19.2534839 9.35369646 17.4771475 18.153664 19.270546 22.4274354 17.5848863 19.2064368 5.77774051 14.8933739 7.47889935 14.4097553 6.28465491 20.0837698 4.04670341 23.9870022 18.3547398 18.273643 20.6082165 9.47077187 18.8142188"></polygon>
            <path d="M9.70910486,15.5104447 C9.51176822,15.5104447 9.32460742,15.4248736 9.19807541,15.2767848 C9.14333367,15.2127301 7.84231835,13.6860739 6.51961942,11.780951 C5.73653287,10.6530274 5.11066563,9.62810174 4.65946584,8.7345414 C4.05834562,7.54404802 3.76609666,6.59515951 3.76609666,5.83366781 C3.76609666,4.28135321 4.38429204,2.82195554 5.50675075,1.72430094 C6.62923609,0.626620298 8.12164771,0.0221261855 9.7090782,0.0221261855 C11.2965087,0.0221261855 12.7889203,0.626620298 13.9114057,1.72430094 C15.033891,2.82195554 15.6520597,4.28135321 15.6520597,5.83366781 C15.6520597,6.59515951 15.3598374,7.54404802 14.7586906,8.7345414 C14.3074908,9.62810174 13.6816502,10.6530274 12.898537,11.780951 C11.5758381,13.6860739 10.2748227,15.2127301 10.220081,15.2767848 C10.0936023,15.4248736 9.9064415,15.5104447 9.70910486,15.5104447 Z M9.70910486,1.32457836 C7.16655756,1.32457836 5.09803908,3.34733871 5.09803908,5.83366781 C5.09803908,6.85184678 5.99212751,8.70109444 7.61557299,11.0407674 C8.40840916,12.1833306 9.20881065,13.2041145 9.70910483,13.8224927 C10.209399,13.2041145 11.0098005,12.1833306 11.8026367,11.0407674 C13.4260822,8.70112048 14.3201706,6.85184678 14.3201706,5.83366781 C14.3201706,3.34736475 12.2516788,1.32457836 9.70910486,1.32457836 Z" id="Shape"></path>
            <path d="M9.70910486,7.61602151 C8.46059365,7.61602151 7.44484805,6.62274544 7.44484805,5.40185281 C7.44484805,4.18096018 8.46059365,3.18768411 9.70910486,3.18768411 C10.9576161,3.18768411 11.9733617,4.18096018 11.9733617,5.40185281 C11.9733617,6.62274544 10.9576161,7.61602151 9.70910486,7.61602151 Z M9.70910486,4.49013628 C9.195012,4.49013628 8.77676382,4.89913231 8.77676382,5.40185281 C8.77676382,5.90457331 9.195012,6.31356933 9.70910486,6.31356933 C10.2231977,6.31356933 10.6414459,5.90457331 10.6414459,5.40185281 C10.6414459,4.89913231 10.2232243,4.49013628 9.70910486,4.49013628 Z" id="Shape"></path>
        </g>
    </g>
</svg>