<?xml version="1.0" standalone="no"?><!DOCTYPE svg PUBLIC "-//W3C//DTD SVG 1.1//EN" "http://www.w3.org/Graphics/SVG/1.1/DTD/svg11.dtd"><svg t="1535372967095" class="icon" style="" viewBox="0 0 1024 1024" version="1.1" xmlns="http://www.w3.org/2000/svg" p-id="7185" xmlns:xlink="http://www.w3.org/1999/xlink" width="32" height="32"><defs><style type="text/css"></style></defs><path d="M800.375031 960.037237l-578.771507 0c-2.936414 0-5.830272-0.12767-8.702851-0.489402-2.255507-0.234062-4.894024-0.659629-7.511263-1.191588-3.12792-0.702186-5.808993-1.42565-8.362397-2.298063-2.106558-0.638351-4.745075-1.659712-7.341036-2.830022-2.383177-1.063918-4.80891-2.298063-7.14953-3.659879-2.042723-1.149032-4.340786-2.617239-6.553736-4.191838-2.064001-1.42565-4.213116-3.149198-6.234561-4.936581-1.808661-1.553321-3.681157-3.340703-5.532375-5.277034-1.808661-1.893774-3.51093-3.915219-5.170643-6.000499-1.553321-1.95761-3.064084-4.106724-4.532292-6.362231C153.151027 920.650985 151.853046 918.267808 150.576344 915.820796c-1.234145-2.361898-2.255507-4.659962-3.25559-7.02186-1.212867-3.064084-2.08528-5.617488-2.830022-8.234727-0.702186-2.298063-1.404372-5.106807-1.936331-8.021943-0.489402-2.510847-0.91497-5.277034-1.17031-8.149613-0.25534-2.553404-0.425567-5.404705-0.425567-8.277284L140.958524 263.043139c0-2.893858 0.170227-5.745158 0.446846-8.511346 0.234062-2.617239 0.638351-5.383426 1.17031-8.149613 0.489402-2.681074 1.212867-5.532375 2.064001-8.277284 0.595794-2.191672 1.468207-4.702518 2.447012-7.170809 1.212867-2.893858 2.234228-5.170643 3.340703-7.362314C151.853046 220.869421 153.151027 218.528801 154.66179 216.252016c1.319259-2.042723 2.851301-4.234394 4.511013-6.340953C160.768681 207.910897 162.407115 205.974566 164.130662 204.144626c2.106558-2.149115 3.979054-3.979054 5.97922-5.702602 1.680991-1.489485 3.851384-3.191755 6.106891-4.787632 1.893774-1.340537 4.064168-2.744909 6.383509-4.085446 2.404455-1.404372 4.787632-2.59596 7.213365-3.681157 2.46829-1.085197 4.915302-2.042723 7.447427-2.872579C199.942149 182.142798 202.559388 181.419333 205.197905 180.866096c2.681074-0.574516 5.383426-1.021361 8.149613-1.319259 2.723631-0.276619 5.489818-0.425567 8.277284-0.425567l54.132159 0c11.766935 0 21.278364 9.532707 21.278364 21.278364s-9.511429 21.278364-21.278364 21.278364l-54.132159 0c-1.29798 0-2.59596 0.063835-3.872662 0.191505-1.234145 0.12767-2.425734 0.340454-3.617322 0.595794-1.234145 0.276619-2.46829 0.617073-3.617322 1.000083-1.021361 0.340454-2.21295 0.808578-3.404538 1.319259-1.021361 0.446846-2.106558 1.000083-3.149198 1.595877-0.957526 0.574516-2.064001 1.255423-3.085363 1.978888-1.149032 0.808578-2.064001 1.510764-2.915136 2.255507-1.319259 1.106475-2.191672 2.021445-3.064084 2.936414-0.702186 0.766021-1.595877 1.808661-2.447012 2.893858-0.787299 0.957526-1.446929 1.978888-2.149115 3.042806-0.872413 1.319259-1.42565 2.425734-2.042723 3.553487-0.531959 1.085197-1.17031 2.46829-1.766104 3.893941-0.25534 0.702186-0.702186 2.000166-1.106475 3.319425-0.468124 1.574599-0.766021 2.808744-1.000083 4.021611-0.297897 1.489485-0.489402 2.851301-0.617073 4.234394-0.170227 1.617156-0.25534 3.064084-0.25534 4.532292l0 613.07223c0 1.446929 0.085113 2.893858 0.234062 4.29823 0.148949 1.595877 0.361732 2.936414 0.595794 4.255673C184.643006 886.137478 184.919624 887.307788 185.281356 888.478098c0.510681 1.787383 0.978805 3.085363 1.446929 4.340786 0.361732 0.808578 0.978805 2.170393 1.638434 3.468373 0.489402 0.957526 1.063918 2.08528 1.766104 3.12792 0.787299 1.234145 1.489485 2.276785 2.298063 3.276868 0.872413 1.127753 1.702269 2.106558 2.553404 3.021528 0.893691 0.91497 1.766104 1.787383 2.744909 2.638517 1.063918 0.936248 1.978888 1.659712 2.915136 2.319342 1.127753 0.808578 2.106558 1.42565 3.106641 1.978888 1.340537 0.787299 2.383177 1.29798 3.425817 1.766104 1.085197 0.489402 2.106558 0.893691 3.106641 1.212867 1.702269 0.574516 2.893858 0.872413 4.042889 1.127753 0.829856 0.170227 2.106558 0.404289 3.38326 0.531959 1.553321 0.191505 2.723631 0.212784 3.872662 0.212784l578.771507 0c1.191588 0 2.298063-0.021278 3.489652-0.170227 1.638434-0.170227 2.893858-0.404289 4.085446-0.638351 0.91497-0.212784 2.127836-0.489402 3.25559-0.893691 1.404372-0.446846 2.404455-0.829856 3.361982-1.276702 1.340537-0.595794 2.383177-1.127753 3.38326-1.702269 1.234145-0.702186 2.255507-1.361815 3.25559-2.064001 1.04264-0.744743 2.064001-1.574599 3.042806-2.404455 0.680908-0.617073 1.595877-1.468207 2.447012-2.383177 1.234145-1.255423 2.021445-2.234228 2.830022-3.25559 0.574516-0.744743 1.255423-1.659712 1.851218-2.638517 1.063918-1.638434 1.659712-2.681074 2.21295-3.76627 0.574516-1.106475 1.127753-2.276785 1.595877-3.468373 0.638351-1.574599 1.063918-2.808744 1.42565-4.085446 0.340454-1.149032 0.680908-2.447012 0.936248-3.787549 0.319175-1.638434 0.510681-3.042806 0.659629-4.489735 0.148949-1.42565 0.191505-2.872579 0.191505-4.319508L838.37819 263.043139c0-1.468207-0.042557-2.915136-0.191505-4.319508-0.148949-1.446929-0.361732-2.893858-0.638351-4.319508-0.276619-1.468207-0.617073-2.830022-1.000083-4.149281-0.340454-1.063918-0.744743-2.298063-1.255423-3.51093-0.617073-1.617156-1.212867-2.787466-1.787383-3.957776-0.489402-0.978805-1.106475-2.021445-1.766104-3.021528-1.04264-1.680991-1.680991-2.574682-2.361898-3.447095-0.659629-0.808578-1.510764-1.872496-2.46829-2.872579-0.978805-1.021361-1.872496-1.893774-2.808744-2.702352-0.851135-0.744743-1.872496-1.553321-2.915136-2.298063-1.106475-0.787299-2.234228-1.489485-3.425817-2.191672-0.723464-0.404289-1.808661-0.957526-2.957693-1.468207-1.234145-0.553237-2.425734-1.000083-3.6386-1.404372-0.808578-0.25534-2.064001-0.617073-3.340703-0.893691s-2.447012-0.468124-3.6386-0.595794c-1.276702-0.12767-2.532125-0.191505-3.872662-0.191505L746.179037 221.699277c-11.766935 0-21.278364-9.532707-21.278364-21.278364s9.511429-21.278364 21.278364-21.278364l54.132159 0c2.787466 0 5.46854 0.12767 8.234727 0.425567 2.851301 0.297897 5.617488 0.766021 8.277284 1.340537 2.46829 0.531959 5.042972 1.234145 7.532541 2.021445 2.915136 0.978805 5.362148 1.936331 7.745325 3.000249 2.34062 1.04264 4.723797 2.234228 7.02186 3.553487 2.510847 1.489485 4.659962 2.851301 6.702685 4.319508 2.127836 1.489485 4.128003 3.106641 6.106891 4.80891 2.106558 1.808661 4.021611 3.681157 5.830272 5.59621 1.617156 1.723548 3.25559 3.6386 4.872745 5.638767 1.95761 2.489569 3.596044 4.787632 5.042972 7.213365 1.085197 1.595877 2.46829 4.000332 3.76627 6.489901 1.255423 2.46829 2.361898 4.936581 3.340703 7.447427 0.893691 2.149115 1.808661 4.723797 2.574682 7.362314 0.808578 2.808744 1.489485 5.511096 2.000166 8.19217 0.468124 2.574682 0.893691 5.277034 1.17031 8.021943 0.276619 2.787466 0.404289 5.617488 0.404289 8.511346l0 613.07223c0 2.872579-0.12767 5.72388-0.404289 8.490067-0.276619 2.766187-0.680908 5.489818-1.212867 8.170892-0.446846 2.510847-1.149032 5.213199-1.893774 7.830438-0.829856 2.830022-1.744826 5.447261-2.787466 8.000665-0.829856 2.170393-2.000166 4.659962-3.191755 7.043139-1.29798 2.489569-2.681074 4.936581-4.213116 7.255922-1.04264 1.723548-2.659796 4.000332-4.362065 6.170726-1.808661 2.255507-3.51093 4.276951-5.319591 6.149447-1.468207 1.595877-3.38326 3.425817-5.362148 5.170643-2.21295 1.893774-4.234394 3.532208-6.362231 5.021694-2.170393 1.553321-4.404621 2.978971-6.702685 4.276951-2.21295 1.276702-4.617405 2.489569-7.106974 3.596044-2.298063 1.063918-4.957859 2.08528-7.660211 2.936414-2.149115 0.723464-4.766354 1.42565-7.468706 2.021445-2.872579 0.595794-5.574931 1.04264-8.298562 1.319259C806.141468 959.909567 803.311445 960.037237 800.375031 960.037237zM375.552489 285.321586c-14.107555 0-28.406616-7.085695-37.322251-18.533455-8.766686-11.234976-11.681822-25.172305-8.149613-39.194747l1.95761-7.894273c3.76627-15.022525 7.02186-28.087441 8.915635-35.917879 4.489735-18.682404 28.406616-40.428892 52.472446-40.428892l24.257335-0.042557 10.341285 0.042557 0.042557-0.170227c2.532125-10.320007 7.404871-30.002494 9.660377-38.152107 5.213199-18.618569 27.746987-38.684066 55.089685-38.684066l22.491231-0.042557 13.447926 0.042557c27.959771 0.063835 50.621228 20.278281 55.515252 38.981963 2.276785 8.490067 7.404871 27.640595 10.107223 38.045715l9.936996 0.021278 18.278115-0.042557c35.939157 0 54.706674 24.172222 58.643172 40.407614l10.681739 43.982379c3.468373 14.299061 0.553237 28.300224-8.19217 39.407531-8.809243 11.171141-22.746571 18.129166-36.407281 18.129166l-22.214612-0.021278c-62.941401-0.085113-236.700524-0.297897-248.382346 0L375.552489 285.321586zM417.683651 185.909068l-24.1935 0.042557c-2.957693 0.106392-9.894439 5.489818-11.490317 8.873078-1.574599 6.872912-4.872745 20.065497-8.639016 35.194414l-1.978888 7.915551c-0.361732 1.383094-0.148949 1.978888 0.425567 2.681074 1.106475 1.42565 3.021528 2.149115 3.76627 2.149115l0 21.278364 0.042557-21.278364c11.724379-0.319175 186.228244-0.106392 249.552656-0.021278l22.172056 0.021278c0.510681-0.063835 2.21295-0.851135 3.085363-2.042723 0.234062-0.319175 0.638351-0.91497 0.170227-2.936414L639.87233 193.845898l0 0c-0.042557 0-3.319425-7.894273-16.895021-7.894273l-18.682404 0.042557-14.894855-0.042557c-16.426897 0-30.853628-11.341368-35.109301-27.57676-2.106558-8.213449-8.490067-32.236722-11.128584-42.109883-0.829856-1.659712-6.89419-7.319757-14.554401-7.341036L515.308786 108.902668 492.817555 108.945225c-7.319757 0-13.235143 5.830272-14.256504 8.0645-2.021445 7.362314-6.702685 26.427728-9.192253 36.407281l-1.17031 4.702518c-4.149281 16.873743-18.512177 27.8321-36.55623 27.8321L417.683651 185.909068zM533.140055 823.770593c0 12.341451-10.02211 21.767767-22.278447 21.767767-12.384008 0-22.406118-9.426315-22.406118-21.767767l0-92.922617-100.582828 0c-7.617654 0-14.660793-7.043139-14.660793-15.21403 0-8.298562 7.043139-15.341701 14.660793-15.341701l100.582828 0 0-64.111711-100.582828 0c-7.617654 0-14.660793-7.043139-14.660793-15.788546 0-7.724046 7.043139-14.767185 14.660793-14.767185l99.455074 0-132.372704-190.483917c-6.426066-10.575347-4.128003-24.150943 6.489901-31.194082 9.36248-7.043139 23.491314-4.149281 30.619566 5.298313l115.201064 167.013881c0.617073 1.191588 2.361898 2.383177 3.574765 2.383177 1.127753 0 2.830022-1.191588 3.51093-2.383177l115.243621-167.013881c7.043139-9.426315 21.150694-12.341451 31.151525-5.298313 10.000831 7.064417 12.958524 20.640013 5.894107 31.194082l-131.713075 190.483917 98.774167 0c8.31984 0 14.724628 7.043139 14.724628 14.767185 0 8.745408-6.426066 15.788546-14.724628 15.788546l-100.582828 0 0 64.111711 100.582828 0c8.31984 0 14.724628 7.043139 14.724628 15.341701 0 8.170892-6.426066 15.21403-14.724628 15.21403l-100.582828 0L533.140055 823.770593 533.140055 823.770593z" p-id="7186"></path></svg>