<?xml version="1.0" encoding="UTF-8"?>
<svg width="24px" height="24px" viewBox="0 0 24 24" version="1.1" xmlns="http://www.w3.org/2000/svg" xmlns:xlink="http://www.w3.org/1999/xlink">
    <!-- Generator: Sketch 49.2 (51160) - http://www.bohemiancoding.com/sketch -->
    <title>icon/24/团长@2x</title>
    <desc>Created with Sketch.</desc>
    <defs>
        <polygon id="path-1" points="0.00235714286 0.0244087591 2.14551071 0.0244087591 2.14551071 2.15046229 0.00235714286 2.15046229"></polygon>
    </defs>
    <g id="icon/24/团长" stroke="none" stroke-width="1" fill="none" fill-rule="evenodd">
        <g id="团长" transform="translate(1.000000, 4.000000)">
            <g id="Group-3" transform="translate(0.000000, 4.243309)">
                <mask id="mask-2" fill="white">
                    <use xlink:href="#path-1"></use>
                </mask>
                <g id="Clip-2"></g>
                <path d="M0,1.08749392 C0,1.67447202 0.480346429,2.15046229 1.07285357,2.15046229 C1.66520357,2.15046229 2.14551071,1.67447202 2.14551071,1.08749392 C2.14551071,0.500360097 1.66520357,0.0244087591 1.07285357,0.0244087591 C0.480346429,0.0244087591 0,0.500360097 0,1.08749392 Z" id="Fill-1" fill="#FFFFFF" mask="url(#mask-2)"></path>
            </g>
            <path d="M9.65493571,1.07869586 C9.65493571,1.66567397 10.1350857,2.1416253 10.7275929,2.1416253 C11.3201,2.1416253 11.8004464,1.66567397 11.8004464,1.07869586 C11.8004464,0.491562044 11.3201,0.0155717762 10.7275929,0.0155717762 C10.1350857,0.0155717762 9.65493571,0.491562044 9.65493571,1.07869586 Z" id="Fill-4" fill="#FFFFFF"></path>
            <path d="M17.3438571,15.4269197 C17.8159143,14.0228516 19.768375,8.22041849 19.9408786,7.7056545 C20.1133821,7.19104623 19.8460429,6.65958151 19.19445,7.03595134 C18.5427,7.41247689 16.3658786,8.56498297 14.9515929,9.32944039 C14.7951964,9.4136837 14.307975,9.26220925 14.2203679,9.10178102 C13.2610893,7.33718735 12.3188214,5.56819465 11.3435929,3.808 C11.0101357,3.20548905 10.4039571,3.36852555 10.2413143,3.71674939 C9.53597857,5.23059854 8.284375,7.91840389 7.75523571,9.05405353 C7.60147143,9.38526521 7.12945357,9.37915328 6.93899643,9.27637956 C5.5649,8.53306083 4.19005714,7.79083212 2.816,7.04751338 C2.41285,6.82958637 1.87652143,7.19198054 2.06509286,7.75447202 C2.80971429,9.96905109 4.15784286,13.9758637 4.64416071,15.4225207 C4.76032857,15.7626861 5.03929643,15.9611484 5.363875,15.9611484 L16.6278357,15.9611484 C16.9987321,15.9611484 17.2303214,15.7652555 17.3438571,15.4269197 Z" id="Fill-5" fill="#FFFFFF"></path>
            <path d="M19.8460429,5.33080292 C19.8460429,5.91778102 20.32635,6.39377129 20.9188571,6.39377129 C21.5113643,6.39377129 21.9915536,5.91778102 21.9915536,5.33080292 C21.9915536,4.7436691 21.5113643,4.26771776 20.9188571,4.26771776 C20.32635,4.26771776 19.8460429,4.7436691 19.8460429,5.33080292 Z" id="Fill-6" fill="#FFFFFF"></path>
        </g>
    </g>
</svg>