<?xml version="1.0" encoding="UTF-8"?>
<svg width="16px" height="16px" viewBox="0 0 16 16" version="1.1" xmlns="http://www.w3.org/2000/svg" xmlns:xlink="http://www.w3.org/1999/xlink">
    <!-- Generator: Sketch 49.2 (51160) - http://www.bohemiancoding.com/sketch -->
    <title>追踪试卷@2x</title>
    <desc>Created with Sketch.</desc>
    <defs></defs>
    <g id="Page-1" stroke="none" stroke-width="1" fill="none" fill-rule="evenodd">
        <g id="订单列表-详情" transform="translate(-18.000000, -479.000000)" fill="#9B9B9B" fill-rule="nonzero">
            <g id="Group-8" transform="translate(7.000000, 470.000000)">
                <g id="追踪试卷" transform="translate(11.000000, 9.000000)">
                    <path d="M14.3873474,0 L3.70893237,0 C2.82906227,0 2.11579534,0.714921633 2.11579534,1.5968098 L2.11579534,2.04806253 C2.42680168,2.14607932 2.73936296,2.25598204 3.05250498,2.37793971 L3.05250498,1.59679103 C3.05250498,1.2339975 3.34698777,0.938839303 3.70893237,0.938839303 L12.421887,0.938839303 L12.421887,14.3711567 C12.421887,14.7339502 12.127423,15.0291084 11.7654596,15.0291084 L10.6635519,15.0291084 C10.5728596,14.8284181 10.5219401,14.6058149 10.5219401,14.3711754 L10.5219401,13.0786308 L3.05250498,13.0786308 L3.05250498,7.68594275 C2.80189768,7.63935662 2.56024534,7.57682866 2.32889678,7.49826503 C2.25697621,7.47383594 2.18595489,7.44782958 2.11579534,7.42030226 L2.11579534,13.0786308 L0.0735622465,13.0786308 L0.0735622465,14.3711754 C0.0735622465,15.2530636 0.786829176,15.9679665 1.66669927,15.9679665 L11.7654596,15.9679665 L11.7655533,15.9679665 C11.7655533,15.9679665 11.8641326,15.9657695 11.9402871,15.9582023 C12.7378766,15.8709073 13.3586154,15.1938217 13.3586154,14.3711567 L13.3586154,2.8893169 L15.9805032,2.8893169 L15.9805032,1.59677224 C15.9804844,0.714921651 15.2672175,0 14.3873474,0 Z M1.66669927,15.0291084 C1.30473594,15.0291084 1.01027188,14.733969 1.01027188,14.3711754 L1.01027188,14.0174888 L9.58523046,14.0174888 L9.58523046,14.3711754 C9.58523046,14.5986795 9.61526138,14.8191797 9.67157636,15.0291084 L1.66669927,15.0291084 Z M15.0437747,1.95047763 L13.3602265,1.95047763 L13.3602265,1.59679103 C13.3602265,1.26032308 13.6111335,0.979247743 13.9438528,0.943007835 L13.9820518,0.938839303 L14.3873286,0.938839303 C14.7492919,0.938839303 15.0437747,1.2339975 15.0437747,1.59679103 L15.0437747,1.95047763 Z M1.38109649,5.89554042 C2.11708799,6.53685558 3.07341233,6.85601099 4.23052975,6.84771149 C4.29643664,7.07968453 4.41781548,7.36915325 4.64123946,7.66016171 C4.91636983,8.01852383 5.28968609,8.30511963 5.75088444,8.51195007 C6.29533755,8.75612828 6.96544091,8.88833828 7.74259143,8.90493728 C8.0004676,8.91057044 8.21529259,8.70481029 8.22080043,8.44561037 C8.22630828,8.18641044 8.0211314,7.97182503 7.76252461,7.96630455 C6.65771306,7.94272044 5.84597922,7.6526133 5.41509277,7.12734099 C5.11498974,6.76152433 5.0909725,6.40017664 5.08921149,6.35941143 C5.09190921,6.22800886 5.03934107,6.10751582 4.94439619,6.01661558 C4.84877687,5.92505815 4.71893017,5.8845558 4.58700399,5.89409461 C3.16241848,5.99742532 2.1201042,5.56301571 1.48928646,4.60307088 C1.2840159,4.29071281 1.15360719,3.96815873 1.07132662,3.6985938 C1.66639952,3.85806822 2.61346918,4.16839837 3.73364278,4.73965594 C5.50977541,5.6454662 8.07190108,7.40462332 10.1915064,10.6413553 C10.2814493,10.7786914 10.4309856,10.8532555 10.5835007,10.8532555 C10.6716638,10.8532555 10.7608385,10.8283382 10.8400467,10.7762128 C11.0562955,10.633957 11.1165447,10.3429298 10.9746144,10.1261851 C9.98968294,8.62215323 8.83095437,7.2921669 7.53059533,6.17314198 C6.48867445,5.27649497 5.35409427,4.51267761 4.1584406,3.9028893 C2.11141155,2.85893547 0.59971205,2.62808905 0.53635302,2.61877558 C0.396239995,2.59815826 0.254403418,2.64220947 0.150409917,2.73855508 C0.0464351435,2.8349007 -0.00845604182,2.97321327 0.00106093759,3.11481183 C0.00572572477,3.18325459 0.128266082,4.80385505 1.38109649,5.89554042 Z" id="Shape"></path>
                </g>
            </g>
        </g>
    </g>
</svg>