<?xml version="1.0" encoding="UTF-8"?>
<svg width="24px" height="24px" viewBox="0 0 24 24" version="1.1" xmlns="http://www.w3.org/2000/svg" xmlns:xlink="http://www.w3.org/1999/xlink">
    <!-- Generator: Sketch 49.2 (51160) - http://www.bohemiancoding.com/sketch -->
    <title>icon/24/仙女@2x</title>
    <desc>Created with Sketch.</desc>
    <defs>
        <path d="M4.414,3.5117 C0.774,8.0847 -0.008,11.7857 2.226,14.4877 C4.413,17.1327 5.094,17.3267 4.899,18.3657 C4.794,18.9317 4.428,19.9237 3.487,21.0687 C3.403,21.1707 3.51,21.3247 3.631,21.2687 C4.847,20.7047 6.066,19.9527 7.285,19.0137 C7.44,18.8957 7.638,18.8297 7.832,18.8247 C10.154,18.7597 11.037,17.9427 10.481,16.3737 L8.015,16.5827 L6.966,14.0257 L5.684,13.7847 C5.953,11.4857 5.953,9.9777 5.684,9.2617 C5.279,8.1867 5.339,6.0807 6.088,5.4607 C6.088,6.7307 8.422,9.5637 11.77,12.9357 C14.789,15.9767 12.792,17.9887 11.236,18.6577 C11.137,18.7007 11.173,18.8497 11.281,18.8537 C19.92,19.2157 22.939,16.1187 20.339,9.5627 C20.263,9.3697 20.246,9.1497 20.292,8.9467 C21.339,4.3367 19.588,1.4957 15.04,0.4237 C13.84,0.1407 12.715,-0.0003 11.663,-0.0003 C8.636,-0.0003 6.219,1.1707 4.414,3.5117 Z" id="path-1"></path>
    </defs>
    <g id="icon/24/仙女" stroke="none" stroke-width="1" fill="none" fill-rule="evenodd">
        <g id="Page-1" transform="translate(1.000000, 1.000000)">
            <mask id="mask-2" fill="white">
                <use xlink:href="#path-1"></use>
            </mask>
            <g id="Clip-2"></g>
            <polygon id="Fill-1" fill="#FFFFFF" mask="url(#mask-2)" points="-4 26.4977 26.241 26.4977 26.241 -5.0003 -4 -5.0003"></polygon>
        </g>
    </g>
</svg>