<?xml version="1.0" encoding="UTF-8"?>
<svg width="24px" height="24px" viewBox="0 0 24 24" version="1.1" xmlns="http://www.w3.org/2000/svg" xmlns:xlink="http://www.w3.org/1999/xlink">
    <!-- Generator: Sketch 49.2 (51160) - http://www.bohemiancoding.com/sketch -->
    <title>icon/24/女董事@2x</title>
    <desc>Created with Sketch.</desc>
    <defs></defs>
    <g id="icon/24/女董事" stroke="none" stroke-width="1" fill="none" fill-rule="evenodd">
        <g id="女-(4)" fill="#FFFFFF" fill-rule="nonzero">
            <path d="M12.313979,17.4943907 C12.773093,17.2384846 13.2149831,16.7804314 13.5983649,16.1156923 L13.5983649,13.6305955 C14.4089107,13.0360552 15.2421719,12.1767336 15.872791,11.1300743 C15.9380773,11.2351284 16.0250972,11.3145575 16.1328507,11.36 C16.5739559,11.5470769 17.1994779,11.0867692 17.5259456,10.3335385 C17.8549054,9.57784615 17.762697,8.81476923 17.3190997,8.62769231 C17.1677968,8.5635233 16.9947963,8.5755223 16.8196096,8.6493844 C17.30104,5.63903097 15.5377056,1.84615385 11.4900315,1.84615385 C7.44227886,1.84615385 5.67895459,5.63917823 6.16048149,8.6515143 C5.98358389,8.57575807 5.80872483,8.56291139 5.65597912,8.62769231 C5.2123818,8.81476923 5.12017336,9.57784615 5.44913318,10.3335385 C5.77560087,11.0867692 6.40112293,11.5470769 6.84222813,11.36 C6.95100683,11.3141251 7.0386556,11.2336138 7.10414551,11.1270686 C7.73448982,12.174682 8.56810429,13.03462 9.37920607,13.6296075 L9.37920607,16.1156923 C9.70226381,16.7689308 10.1040581,17.2275132 10.5423552,17.4867968 C10.6868401,17.8472276 10.873026,18.1412456 10.7830445,18.1377217 C4.83039931,17.9046016 4.04382634,15.1480595 5.52638889,14.1907692 C6.02979708,13.8658462 6.22418243,13.2430769 5.67342396,12.6941538 C5.12266548,12.1452308 3.58064677,9.63661418 4.77686426,7.96030649 C5.97308176,6.27661418 5.18337177,1.72173976 9.37511724,1.7242013 C9.93584419,0.833124373 14.4821152,0.0203639376 16.3063469,3.19082548 C18.1305785,6.36128701 17.2335421,7.18489243 18.2403585,8.30489243 C19.2471749,9.42243089 18.221247,12.3421538 17.5209614,12.5686154 C16.8206757,12.7926154 17.1022853,13.6812308 17.4437057,14.0627692 C18.8555964,15.6412068 18.1505562,18.0366301 12.076868,18.1493806 C12.0041611,18.1507304 12.1833642,17.8557145 12.313979,17.4943907 Z" id="Combined-Shape"></path>
            <path d="M13.6072055,15.0030769 C14.8293977,16.8195263 17.5683117,17.5556923 19.7688534,18.0430769 C21.9743794,18.5304615 22.09407,22.6197679 22.09407,22.9995629 C22.09407,23.3793578 19.7352295,23.711206 11.466376,23.711206 C3.19752262,23.711206 0.838682076,23.2952681 0.838682076,22.9995629 C0.838682076,22.7038576 1.04804965,18.5206154 3.20871749,18.0430769 C5.37935382,17.5630769 8.10822498,16.7827692 9.37172971,15.0030769 C9.39497485,14.9711882 10.6280481,15.9281562 11.5,15.9281562 C12.3719519,15.9281562 13.5879939,15.0339126 13.6072055,15.0030769 Z M11.5292429,22.681433 C11.9919177,22.688825 12.6438752,22.6272502 12.6485077,22.6248115 L11.8353524,17.8717343 L12.0666174,17.7043848 C12.1344407,17.6551554 12.1765678,17.5715568 12.1765678,17.4830048 L12.1765678,17.2320567 C12.1765678,17.0597538 12.0432376,16.9220486 11.8820397,16.9220486 L11.1343914,16.9220486 C10.9707324,16.9220486 10.8397908,17.0623448 10.8397908,17.2320567 L10.8397908,17.4781276 C10.8397908,17.569042 10.8841619,17.6551554 10.9566177,17.7043848 L11.1857112,17.8593888 L10.3514923,22.5977582 C10.3514923,22.5977582 11.0665681,22.6765558 11.5292429,22.681433 Z" id="Combined-Shape"></path>
            <path d="M13.7977344,4.62523077 C13.8575453,6.99323077 13.9871355,8.416 15.370262,7.85723077 C16.7533885,7.29846154 16.4917159,8.86646154 16.2400118,9.984 C17.4661348,8.47261538 17.3215918,7.03753846 16.9402975,5.58030769 C16.5216214,3.98030769 14.413288,1.54830769 12.437037,1.59261538 C11.3629334,1.48184615 9.73807132,1.61230769 8.00854019,2.82338462 C4.98809102,4.93538462 5.99739953,9.68369231 6.80983058,10.2424615 C6.02232072,5.84615385 7.95122143,6.73969231 9.2820134,4.44061538 C9.72062648,3.42892308 13.7329393,2.13907692 13.7977344,4.62523077 Z" id="Shape"></path>
        </g>
    </g>
</svg>