<?xml version="1.0" encoding="UTF-8"?>
<svg width="24px" height="24px" viewBox="0 0 24 24" version="1.1" xmlns="http://www.w3.org/2000/svg" xmlns:xlink="http://www.w3.org/1999/xlink">
    <!-- Generator: Sketch 49.2 (51160) - http://www.bohemiancoding.com/sketch -->
    <title>icon/24/女神@2x</title>
    <desc>Created with Sketch.</desc>
    <defs>
        <polygon id="path-1" points="0 3.38173369e-05 22.9717213 3.38173369e-05 22.9717213 26.8425469 0 26.8425469"></polygon>
    </defs>
    <g id="icon/24/女神" stroke="none" stroke-width="1" fill="none" fill-rule="evenodd">
        <g id="Page-1" transform="translate(1.000000, -2.000000)">
            <mask id="mask-2" fill="white">
                <use xlink:href="#path-1"></use>
            </mask>
            <g id="Clip-2"></g>
            <path d="M14.3214127,24.6442181 C14.3214127,24.6442181 15.8450026,25.1336902 17.0314191,24.5647603 C18.0477928,24.1857841 17.9469967,22.6698792 17.0979153,22.0143527 C16.880953,21.8469017 16.6351919,21.7140583 16.4051245,21.561816 C15.9922328,21.2888352 15.9983808,20.9789189 16.433438,20.7335621 C16.6390749,20.6174793 16.8612145,20.5251407 17.082707,20.4382338 C17.9892243,20.0825362 18.8282746,19.6258093 19.5809283,19.0165297 C21.1203737,17.7705019 21.2284504,15.997756 19.8184381,14.6267994 C19.5388626,14.3550601 19.2283848,14.1075306 18.907067,13.881883 C17.5939679,12.9598937 17.0107098,11.7520428 17.2585742,10.187408 C17.3444855,9.64532608 17.406128,9.09595022 17.4239251,8.54828147 C17.5373409,5.05555464 14.6064892,2.16310628 10.9668294,2.16000246 C7.80008584,2.15736422 5.16660684,4.27277164 4.57784785,7.26004165 C4.37253454,8.30214867 4.54743106,9.32485683 4.66100864,10.3495825 C4.81147467,11.7065719 4.37771186,12.8090482 3.2639397,13.6677195 C2.85946115,13.9794981 2.43605299,14.2703259 2.07315483,14.6309896 C0.751804275,15.9437495 0.767983417,17.5699952 2.13091437,18.8396121 C2.54251175,19.2229337 3.00847105,19.5421614 3.50112593,19.8284886 C4.1091381,20.1818584 4.79060357,20.3808131 5.41285339,20.700196 C5.9218492,20.9613823 5.93090952,21.2905423 5.44909467,21.5816805 C5.15592861,21.7589085 4.85677627,21.9285322 4.61635421,22.1735786 C3.9996053,22.8017915 3.81030934,23.346822 4.43191199,23.9633955 C4.84140608,24.3695301 5.4521687,24.514944 5.78691516,24.603558 C6.36499591,24.7565763 7.57179814,24.7550244 7.90088189,24.1851633 C7.73197165,24.1060159 7.00649891,23.7453523 7.01313235,23.3950863 C7.02057476,23.0074194 7.36260183,22.8076887 7.69621574,22.66243 C8.15667413,22.4619233 8.63217913,22.2932308 9.09716768,22.1018804 C9.355225,21.9957298 9.59370556,21.8537301 9.8003132,21.668277 C10.3028374,21.2166714 10.2860111,20.6784693 9.74821636,20.2586779 C9.39195165,19.9802654 8.97080858,19.8187116 8.54238489,19.6715906 C7.60140597,19.3481727 6.60412364,19.1977927 5.6841776,18.8095051 C5.35121085,18.6690573 5.04380715,18.495709 4.78752954,18.2455413 C4.35020732,17.8184558 4.35473748,17.2760636 4.8674545,16.9273496 C5.64906887,16.3956655 6.47727916,15.9271441 7.26989534,15.4097376 C9.79367975,13.7625412 12.1509808,11.9398238 13.9169342,9.50674059 C14.7472478,8.36282832 15.3746749,7.12999166 15.6836965,5.7585695 C15.712819,5.62976104 15.6987431,5.42646094 15.8738014,5.41963254 C16.03624,5.41311452 16.0739374,5.60974141 16.1171357,5.73622201 C16.433438,6.66224623 16.3886217,7.58842563 15.9676405,8.46354723 C15.7511635,8.91375609 15.7270566,9.31368308 15.931561,9.74557941 C16.1135763,10.1292114 16.3070789,10.5080324 16.4871527,10.8925955 C16.682435,11.3103695 16.5913464,11.4880631 16.1431842,11.5911098 C15.5916372,11.718056 15.670915,11.7265915 15.6078163,12.2584308 C15.5697954,12.5807623 15.2787326,12.8813671 15.3504062,13.2580155 C15.3520241,13.2663958 15.3369775,13.2845531 15.3269464,13.2870362 C14.7378639,13.4290359 14.8933454,13.836412 14.9367055,14.229821 C14.9744029,14.5718618 14.730745,14.8069761 14.3625078,14.8332033 C14.0426461,14.8558612 13.7244024,14.845153 13.4147336,14.7396232 C13.0884003,14.6281961 12.758993,14.5243734 12.4279677,14.4266031 C12.0529352,14.3156416 11.7139822,14.3418689 11.4776049,14.6941523 C11.2682468,15.0062412 11.3059442,15.4798839 11.5601185,15.7688494 C11.8128367,16.0565733 12.1511426,16.1996594 12.5187327,16.2878078 C13.2461469,16.4620872 13.9844012,16.5455799 14.7357606,16.5297505 C15.3089876,16.5176456 15.8823764,16.5219909 16.4400714,16.6809064 C16.6448994,16.7392582 16.84455,16.8078526 17.0220352,16.9279704 C17.4917157,17.245491 17.5606388,17.7765543 17.176546,18.1840857 C16.787923,18.5965831 16.2765003,18.8194373 15.7414561,18.985026 C14.9302339,19.2358145 14.1076863,19.4529266 13.2943608,19.6985938 C12.845066,19.8343859 12.4166423,20.0257363 12.0619955,20.3375149 C11.7283816,20.6308257 11.6696513,21.1603371 11.947609,21.5031538 C12.2852677,21.9195311 12.7672443,22.0924138 13.2374102,22.2851609 C13.6289454,22.4457835 14.0487942,22.543709 14.4121777,22.7657872 C15.0763315,23.172077 15.0087027,24.2843303 14.3214127,24.6442181" id="Fill-1" fill="#FFFFFF" mask="url(#mask-2)"></path>
        </g>
    </g>
</svg>