<?xml version="1.0" encoding="UTF-8"?>
<svg width="24px" height="24px" viewBox="0 0 24 24" version="1.1" xmlns="http://www.w3.org/2000/svg" xmlns:xlink="http://www.w3.org/1999/xlink">
    <!-- Generator: Sketch 49.2 (51160) - http://www.bohemiancoding.com/sketch -->
    <title>icon/24/天使@2x</title>
    <desc>Created with Sketch.</desc>
    <defs></defs>
    <g id="icon/24/天使" stroke="none" stroke-width="1" fill="none" fill-rule="evenodd">
        <g id="天使" transform="translate(0.000000, 4.000000)">
            <path d="M8.52189686,5.31347352 C8.52189686,3.37253027 10.0886154,1.79917189 12.0218969,1.79917189 C13.9547044,1.79917189 15.5218969,3.37253027 15.5218969,5.31347352 C15.5218969,7.25465469 13.9547044,8.82777516 12.0218969,8.82777516 C10.0888524,8.82777516 8.52189686,7.25465469 8.52189686,5.31347352 Z" id="Shape" fill="#FFFFFF" fill-rule="nonzero"></path>
            <path d="M16.9085241,11.7140821 C16.5201818,10.440427 15.5085148,9.44561022 14.237784,9.10288214 C13.650201,9.66211091 12.864898,10.0074256 12.0002535,10.0074256 C11.135102,10.0074256 10.3495455,9.66236957 9.76246944,9.10288214 C8.12798467,9.54390205 6.91733031,11.0614761 6.91733031,12.8653898 L6.91733031,16.5621938 L6.92518841,16.611081 L7.13862455,16.679368 C7.80377468,16.8914714 8.43749241,17.0526182 9.04332656,17.1791043 L9.86107592,17.3314566 C10.7617156,17.4750144 11.5875765,17.5334722 12.3290262,17.5334722 C15.1351284,17.5334722 16.761755,16.7168741 16.8618824,16.6654002 L17.0616303,16.5621938 L17.0826697,12.8653898 C17.0826697,12.7500263 17.0773465,12.63518 17.0674605,12.5221444 L16.9085241,11.7140821 Z" id="Shape" fill="#FFFFFF" fill-rule="nonzero"></path>
            <path d="M16.6071144,8.49136606 C15.5401987,10.3987351 18.8748523,11.5533828 18.0017941,14.6456125 C17.4560191,16.5786586 18.8970962,15.6740895 22.3250254,11.9319051 L22.3250866,11.9319611 C22.5116426,11.7283026 22.4977783,11.4119713 22.2941198,11.2254153 C22.2083668,11.1468635 22.0979181,11.1006538 21.9817762,11.0947364 L20.6449613,11.0266267 C22.8309783,9.73231414 23.9239869,8.65244582 23.9239869,7.78702168 C23.9239869,6.48888548 21.4884426,8.90805664 21.3372398,8.15618995 C21.1860369,7.40432326 24.8647451,4.80923201 23.0346417,5.01116244 C21.2045382,5.21309286 17.67403,6.58399701 16.6071144,8.49136606 Z" id="Path-4" fill="#FFFFFF"></path>
            <path d="M0.212918603,8.49136606 C-0.853997051,10.3987351 2.48065651,11.5533828 1.60759838,14.6456125 C1.06182337,16.5786586 2.50290048,15.6740895 5.93082969,11.9319051 L5.93089087,11.9319611 C6.11744686,11.7283026 6.10358254,11.4119713 5.89992404,11.2254153 C5.814171,11.1468635 5.70372237,11.1006538 5.58758041,11.0947364 L4.25076556,11.0266267 C6.43678259,9.73231414 7.5297911,8.65244582 7.5297911,7.78702168 C7.5297911,6.48888548 5.0942469,8.90805664 4.943044,8.15618995 C4.79184111,7.40432326 8.4705494,4.80923201 6.64044593,5.01116244 C4.81034246,5.21309286 1.27983426,6.58399701 0.212918603,8.49136606 Z" id="Path-4-Copy" fill="#FFFFFF" transform="translate(3.764896, 10.316619) scale(-1, 1) translate(-3.764896, -10.316619) "></path>
            <ellipse id="Oval-4" stroke="#FFFFFF" stroke-width="0.5" cx="12" cy="0.5" rx="3" ry="1"></ellipse>
        </g>
    </g>
</svg>