<?xml version="1.0" encoding="utf-8"?>
<!-- Generator: Adobe Illustrator 22.0.0, SVG Export Plug-In . SVG Version: 6.00 Build 0)  -->
<svg version="1.1" id="图层_1" xmlns="http://www.w3.org/2000/svg" xmlns:xlink="http://www.w3.org/1999/xlink" x="0px" y="0px"
	 viewBox="0 0 20 24" style="enable-background:new 0 0 20 24;" xml:space="preserve">
<style type="text/css">
	.st0{fill:#55B2F5;}
	.st1{fill:#4A4A4A;}
</style>
<title>icon/24/地址管理 2@2x</title>
<desc>Created with Sketch.</desc>
<g id="地址管理" transform="translate(2.666667, 0.000000)">
	<path id="Shape" class="st0" d="M14.1,4.5C10.7,1,4.7,1.4,1.9,5.4C-0.6,8.9,0.1,13.6,3,16.7c1,1.1,2.1,2.1,3.1,3.2
		c0.5,0.5,1,1,1.5,1.5c0.2,0.2,0.5,0.7,0.8,0.6c0.4-0.1,1-0.9,1.2-1.2c0.5-0.5,0.9-1,1.4-1.4c0.7-0.7,1.4-1.5,2.1-2.2
		c1.5-1.7,2.8-3.2,3.2-5.5C16.7,9.1,15.9,6.4,14.1,4.5z"/>
	<path id="Shape_1_" class="st1" d="M14.2,2.9C12.4,1.1,9.9,0,7.3,0C4.7,0,2.5,1.2,0.5,2.9c-3.8,3.4-3.6,10-0.4,13.8
		C2,18.8,4.1,20.8,6,22.8c0.3,0.3,0.6,0.8,1,1c0.5,0.3,0.7,0.1,1-0.3c0.6-0.6,1.2-1.2,1.8-1.8c0.3-0.3,1.1-0.9,1.1-1.4
		c0-1.3-1.3-0.4-1.7,0c-0.4,0.5-0.9,1.2-1.4,1.5c-0.8,0.5-2-1.3-2.4-1.8c-2.3-2.4-5.3-4.7-6.1-8C-2.1,6.9,1.6,1.5,7.1,1.4
		c5.4-0.1,9.3,5.1,8.3,10.3c-0.4,2.2-1.6,3.8-3.1,5.4c-0.3,0.4-1.3,1-1.2,1.6c0.2,1.2,1.3,0.2,1.7-0.2c1.4-1.5,2.8-2.9,3.5-4.9
		c0.9-2.4,0.8-5.1-0.1-7.4C15.8,4.9,15,3.8,14.2,2.9z"/>
	<path id="Shape_2_" class="st1" d="M4.5,4.4c-0.6-1-2.4,1.2-2.7,1.7C1.4,6.7,0.2,8.6,0.7,9.3c0.8,1.2,1.4-1.4,1.6-1.8
		c0.3-0.6,0.6-1.1,1.1-1.6C3.7,5.6,4.9,5,4.5,4.4z M5.1,3.7c0,0.7,1.1,0.7,1.1,0C6.2,3.1,5.1,3,5.1,3.7z M7.3,13.3
		c3.9,0,3.9-6.1,0-6.1C3.4,7.2,3.4,13.3,7.3,13.3z M7.3,8.5c2.3,0,2.2,3.6-0.1,3.5C5,11.9,5.2,8.5,7.3,8.5z"/>
</g>
</svg>
