<?xml version="1.0" encoding="UTF-8"?>
<svg width="120px" height="69px" viewBox="0 0 120 69" version="1.1" xmlns="http://www.w3.org/2000/svg" xmlns:xlink="http://www.w3.org/1999/xlink">
    <!-- Generator: Sketch 49.2 (51160) - http://www.bohemiancoding.com/sketch -->
    <title>Page 1@2x</title>
    <desc>Created with Sketch.</desc>
    <defs></defs>
    <g id="Page-1" stroke="none" stroke-width="1" fill="none" fill-rule="evenodd">
        <g id="启动页" transform="translate(-128.000000, -345.000000)" fill="#4A4A4A">
            <g id="Page-1" transform="translate(128.000000, 345.000000)">
                <path d="M116.503397,50.6743309 C115.592151,50.0756657 113.223076,49.2382765 111.485341,51.0198415 C110.819685,51.7022043 110.294602,52.1763538 109.679387,52.8892271 C108.381564,54.392487 106.99981,55.5114796 105.540741,56.6651058 C103.24402,58.2005253 99.3257445,60.1177382 94.0339841,60.1177382 C86.8457235,60.1177382 82.4251045,56.7108715 81.0363223,55.4512832 C80.8767302,55.2995554 80.7154842,55.1498891 80.5600266,54.9890906 C78.6792376,53.0421919 77.1664201,51.1097237 76.0232279,48.2235968 L73.6909503,42.2365326 C73.2642688,41.1484627 71.6005416,41.1208384 71.0543727,42.1594318 L65.0469285,55.7201053 C64.7777718,56.2956815 64.953902,57.1070955 65.355363,57.5997986 C65.355363,57.5997986 73.0840041,69 90.7821913,69 C92.1949536,69 93.536189,68.9224869 94.8228487,68.7913743 C94.8637804,68.7872512 94.905539,68.7839528 94.9464706,68.7790051 C109.69055,67.2283304 116.230932,57.7515264 117.21784,56.0050073 C118.552874,54.3013678 118.201027,51.791262 116.503397,50.6743309" id="Fill-1"></path>
                <path d="M16.7859977,15.7546975 C15.2676491,12.6944592 13.1037001,11.8285714 10.4641992,11.8285714 L0.71100782,11.8285714 C0.188775917,11.8285714 -0.15465512,12.3664589 0.0699921239,12.8310917 L24.4344236,63.3493042 C25.2275659,64.994244 26.9088775,66.0428571 28.7544026,66.0428571 L29.3654097,66.0428571 C31.3543089,66.0428571 33.1556547,64.8843619 33.960467,63.0892087 L36.0748185,58.3729189 C36.5170276,57.3860373 36.4982723,56.2571732 36.0227203,55.2846957 L16.7859977,15.7546975 Z" id="Fill-3"></path>
                <g id="Group-7" transform="translate(21.639344, 0.000000)">
                    <path d="M97.8031409,15.5333958 C97.7725582,15.4754937 97.7547872,15.4159373 97.7208982,15.3596895 L97.7316435,15.3510042 C97.381182,14.7504767 97.0084034,14.242179 96.6306654,13.8004687 C90.6943105,5.67763157 80.6991321,0.343607592 69.3661661,0.343607592 C59.3304863,0.343607592 50.7053313,4.46458262 44.6569775,11.0625267 C40.5758369,15.4816975 37.3105111,22.2194338 37.3105111,22.2194338 L31.5026863,33.968183 C31.0629563,34.9016476 29.7334344,34.8950302 29.3023832,33.9582569 L16.6155118,7.34148971 C15.0450475,4.25034486 12.498829,3.49679041 10.7328833,3.49679041 L0.780272765,3.49679041 C0.262846122,3.49679041 -0.0776966524,4.03652068 0.145061303,4.50428691 L24.6732332,56.1934897 C25.0274142,56.9544887 26.1469899,58.0571101 27.333517,58.4917894 C27.9335997,58.7114038 28.9899435,58.7833678 29.6210222,58.7056136 C31.5510401,58.4653199 32.8441934,57.0607804 33.4740322,55.6363888 L39.0037195,43.1357395 L44.549938,30.5949722 C44.549938,30.5949722 46.3642375,26.7697115 48.0706709,23.6276955 C50.4755476,19.7619033 54.0247968,15.3774737 58.773798,12.7842869 C59.873123,12.2321491 61.0749415,11.717234 62.3912385,11.2564987 C62.8929605,11.1055397 63.3359967,10.9645067 63.7521697,10.8276096 C70.2212426,8.99624895 75.9356661,10.3213798 75.9356661,10.3213798 C75.9356661,10.3213798 84.0376085,11.4008404 90.1665519,18.2986346 C90.2343298,18.3768024 90.3021077,18.4524887 90.3694724,18.5310701 C90.460394,18.6361211 90.550489,18.7436535 90.6405841,18.8515996 C90.8430913,19.0923069 91.0464251,19.3342549 91.2386004,19.5683449 C92.645819,21.2748024 94.8853837,21.718167 96.6637278,20.3889003 C98.1643477,19.2668404 98.7301281,17.2737674 97.8031409,15.5333958" id="Fill-5"></path>
                </g>
            </g>
        </g>
    </g>
</svg>