<?xml version="1.0" encoding="UTF-8"?>
<svg width="24px" height="24px" viewBox="0 0 24 24" version="1.1" xmlns="http://www.w3.org/2000/svg" xmlns:xlink="http://www.w3.org/1999/xlink">
    <!-- Generator: Sketch 51.3 (57544) - http://www.bohemiancoding.com/sketch -->
    <title>icon/24/代理培训@2x</title>
    <desc>Created with Sketch.</desc>
    <defs></defs>
    <g id="icon/24/代理培训" stroke="none" stroke-width="1" fill="none" fill-rule="evenodd">
        <g id="培训" transform="translate(0.000000, 4.000000)" fill="#73A8F5" fill-rule="nonzero">
            <path d="M9.45818868,3.86211321 C9.0309434,3.51116981 8.39144654,3.40332075 7.8509434,3.58709434 C7.66846989,3.64857978 7.49850105,3.74228929 7.34910692,3.86377358 C7.02830189,4.12928302 6.84387421,4.50805031 6.84387421,4.90271698 L6.84387421,10.3935094 C6.84387421,10.9842013 7.23859119,11.500327 7.84958491,11.708478 C8.02848922,11.7690644 8.21612157,11.7998889 8.40500629,11.7997233 C8.79630189,11.7997233 9.17064151,11.6698616 9.45884277,11.4334843 L12.8035975,8.68762264 C13.1263648,8.42279245 13.3108679,8.0436478 13.3108679,7.64797484 C13.3108679,7.25230189 13.1263899,6.87315723 12.8035975,6.608 L9.45818868,3.86208805 L9.45818868,3.86211321 Z M8.57793711,10.3596226 C8.53383648,10.3952704 8.40228931,10.428805 8.29718239,10.3935094 C8.26394969,10.3823648 8.24427673,10.3691069 8.2354717,10.3691069 C8.23452044,10.3690757 8.23357939,10.369311 8.23275472,10.3697862 L8.22933333,4.93798742 C8.24221384,4.9278239 8.26327044,4.91358491 8.29718239,4.90238994 C8.40228931,4.86608805 8.53383648,4.9 8.57725786,4.93597484 L11.8806289,7.64865409 L8.57791195,10.3595975 L8.57793711,10.3596226 Z" id="Shape"></path>
            <path d="M23.281283,2.88249057 C23.0927799,2.75700629 22.8771321,2.65969811 22.6377107,2.5928805 C21.9283522,2.3972327 21.1362767,2.50779874 20.5727044,2.8838239 L19.4605283,3.62880503 L19.4605283,2.73768553 C19.4605283,2.67630189 19.4523522,2.61562264 19.4361006,2.55630189 C19.0291824,1.05144654 17.6443774,0.000251572327 16.0675975,0.000251572327 L3.50457862,0.000251572327 C1.5765283,0.000251572327 0.00794968553,1.54206289 0.00794968553,3.4372327 L0.00794968553,11.8583648 C0.00794968553,13.7534843 1.57655346,15.2952956 3.50455346,15.2952956 L16.0676226,15.2952956 C17.6444025,15.2952956 19.0292075,14.2444277 19.4361258,12.7396226 C19.4523478,12.6805268 19.4605637,12.6195209 19.4605535,12.558239 L19.4605535,11.6667925 L20.5727547,12.4117987 C20.9511195,12.6650566 21.4339874,12.7986415 21.9256855,12.7986415 C22.1644025,12.7986415 22.4058113,12.7671447 22.6384403,12.702717 C23.4610818,12.4741384 23.9920755,11.8791195 23.9920755,11.1862893 L23.9920755,4.11031447 C23.9920755,3.63353459 23.7343145,3.18696855 23.281283,2.88246541 L23.281283,2.88249057 Z M18.0716226,12.4592201 C17.8010314,13.3154717 16.9892579,13.9064654 16.0676226,13.9064654 L3.50455346,13.9064654 C2.34218868,13.9064654 1.39683019,12.9875472 1.39683019,11.8584151 L1.39683019,3.4372327 C1.39683019,2.30807547 2.34218868,1.38918239 3.50455346,1.38918239 L16.0676226,1.38918239 C16.9892579,1.38918239 17.8010314,1.9801761 18.0716226,2.83672956 L18.0716226,12.4592201 Z M22.2674717,11.3643522 C21.9514214,11.4521509 21.5709937,11.4087547 21.3458113,11.2575094 L19.4605535,9.99481761 L19.4605535,5.30083019 L21.3451572,4.03844025 C21.5703145,3.88722013 21.9500881,3.84344654 22.2661132,3.93127044 C22.3861635,3.96485535 22.4661635,4.00825157 22.5095597,4.03675472 C22.5746667,4.08083019 22.597761,4.11542138 22.6024906,4.11542138 C22.6024906,4.11542138 22.6031447,4.11509434 22.6031447,4.11474214 L22.6065409,11.1656101 C22.5963522,11.1890063 22.5061635,11.298239 22.2674717,11.3643522 Z" id="Shape"></path>
        </g>
    </g>
</svg>