<?xml version="1.0" standalone="no"?><!DOCTYPE svg PUBLIC "-//W3C//DTD SVG 1.1//EN" "http://www.w3.org/Graphics/SVG/1.1/DTD/svg11.dtd"><svg t="1535521665815" class="icon" style="" viewBox="0 0 1458 1024" version="1.1" xmlns="http://www.w3.org/2000/svg" p-id="2917" xmlns:xlink="http://www.w3.org/1999/xlink" width="284.765625" height="200"><defs><style type="text/css"></style></defs><path d="M358.848835 635.703229c0 41.81826 160.923669 74.878768 358.739363 74.878768s358.739363-33.279453 358.739362-74.878768c0-41.489844-160.923669-74.878768-358.739362-74.878769s-358.739363 33.279453-358.739363 74.878769z" fill="#F5F5F5" p-id="2918"></path><path d="M326.883045 719.44922c2.29891 0 4.926235-1.313663 4.926234-4.926235 0-2.29891-1.313663-4.926235-4.926234-4.926235h-22.113321c-2.29891 0-4.926235 1.313663-4.926235 4.926235 0 2.29891 1.313663 4.926235 4.926235 4.926235h22.113321zM748.240325 719.44922c2.29891 0 4.926235-1.313663 4.926235-4.926235 0-2.29891-1.313663-4.926235-4.926235-4.926235H347.682703c-2.29891 0-4.926235 1.313663-4.926235 4.926235 0 2.29891 1.313663 4.926235 4.926235 4.926235h400.557622zM792.357494 719.44922c2.29891 0 4.926235-1.313663 4.926235-4.926235 0-2.29891-1.313663-4.926235-4.926235-4.926235h-22.11332c-2.29891 0-4.926235 1.313663-4.926235 4.926235 0 2.29891 1.313663 4.926235 4.926235 4.926235h22.11332zM1152.082104 719.44922c2.29891 0 4.926235-1.313663 4.926235-4.926235 0-2.29891-1.313663-4.926235-4.926235-4.926235h-22.113321c-2.29891 0-4.926235 1.313663-4.926234 4.926235 0 2.29891 1.313663 4.926235 4.926234 4.926235h22.113321zM1109.278597 719.44922c2.29891 0 4.926235-1.313663 4.926235-4.926235 0-2.29891-1.313663-4.926235-4.926235-4.926235H819.397049c-2.29891 0-4.926235 1.313663-4.926234 4.926235 0 2.29891 1.313663 4.926235 4.926234 4.926235h289.881548zM643.694676 772.214668c2.29891 0 4.926235-1.313663 4.926235-4.926235 0-2.29891-1.313663-4.926235-4.926235-4.926235h-22.11332c-2.29891 0-4.926235 1.313663-4.926235 4.926235 0 2.29891 1.313663 4.926235 4.926235 4.926235H643.694676zM918.688048 772.214668c2.29891 0 4.926235-1.313663 4.926235-4.926235 0-2.29891-1.313663-4.926235-4.926235-4.926235h-9.85247c-2.29891 0-4.926235 1.313663-4.926234 4.926235 0 2.29891 1.313663 4.926235 4.926234 4.926235h9.85247zM887.050674 772.214668c2.29891 0 4.926235-1.313663 4.926234-4.926235 0-2.29891-1.313663-4.926235-4.926234-4.926235H670.734231c-2.29891 0-4.926235 1.313663-4.926234 4.926235 0 2.29891 1.313663 4.926235 4.926234 4.926235h216.316443zM1094.718837 290.757323c-13.136626 0-24.41223 11.166132-24.41223 24.41223s11.166132 24.41223 24.41223 24.41223 24.41223-10.837716 24.41223-24.41223c0-13.465042-11.166132-24.41223-24.41223-24.41223z m-0.328416 37.986744c-7.225144 0-13.465042-6.239897-13.465041-13.465042 0-7.225144 6.239897-13.574514 13.465041-13.574514 7.225144 0 13.465042 6.239897 13.465042 13.574514 0.109472 7.115672-6.239897 13.465042-13.465042 13.465042zM1027.174685 460.219799c-9.85247 0-15.873423 7.225144-15.873424 15.873423 0 8.538807 7.225144 15.873423 15.873424 15.873423 8.210391 0 15.873423-7.225144 15.873423-15.873423-0.109472-9.85247-7.334616-15.873423-15.873423-15.873423z m-1.313663 20.799658c-2.627325 0-4.926235-2.29891-4.926235-4.926235 0-3.612572 2.29891-4.926235 4.926235-4.926235 3.612572 0 4.926235 2.29891 4.926235 4.926235 0 3.612572-2.29891 4.926235-4.926235 4.926235zM420.481505 257.47787c-18.500748 0-33.279453 14.888176-33.279452 33.279453 0 18.500748 14.888176 33.279453 33.279452 33.279453 18.500748 0 33.279453-14.888176 33.279453-33.279453 0-18.391276-14.778704-33.279453-33.279453-33.279453z m1.313663 55.392774c-12.151379 0-22.113321-9.85247-22.113321-22.113321 0-12.151379 9.85247-22.113321 22.113321-22.11332 12.151379 0 22.113321 9.85247 22.11332 22.11332s-9.85247 22.113321-22.11332 22.113321z" fill="#B4B4B4" p-id="2919"></path><path d="M597.169126 327.430404h-6.239898c-1.313663 0-3.612572-1.313663-3.612572-3.612572 0-1.313663 1.313663-3.612572 3.612572-3.612572h6.239898c1.313663 0 3.612572 1.313663 3.612572 3.612572 0.109472 2.29891-0.875775 3.612572-3.612572 3.612572zM588.630319 314.841137c-1.313663 1.313663-3.612572 1.313663-4.926235 0-1.313663-1.313663-1.313663-3.612572 0-4.926234l4.926235-4.926235c1.313663-1.313663 3.612572-1.313663 4.926234 0 1.313663 1.313663 1.313663 3.612572 0 4.926235l-4.926234 4.926234zM573.851614 351.842634c-1.313663 0-3.612572-1.313663-3.612572-3.612572v-7.225144c0-1.313663 1.313663-3.612572 3.612572-3.612572 1.313663 0 3.612572 1.313663 3.612572 3.612572v6.239897c-0.985247 2.189438-2.29891 4.597819-3.612572 4.597819zM573.851614 309.914903c-1.313663 0-3.612572-1.313663-3.612572-3.612572v-6.239898c0-1.313663 1.313663-3.612572 3.612572-3.612572 1.313663 0 3.612572 1.313663 3.612572 3.612572v6.239898c-0.985247 2.627325-2.29891 3.612572-3.612572 3.612572zM559.291854 343.194355c-1.313663 1.313663-3.612572 1.313663-4.926235 0-1.313663-1.313663-1.313663-3.612572 0-4.926234l4.926235-4.926235c1.313663-1.313663 3.612572-1.313663 4.926235 0 1.313663 1.313663 1.313663 3.612572 0 4.926235l-4.926235 4.926234zM559.291854 314.841137l-4.926235-4.926234c-1.313663-1.313663-1.313663-3.612572 0-4.926235 1.313663-1.313663 3.612572-1.313663 4.926235 0l4.926235 4.926235c1.313663 1.313663 1.313663 3.612572 0 4.926234-1.313663 1.313663-3.940988 1.313663-4.926235 0zM560.277101 324.803079c0 1.313663-1.313663 3.612572-3.612572 3.612572h-6.239898c-1.313663 0-3.612572-1.313663-3.612572-3.612572 0-1.313663 1.313663-3.612572 3.612572-3.612572h6.239898c1.313663-0.109472 3.612572 1.204191 3.612572 3.612572zM588.630319 334.655548l4.926234 4.926235c1.313663 1.313663 1.313663 3.612572 0 4.926235-1.313663 1.313663-3.612572 1.313663-4.926234 0l-4.926235-4.926235c-1.313663-1.313663-1.313663-3.612572 0-4.926235 1.313663-2.29891 2.627325-2.29891 4.926235 0z" fill="#DCDCDC" p-id="2920"></path><path d="M408.00171 652.780842c0 31.96579 138.810349 57.691683 309.586488 57.691683s309.586487-25.725893 309.586487-57.691683c0-31.96579-138.810349-57.691683-309.586487-57.691682s-309.586487 26.054308-309.586488 57.691682z" fill="#EBEAEA" p-id="2921"></path><path d="M476.53111 676.207826c0 18.500748 108.158221 33.279453 240.728672 33.279452S957.878982 694.708574 957.878982 676.207826s-108.158221-33.279453-240.728672-33.279453-240.6192 14.778704-240.6192 33.279453z" fill="#DCDBDC" p-id="2922"></path><path d="M836.584135 484.632029H719.887107c-7.225144 0-14.888176-4.926235-18.500748-11.166132-4.926235-8.538807-13.465042-13.465042-25.725893-13.465042h-79.805003c-15.873423 0-28.353218 11.166132-28.353218 25.725893v146.035493c0 9.85247 8.538807 17.187086 19.814411 17.187085h250.581142c11.166132 0 19.814411-7.225144 19.814411-17.187085V501.819115c-1.642078-9.85247-11.275604-17.187086-21.128074-17.187086z m0 0" fill="#C6C8C7" p-id="2923"></path><path d="M837.897798 478.392132H721.20077c-4.926235 0-9.85247-3.612572-13.465042-8.538807-5.911482-10.837716-17.187086-17.187086-29.338465-17.187086h-81.118666c-18.500748 0-34.2647 14.778704-34.264699 31.96579v146.035493c0 13.574514 10.837716 23.426983 24.41223 23.426983h249.267479c14.559761 0 24.41223-10.837716 25.725893-24.740646V501.819115c-0.109472-13.574514-11.05666-23.426983-24.521702-23.426983z m13.465041 152.713277c0 7.225144-6.239897 12.151379-13.465041 12.15138H587.316656c-7.225144 0-13.465042-4.926235-13.465042-12.15138V484.960445c0-9.85247 9.85247-19.814411 22.113321-19.814411h82.103913c8.538807 0 16.201839 3.940988 19.81441 11.166132 4.926235 9.85247 13.465042 14.888176 23.426984 14.888176h116.697028c7.225144 0 13.465042 4.926235 13.465041 12.151379v127.753688z" fill="#B4B3B3" p-id="2924"></path><path d="M719.887107 587.864015h-2.298909c-55.392773 0-98.305752-44.226641-98.305752-98.196279v-27.039556c0-55.392773 44.226641-98.305752 98.305752-98.305751h2.298909c54.079111 0 98.305752 44.226641 98.305752 98.305751v24.412231c-0.109472 55.283301-44.226641 100.823605-98.305752 100.823604z m0 0" fill="#FFFFFF" p-id="2925"></path><path d="M792.357494 592.79025H643.694676c-17.187086 0-30.652127-13.465042-30.652127-30.652127V390.048322c0-17.187086 13.465042-30.652127 30.652127-30.652128h148.662818c17.187086 0 30.652127 13.465042 30.652128 30.652128v171.761385c1.423134 17.515501-13.465042 30.980543-30.652128 30.980543zM643.694676 369.248664c-11.166132 0-19.814411 9.85247-19.814411 19.814411v171.761385c0 11.166132 9.85247 19.814411 19.814411 19.814411h149.648065c11.166132 0 19.814411-9.85247 19.814411-19.814411V389.063075c0-11.166132-9.85247-19.814411-19.814411-19.814411H643.694676z m0 0" fill="#B4B1B1" p-id="2926"></path><path d="M778.892452 420.700449H657.26919c-3.612572 0-4.926235-2.29891-4.926235-4.926235 0-3.612572 2.29891-4.926235 4.926235-4.926235h121.623262c3.612572 0 4.926235 2.29891 4.926235 4.926235 0.985247 2.627325-1.313663 4.926235-4.926235 4.926235z m-44.226641 31.96579h-77.506093c-3.612572 0-4.926235-2.29891-4.926235-4.926235 0-3.612572 2.29891-4.926235 4.926235-4.926234h77.506093c3.612572 0 4.926235 2.29891 4.926235 4.926234 1.094719 2.627325-1.313663 4.926235-4.926235 4.926235z m22.113321 0c-1.313663 0-3.612572-1.313663-3.612572-1.313663-1.313663-1.313663-1.313663-2.29891-1.313663-3.612572 0-1.313663 1.313663-3.612572 1.313663-3.612572 2.29891-2.29891 6.239897-2.29891 7.225144 0 1.313663 1.313663 1.313663 2.29891 1.313663 3.612572 0 1.313663-1.313663 3.612572-1.313663 3.612572s-2.627325 1.313663-3.612572 1.313663z m0 0" fill="#C6C8C7" p-id="2927"></path><path d="M848.735514 510.357922H727.112251c-8.538807 0-15.873423-4.926235-19.814411-11.166132-4.926235-8.538807-14.888176-13.465042-25.725892-13.465042h-84.731238c-15.873423 0-29.338465 11.166132-29.338465 25.725893v146.035492c0 9.85247 9.85247 17.187086 19.814411 17.187086h261.418858c11.166132 0 19.814411-7.225144 19.814411-17.187086V528.530254c0.985247-9.633526-8.538807-18.172333-19.814411-18.172332z m0 0" fill="#C7C8C8" p-id="2928"></path><path d="M848.735514 508.059012H727.112251c-8.538807 0-15.873423-3.612572-19.814411-9.852469-4.926235-7.225144-14.888176-12.151379-25.725892-12.151379h-84.731238c-15.873423 0-29.338465 9.85247-29.338465 22.11332v125.235835c0 8.538807 9.85247 15.873423 19.814411 15.873423h261.418858c11.166132 0 19.814411-7.225144 19.814411-15.873423v-109.471884c0.985247-8.648279-8.538807-15.873423-19.814411-15.873423z" fill="#C7C8C8" p-id="2929"></path><path d="M848.735514 679.820398H587.316656c-13.465042 0-25.725893-9.85247-25.725893-23.426983V510.357922c0-17.187086 15.873423-31.96579 34.2647-31.96579h84.731238c13.465042 0 25.725893 6.239897 30.652127 17.187085 3.612572 4.926235 8.538807 8.538807 14.888176 8.538807h121.623263c13.465042 0 25.725893 9.85247 25.725893 23.426983l1.313663 71.266197c0 3.612572-2.29891 4.926235-4.926235 4.926235-3.612572 0-4.926235-2.29891-4.926235-4.926235l-1.313663-71.266197c0-7.225144-7.225144-12.151379-14.888176-12.151379H728.425914c-9.85247 0-19.814411-4.926235-24.41223-14.888176-3.612572-7.225144-12.151379-11.166132-22.113321-11.166132h-86.0449c-13.465042 0-23.426983 9.85247-23.426983 19.814411v146.035493c0 6.239897 7.225144 12.151379 14.888176 12.151379h261.418858c7.225144 0 14.888176-4.926235 14.888176-12.151379v-14.888176c0-3.612572 2.29891-4.926235 4.926235-4.926235 3.612572 0 4.926235 2.29891 4.926235 4.926235v14.888176c0.985247 13.793457-9.85247 24.631174-24.740646 24.631174z" fill="#B4B3B3" p-id="2930"></path><path d="M869.535172 625.741287c-1.313663 0-3.612572-1.313663-3.612572-1.313662-1.313663-1.313663-1.313663-2.29891-1.313663-3.612573 0-1.313663 1.313663-3.612572 1.313663-3.612572 2.29891-2.29891 6.239897-2.29891 7.225144 0 1.313663 1.313663 1.313663 2.29891 1.313663 3.612572 0 1.313663-1.313663 3.612572-1.313663 3.612573-0.985247 0.328416-2.29891 1.313663-3.612572 1.313662z m0 0" fill="#B4B1B1" p-id="2931"></path><path d="M1056.513149 772.214668c2.29891 0 4.926235-1.313663 4.926235-4.926235 0-2.29891-1.313663-4.926235-4.926235-4.926235H938.502459c-2.29891 0-4.926235 1.313663-4.926235 4.926235 0 2.29891 1.313663 4.926235 4.926235 4.926235h118.01069z m0 0" fill="#B4B4B4" p-id="2932"></path><path d="M657.050246 578.668377h8.867222v-5.25465h5.035707v5.25465h11.494548v4.269404h-11.494548v5.25465c3.940988-0.218944 7.663032-0.437888 11.275604-0.766303-0.218944 1.642078-0.328416 3.174685-0.437887 4.597819-3.5031 0.218944-7.115672 0.328416-10.837717 0.547359v5.692538h-5.035707v-5.364122c-5.473594 0.328416-11.275604 0.766303-17.077613 1.204191l-0.54736-4.816763c6.239897-0.218944 12.151379-0.547359 17.624973-0.766303v-5.583066H651.357708v-4.378876c1.642078-2.408381 3.284157-5.035707 4.926235-7.991447h-7.444088v-4.269404h9.633525c1.094719-2.29891 2.189438-4.707291 3.284157-7.225144l4.926235 1.642078c-0.875775 1.861022-1.861022 3.722044-2.736797 5.583066h19.267051v4.269404h-21.456489c-1.642078 2.846269-3.174685 5.473594-4.707291 8.100919z m2.079966 21.237546h48.605516v30.214239h-5.145179v-3.174684h-38.315159v3.174684h-5.145178V599.905923z m43.460337 4.378875h-38.315159v7.006201h38.315159V604.284798z m-38.424631 18.172333h38.31516v-7.006201h-38.31516v7.006201z m22.551208-57.144324c9.524054-0.109472 19.048108-0.875775 28.353218-2.517853l1.642078 4.707291c-8.976694 0.985247-17.296558 1.642078-25.069061 2.079966v9.086166h26.273252v4.269404h-10.180885v14.997648H702.809493v-14.997648h-11.494548c-0.875775 6.458841-3.174685 11.822963-7.0062 16.201838-1.094719-1.094719-2.517853-2.29891-3.940988-3.612572 4.269403-4.378875 6.458841-10.728245 6.458841-18.829164v-11.385076zM722.186017 587.864015h27.91533c0.985247-4.926235 1.642078-10.399829 1.75155-16.530254h-24.302758v-5.583066h57.801155v5.583066h-27.586915c-0.328416 6.020954-0.985247 11.60402-1.861022 16.530254h34.812059v5.583066h-36.01625c-3.612572 15.982895-13.574514 28.46269-29.776352 37.329913-1.094719-1.642078-2.29891-3.284157-3.831516-5.035707 14.121873-7.115672 23.317511-17.843917 27.586915-32.184734h-26.601668V587.864015z m36.344665 10.618773h5.80201v18.719692c0 3.722044 1.75155 5.583066 5.145178 5.583066h9.742998c3.174685 0 5.035707-1.423134 5.473594-4.159931 0.328416-2.736797 0.656831-6.239897 0.875775-10.509301 1.75155 0.656831 3.831516 1.313663 6.020954 2.079966-0.437888 4.707291-0.875775 8.210391-1.313663 10.618772-0.656831 4.707291-3.940988 7.115672-10.071413 7.115673h-12.260851c-6.239897 0-9.30511-3.284157-9.30511-9.85247v-19.595467z" fill="#FFFFFF" p-id="2933"></path></svg>