<?xml version="1.0" encoding="UTF-8"?>
<svg width="48px" height="48px" viewBox="0 0 48 48" version="1.1" xmlns="http://www.w3.org/2000/svg" xmlns:xlink="http://www.w3.org/1999/xlink" style="background: #F4F4F4;">
    <!-- Generator: Sketch 49.2 (51160) - http://www.bohemiancoding.com/sketch -->
    <title>icon/暂无商品@2x</title>
    <desc>Created with Sketch.</desc>
    <defs></defs>
    <g id="icon/暂无商品" stroke="none" stroke-width="1" fill="none" fill-rule="evenodd">
        <g id="box-箱子灰色-01" transform="translate(12.000000, 11.000000)" fill-rule="nonzero">
            <path d="M11.5929833,25.8885954 L2.63115621,20.97003 L2.63115621,10.2176642 L11.5929833,15.096723 L11.5929833,25.8885954 Z M12.3595623,25.9939462 L21.3213894,21.0753808 L21.3213894,10.4612879 L12.3595623,15.2020738 L12.3595623,25.9939462 Z" id="Shape" fill="#EDEDED"></path>
            <path d="M23.9914227,20.2391588 C23.9914227,20.4268149 23.9167137,20.5585034 23.770544,20.6342243 L12.2263854,26.9322267 L12.1711657,26.9322267 C12.1354353,26.9684411 12.0802157,26.9881944 12.0055067,26.9881943 C11.9307977,26.9881943 11.8755781,26.9684411 11.8365995,26.9322267 L11.7813799,26.9322267 L0.240469485,20.6309321 C0.0942997938,20.5585035 0.0195908041,20.426815 0.0195908041,20.2358666 L0.0195908041,6.68512025 C0.0195908041,6.6489059 0.0390800825,6.60939938 0.0748104742,6.57318502 L0.0748104742,6.52050965 L0.185249814,6.40857443 L0.240469485,6.35260681 L11.7813799,0.0480200015 C11.9307978,0.0118056455 12.0769675,0.0118056455 12.2263854,0.0480200015 L23.7672958,6.34931461 L23.8225155,6.40528222 L23.9329548,6.51721745 L23.9329548,6.57318502 L23.9881745,6.68512025 L23.9881745,20.2391588 L23.9914227,20.2391588 Z M0.906353691,19.9593208 L11.5605012,25.8095823 L11.5605012,13.3222205 L0.906353691,7.47195902 L0.906353691,19.9593208 Z M17.0564821,9.77650774 L6.4543061,3.98550607 L1.40657889,6.74108787 L12.008755,12.5353817 L17.0564821,9.77650774 Z M7.39953687,3.47850538 L17.9984647,9.27279925 L22.6044346,6.74108787 L12.0055067,0.946793995 L7.39953687,3.47850538 Z M23.1046598,19.9593208 L23.1046598,7.47195902 L12.4505123,13.3222205 L12.4505123,25.8095823 L23.1046598,19.9593208 Z" id="Shape" fill="#D7D7D7"></path>
        </g>
    </g>
</svg>