<?xml version="1.0" encoding="UTF-8"?>
<svg width="24px" height="24px" viewBox="0 0 24 24" version="1.1" xmlns="http://www.w3.org/2000/svg" xmlns:xlink="http://www.w3.org/1999/xlink">
    <!-- Generator: Sketch 49.2 (51160) - http://www.bohemiancoding.com/sketch -->
    <title>icon/24/我的钱包@2x</title>
    <desc>Created with Sketch.</desc>
    <defs></defs>
    <g id="icon/24/我的钱包" stroke="none" stroke-width="1" fill="none" fill-rule="evenodd">
        <g id="钱包" fill="#73A8F5">
            <path d="M22.3614545,10.86865 L14.0932028,10.86865 C13.197986,10.86865 12.4654825,11.8128841 12.4654825,12.7105573 L12.4654825,15.2828268 C12.4654825,16.1805 13.197986,16.914789 14.0932028,16.914789 L22.3614545,16.914789 C23.2566713,16.914789 23.9890629,16.1805 23.9890629,15.2828268 L23.9890629,12.7105573 C23.9890629,11.8128841 23.2566713,10.86865 22.3614545,10.86865 Z M22.6821538,14.8987829 C22.6821538,15.246111 22.3989371,15.5301049 22.0526713,15.5301049 L14.4367273,15.5301049 C14.0904615,15.5301049 13.807049,15.246111 13.807049,14.8987829 L13.807049,13.2183805 C13.807049,12.8030341 14.145986,12.2534463 14.5600839,12.2534463 L22.0525594,12.2534463 C22.3988252,12.2534463 22.6821538,12.7472451 22.6821538,13.0945732 L22.6821538,14.8987829 Z" id="Fill-1"></path>
            <path d="M22.047972,17.995789 C21.8659301,17.995789 21.6912168,18.0682951 21.5624895,18.1973756 C21.4337902,18.3264561 21.3614545,18.5016488 21.3614545,18.6841622 C21.3614545,18.691511 21.3623217,18.6987476 21.3624336,18.7059841 L21.3599161,18.7059841 L21.3599161,20.6225012 C21.3599161,21.2122829 20.8787133,21.6948061 20.2905455,21.6948061 L2.44383217,21.6948061 C1.85577622,21.6948061 1.37446154,21.2122829 1.37446154,20.6225012 L1.37446154,4.2940439 C1.37446154,3.70437439 1.85577622,3.4315439 2.44383217,3.4315439 L5.20223776,3.4315439 L5.20223776,2.1262939 L1.68159441,2.1262939 C0.756783217,2.1262939 0,2.88492927 0,3.81241829 L0,21.3139598 C0,22.2412244 0.756671329,22.999972 1.68159441,22.999972 L21.0530909,22.999972 C21.9779301,22.999972 22.7344895,22.2412244 22.7344895,21.3138476 L22.7344895,18.705872 L22.7333986,18.705872 C22.7336224,18.6986354 22.7344895,18.6913988 22.7344895,18.684078 C22.7344895,18.3038768 22.4271329,17.995789 22.047972,17.995789 Z" id="Fill-2"></path>
            <path d="M20.8437483,5.0138878 L4.57462937,5.0138878 C4.57462937,5.0138878 3.68553846,4.90029024 3.68553846,5.7131439 C3.68553846,6.42115122 4.62696503,6.31916585 4.62696503,6.31916585 L20.0813986,6.31916585 C20.6694825,6.31916585 21.1507972,6.80191341 21.1507972,7.39147073 L21.1507972,9.20302927 L21.1523077,9.20302927 C21.1588811,9.57863049 21.4642797,9.8795939 21.8388252,9.8795939 C22.2133986,9.8795939 22.5189091,9.57863049 22.5253427,9.20302927 L22.5253427,6.7000122 C22.5251189,5.77252317 21.7685874,5.0138878 20.8437483,5.0138878 Z" id="Fill-3"></path>
            <g id="Group-7" transform="translate(5.034965, 0.000000)">
                <path d="M11.5655664,2.15524024 L8.5813986,2.15524024 C8.5813986,2.15524024 7.69230769,2.04150244 7.69230769,2.8543561 C7.69230769,3.56236341 8.63373427,3.46037805 8.63373427,3.46037805 L10.8031049,3.46037805 C11.3912727,3.46037805 11.8724755,3.94312561 11.8724755,4.53268293 L11.8724755,5.50519024 L11.8741259,5.50519024 C11.8806713,5.88067927 12.1860699,6.18164268 12.5606434,6.18164268 C12.9352168,6.18164268 13.2406154,5.88067927 13.2471608,5.50519024 L13.2471608,3.84122439 C13.2469371,2.91373537 12.4902657,2.15524024 11.5655664,2.15524024 Z" id="Fill-4"></path>
                <path d="M1.53311888,5.60052805 L4.20486713,1.87242439 C4.62072727,1.45542317 5.09211189,1.56018537 5.50797203,1.97729878 L10.1673846,6.1250122 L12.2158042,6.1250122 L5.99225175,0.51360122 C5.33840559,-0.142039024 4.16358042,-0.142039024 3.50973427,0.51360122 L0.00579020979,5.49565366 L1.53311888,5.60052805 Z" id="Fill-6"></path>
            </g>
        </g>
    </g>
</svg>