<?xml version="1.0" encoding="UTF-8"?>
<svg width="36px" height="36px" viewBox="0 0 36 36" version="1.1" xmlns="http://www.w3.org/2000/svg" xmlns:xlink="http://www.w3.org/1999/xlink">
    <!-- Generator: Sketch 49.2 (51160) - http://www.bohemiancoding.com/sketch -->
    <title>icon/36/排单顺序@2x</title>
    <desc>Created with Sketch.</desc>
    <defs></defs>
    <g id="icon/36/排单顺序" stroke="none" stroke-width="1" fill="none" fill-rule="evenodd">
        <g id="明日排单" transform="translate(0.000000, 1.000000)" fill="#979797" fill-rule="nonzero">
            <polygon id="Shape" points="10 3 25 3 25 4 10 4"></polygon>
            <path d="M33.4285714,3 L29.5714286,3 L29.5714286,4.40909092 L33.4285714,4.40909092 C34.2,4.40909092 34.7142857,4.97272727 34.7142857,5.81818181 L34.7142857,10.0454545 L1.2857143,10.0454545 L1.2857143,5.81818181 C1.2857143,4.97272727 1.8,4.40909089 2.57142857,4.40909092 L6.42857143,4.40909092 L6.42857143,3 L2.57142857,3 C1.15714287,3 0,4.26818183 0,5.81818181 L0,31.1818182 C0,32.7318182 1.15714287,34 2.57142857,34 L33.4285714,34 C34.8428571,34 36,32.7318182 36,31.1818182 L36,5.81818181 C36,4.26818183 34.8428571,3 33.4285714,3 Z M34.7142857,31.1818182 C34.7142857,32.0272727 34.2,32.5909091 33.4285714,32.5909091 L2.57142857,32.5909091 C1.8,32.5909091 1.28571427,32.0272727 1.2857143,31.1818182 L1.2857143,11.4545455 L34.7142857,11.4545455 L34.7142857,31.1818182 Z" id="Shape"></path>
            <path d="M7.59999999,0 L8.90000001,0 L8.90000001,7 L7.59999999,7 L7.59999999,0 Z M27.1,0 L28.4,0 L28.4,7 L27.1,7 L27.1,0 Z M5,15.4 L31,15.4 L31,16.8 L5,16.8 L5,15.4 Z M5,21 L23.2,21 L23.2,22.4 L5,22.4 L5,21 Z M5,26.6 L15.4,26.6 L15.4,28 L5,28 L5,26.6 Z" id="Shape"></path>
        </g>
    </g>
</svg>