<?xml version="1.0" encoding="UTF-8"?>
<svg width="14px" height="16px" viewBox="0 0 14 16" version="1.1" xmlns="http://www.w3.org/2000/svg" xmlns:xlink="http://www.w3.org/1999/xlink">
    <!-- Generator: Sketch 49.2 (51160) - http://www.bohemiancoding.com/sketch -->
    <title>订单 (1)@2x</title>
    <desc>Created with Sketch.</desc>
    <defs></defs>
    <g id="Page-1" stroke="none" stroke-width="1" fill="none" fill-rule="evenodd">
        <g id="订单列表-详情" transform="translate(-19.000000, -325.000000)" fill="#9B9B9B" fill-rule="nonzero">
            <g id="订单-(1)" transform="translate(19.000000, 325.000000)">
                <path d="M2.28227191,15.9869313 C1.03047278,15.9852553 0.0161162492,14.993166 0.014402627,13.7688464 L0.014402627,2.23115362 C0.0161162492,1.00683404 1.03047278,0.0147446981 2.28227191,0.0130686933 L11.7192836,0.0130686933 C12.9710827,0.014744698 13.9854392,1.00683404 13.9871528,2.23115362 L13.9871528,13.7673251 C13.9854392,14.9916446 12.9710827,15.983734 11.7192836,15.98541 L2.28227191,15.9869313 Z M2.28227191,0.989756293 C1.58077512,0.990594532 1.01231332,1.54657743 1.01145627,2.23267494 L1.01145627,13.7688464 C1.01231332,14.4549439 1.58077512,15.0109268 2.28227191,15.011765 L11.7192836,15.011765 C12.4207803,15.0109268 12.9892421,14.4549439 12.9900992,13.7688464 L12.9900992,2.23115362 C12.9892421,1.54505611 12.4207803,0.989073212 11.7192836,0.988234973 L2.28227191,0.989756293 Z" id="Shape"></path>
                <path d="M3.26688183,8.4883438 C3.08213045,8.49844105 2.90681914,8.40777961 2.81133373,8.25275919 C2.71584831,8.09773876 2.71584831,7.90378256 2.81133373,7.74876213 C2.90681914,7.59374171 3.08213045,7.50308027 3.26688183,7.51317752 L10.7331182,7.51317752 C10.9178696,7.50308027 11.0931809,7.59374171 11.1886663,7.74876213 C11.2841517,7.90378256 11.2841517,8.09773876 11.1886663,8.25275919 C11.0931809,8.40777961 10.9178696,8.49844105 10.7331182,8.4883438 L3.26688183,8.4883438 Z M3.26688183,10.7946653 C3.07506581,10.8182172 2.88658602,10.7313556 2.78304141,10.5716856 C2.6794968,10.4120157 2.6794968,10.2082339 2.78304141,10.048564 C2.88658602,9.88889402 3.07506581,9.8020324 3.26688183,9.8255843 L8.36103267,9.8255843 C8.63679096,9.8255843 8.86033722,10.0442233 8.86033722,10.3139281 C8.86033722,10.5836329 8.63679096,10.8022719 8.36103267,10.8022719 L3.26688183,10.7946653 Z M3.26688183,6.1744157 C2.99112354,6.1744157 2.76757728,5.95577673 2.76757728,5.6860719 C2.76757728,5.41636707 2.99112354,5.1977281 3.26688183,5.1977281 L10.7331182,5.1977281 C11.0088765,5.1977281 11.2324227,5.41636707 11.2324227,5.6860719 C11.2324227,5.95577673 11.0088765,6.1744157 10.7331182,6.1744157 L3.26688183,6.1744157 Z" id="Shape"></path>
            </g>
        </g>
    </g>
</svg>