<?xml version="1.0" encoding="UTF-8"?>
<svg width="14px" height="16px" viewBox="0 0 14 16" version="1.1" xmlns="http://www.w3.org/2000/svg" xmlns:xlink="http://www.w3.org/1999/xlink">
    <!-- Generator: Sketch 49.2 (51160) - http://www.bohemiancoding.com/sketch -->
    <title>备注@2x</title>
    <desc>Created with Sketch.</desc>
    <defs></defs>
    <g id="Page-1" stroke="none" stroke-width="1" fill="none" fill-rule="evenodd">
        <g id="订单列表-详情" transform="translate(-19.000000, -633.000000)" fill="#9B9B9B" fill-rule="nonzero">
            <g id="Group-16" transform="translate(7.000000, 624.000000)">
                <g id="备注" transform="translate(12.000000, 9.000000)">
                    <path d="M13.1979167,6.40128591e-16 L0.802083333,6.40128591e-16 C0.364583333,6.40128591e-16 0,0.36036036 0,0.792792793 L0,15.2072072 C0,15.6396396 0.364583333,16 0.802083333,16 C0.875,16 0.911458333,16 0.947916667,15.963964 L7,13.8018018 L13.0520833,15.963964 C13.0885417,16 13.1614583,16 13.1979167,16 C13.6354167,16 14,15.6396396 14,15.2072072 L14,0.792792793 C14,0.324324324 13.6354167,0 13.1979167,6.40128591e-16 Z M13.0520833,14.954955 L7.14583333,12.8648649 C7.03645833,12.8288288 6.92708333,12.8288288 6.81770833,12.8648649 L0.911458333,14.954955 L0.911458333,0.936936937 L13.015625,0.936936937 L13.015625,14.954955 L13.0520833,14.954955 Z" id="Shape"></path>
                    <path d="M2.47368421,3.92035398 L10.5263158,3.92035398 C10.7813765,3.92035398 11,3.7079646 11,3.46017699 C11,3.21238938 10.7813765,3 10.5263158,3 L2.47368421,3 C2.21862348,3 2,3.21238938 2,3.46017699 C2,3.7079646 2.21862348,3.92035398 2.47368421,3.92035398 Z M2.47368421,7 L8.44939271,7 C8.70445344,7 8.92307692,6.78761062 8.92307692,6.53982301 C8.92307692,6.2920354 8.70445344,6.07964602 8.44939271,6.07964602 L2.47368421,6.07964602 C2.21862348,6.07964602 2,6.2920354 2,6.53982301 C2,6.78761062 2.21862348,7 2.47368421,7 Z" id="Shape"></path>
                </g>
            </g>
        </g>
    </g>
</svg>