<?xml version="1.0" encoding="UTF-8"?>
<svg width="241px" height="204px" viewBox="0 0 241 204" version="1.1" xmlns="http://www.w3.org/2000/svg" xmlns:xlink="http://www.w3.org/1999/xlink">
    <!-- Generator: Sketch 49.2 (51160) - http://www.bohemiancoding.com/sketch -->
    <title>Group 8@2x</title>
    <desc>Created with Sketch.</desc>
    <defs></defs>
    <g id="Page-1" stroke="none" stroke-width="1" fill="none" fill-rule="evenodd">
        <g id="售后货缺省" transform="translate(-64.000000, -302.000000)">
            <g id="Group-8" transform="translate(64.000000, 302.000000)">
                <g id="Group-4">
                    <path d="M24.4009869,22.1100798 C23.2117988,22.1100798 22.41891,21.3189702 22.41891,20.1324507 L22.41891,16.5728919 C22.41891,15.3863723 23.2115086,14.5955524 24.4009869,14.5955524 C25.5901749,14.5955524 26.3830637,15.3863724 26.3830637,16.5728919 L26.3830637,20.1324507 C26.3830637,21.1214102 25.3918801,22.11008 24.4009869,22.1100798 Z M33.3198971,13.4090328 L29.7523329,13.4090328 C28.5631449,13.4090328 27.7702561,12.6179232 27.7702561,11.4314036 C27.7702561,10.244884 28.5628546,9.45377437 29.7523329,9.45377437 L33.3198971,9.45377437 C34.5090851,9.45377437 35.3019739,10.244884 35.3019739,11.4314036 C35.3019739,12.6179232 34.5087948,13.4090328 33.3198971,13.4090328 Z M24.5989913,7.87184475 C23.4098032,7.87184475 22.6169145,7.08073514 22.6169146,5.89421552 L22.6169146,2.33465683 C22.6169146,1.14813722 23.4095131,0.357317368 24.5989913,0.357317214 C25.7884694,0.357317061 26.5810681,1.14813722 26.5810681,2.33465683 L26.5810681,5.89421552 C26.5810681,7.08073514 25.5901749,7.87184475 24.5989913,7.87184475 Z M19.0496409,13.0133331 L15.4820768,13.0133331 C14.2928888,13.0133331 13.5,12.2225131 13.5,11.0359936 C13.5,9.84947413 14.2928888,9.05836437 15.4820768,9.05836437 L19.0496409,9.05836437 C20.238829,9.05836437 21.0317177,9.84947398 21.0317176,11.0359936 C21.0317174,12.2225132 20.2388288,13.0133331 19.0496409,13.0133331 Z M218.832937,60.6719666 C218.238343,60.6719666 217.842043,60.4741167 217.446034,60.0787067 C216.653146,59.2875971 216.653146,58.1010775 217.446034,57.3102577 L220.022415,54.7393687 C220.815014,53.9482591 222.004201,53.9482591 222.797381,54.7393687 C223.589979,55.5304783 223.589979,56.7169979 222.797381,57.5078178 L220.22071,60.0787067 C219.82412,60.4741167 219.229526,60.6719665 218.832937,60.6719666 Z M231.319701,60.8698163 C230.724817,60.8698163 230.328808,60.6719665 229.932509,60.2765566 L227.355838,57.7056677 C226.562949,56.914558 226.562949,55.7280384 227.355838,54.9372184 C228.148436,54.1461088 229.337915,54.1461088 230.130513,54.9372184 L232.707184,57.5078178 C233.500073,58.2989274 233.500073,59.485447 232.707184,60.2765566 C232.310594,60.6719666 231.914295,60.8698163 231.319701,60.8698163 Z M228.941325,50.7843998 C228.346731,50.7843998 227.950432,50.58655 227.554133,50.1911401 C226.761534,49.4000305 226.761534,48.2135109 227.554133,47.4224013 L230.130513,44.8518019 C230.923402,44.0606923 232.11259,44.0606923 232.905769,44.8518019 C233.698077,45.6426219 233.698077,46.8291414 232.905769,47.6202512 L230.329098,50.1911401 C229.932509,50.5865501 229.535629,50.7843998 228.941325,50.7843998 Z M221.409607,50.5865501 C220.815014,50.5865501 220.418714,50.3887002 220.022415,49.9932902 L217.446034,47.4224013 C216.653146,46.6315813 216.653146,45.4450618 217.446034,44.653952 C218.238343,43.8628424 219.427531,43.8628424 220.22071,44.653952 L222.797381,47.2248412 C223.589979,48.0156612 223.589979,49.2021806 222.797381,49.9932902 C222.400501,50.58655 221.805907,50.58655 221.409607,50.5865501 Z M41.2479139,61.4630762 C36.887461,61.4630762 33.3198971,57.9035174 33.3198971,53.5528491 C33.3198971,49.2021808 36.8874612,45.6426219 41.2479139,45.6426219 C45.6083666,45.6426219 49.1759308,49.2021808 49.1759308,53.5528491 C49.1759308,57.9035174 45.6083666,61.4630762 41.2479139,61.4630762 Z M41.2479139,49.5978802 C39.0678327,49.5978802 37.2840507,51.3776596 37.2840505,53.5528491 C37.2840504,55.7280386 39.0678325,57.5078178 41.2479139,57.5078178 C43.4279953,57.5078178 45.2117771,55.7280384 45.2117771,53.5528491 C45.2117771,51.3776597 43.4279951,49.5978804 41.2479139,49.5978802 Z" id="Shape" fill="#D7D7D7" fill-rule="nonzero"></path>
                    <path d="M200.636681,150 L173.363518,150 C172.545128,150 172,149.400308 172,148.50022 C172,147.599912 172.545128,147 173.363518,147 L200.636681,147 C201.454872,147 202,147.599912 202,148.50022 C202,149.400308 201.318241,150 200.636681,150 Z" id="Path" fill="#D8D8D8"></path>
                    <path d="M169.571279,150 L167.428302,150 C166.571112,150 166,149.400308 166,148.50022 C166,147.599912 166.571112,147 167.428302,147 L169.571279,147 C170.428679,147 171,147.599912 171,148.50022 C171,149.400308 170.285744,150 169.571279,150 Z" id="Path" fill="#D8D8D8"></path>
                    <path d="M161.67482,150 L153.325374,150 C152.529994,150 152,149.400308 152,148.50022 C152,147.599912 152.529994,147 153.325374,147 L161.67482,147 C162.470006,147 163,147.599912 163,148.50022 C163,149.400308 162.469812,150 161.67482,150 Z" id="Path" fill="#D8D8D8"></path>
                    <path d="M144.653159,150 L86.3464468,150 C85.5384998,150 85,149.400308 85,148.50022 C85,147.599912 85.5384999,147 86.3464468,147 L144.653356,147 C145.461303,147 146,147.599912 146,148.50022 C146,149.400308 145.326382,150 144.653159,150 Z" id="Path" fill="#D8D8D8"></path>
                    <path d="M78.6513006,150 L52.348897,150 C51.5395983,150 51,149.400308 51,148.50022 C51,147.599912 51.5395983,147 52.348897,147 L78.6513006,147 C79.4605992,147 79.9999999,147.599912 80,148.50022 C80,149.400308 79.3256503,150 78.6513006,150 Z" id="Path" fill="#D8D8D8"></path>
                    <path d="M65.4976077,58.6580645 C65.4976077,62.3245226 68.1292736,65.2967742 71.3755981,65.2967742 L109.162679,65.2967742 C113.491112,65.2967742 117,69.2597763 117,74.1483871 C117,79.0369979 113.491112,83 109.162679,83 L29.6698565,83 C25.3414238,83 21.8325359,79.0369979 21.8325359,74.1483871 C21.8325359,69.2597763 25.3414238,65.2967742 29.6698565,65.2967742 L43.9449761,65.2967742 C47.1913006,65.2967742 49.8229665,62.3245226 49.8229665,58.6580645 C49.8229665,54.9916064 47.1913006,52.0193548 43.9449761,52.0193548 L7.83732057,51.7032258 C3.50888794,51.7032258 0,47.7402237 0,42.8516129 C0,37.9630021 3.50888794,34 7.83732057,34 L84.5311005,34.316129 C88.8595331,34.316129 92.3684211,38.2791311 92.3684211,43.1677419 C92.3684211,48.0563528 88.8595331,52.0193548 84.5311005,52.0193548 L71.3755981,52.0193548 C68.1292736,52.0193548 65.4976077,54.9916064 65.4976077,58.6580645 Z" id="、、" fill-opacity="0.875452899" fill="#D7D7D7" opacity="0.29127038"></path>
                    <path d="M189.497608,101.658065 C189.497608,105.324523 192.129274,108.296774 195.375598,108.296774 L233.162679,108.296774 C237.491112,108.296774 241,112.259776 241,117.148387 C241,122.036998 237.491112,126 233.162679,126 L153.669856,126 C149.341424,126 145.832536,122.036998 145.832536,117.148387 C145.832536,112.259776 149.341424,108.296774 153.669856,108.296774 L167.944976,108.296774 C171.191301,108.296774 173.822967,105.324523 173.822967,101.658065 C173.822967,97.9916064 171.191301,95.0193548 167.944976,95.0193548 L131.837321,94.7032258 C127.508888,94.7032258 124,90.7402237 124,85.8516129 C124,80.9630021 127.508888,77 131.837321,77 L208.5311,77.316129 C212.859533,77.316129 216.368421,81.2791311 216.368421,86.1677419 C216.368421,91.0563528 212.859533,95.0193548 208.5311,95.0193548 L195.375598,95.0193548 C192.129274,95.0193548 189.497608,97.9916064 189.497608,101.658065 Z" id="、、-copy" fill-opacity="0.875452899" fill="#D7D7D7" opacity="0.29127038"></path>
                    <text id="没有服务单信息~" font-family="PingFang-SC-Medium, PingFang SC" font-size="18" font-weight="400" fill="#CFCFCF">
                        <tspan x="56" y="202">没有服务单信息~</tspan>
                    </text>
                </g>
                <g id="记录" transform="translate(74.000000, 26.000000)" fill="#DADADA" fill-rule="nonzero">
                    <path d="M67.981194,26.2517688 C67.981194,24.151816 66.2938093,22.4718537 64.1845784,22.4718537 L26.5348054,22.4718537 C24.4255744,22.4718537 22.7381896,24.1518159 22.7381897,26.2517688 C22.7381898,28.3517217 24.4255744,30.0316839 26.5348054,30.0316839 L64.2900399,30.0316839 C66.2938093,30.0316839 67.9811941,28.3517217 67.981194,26.2517688 Z" id="Shape"></path>
                    <path d="M7.65718814,89.9853373 L7.65718814,15.1220187 C7.65718814,10.922113 11.0319577,7.56218848 15.2504197,7.56218858 L75.5744256,7.56218858 C79.7928875,7.56218858 83.1676571,10.9221131 83.1676571,15.0170211 L83.1676571,37.6965117 L90.7608886,37.6965117 L90.7608886,15.0170211 C90.7608886,6.72220736 84.0113495,0.00235834311 75.5744256,0.00235834311 L15.2504197,0.00235834311 C6.91895732,0.00235834311 0.063956701,6.72220736 0.063956701,15.1220187 L0.063956701,89.9853373 C0.063956701,98.280151 6.81349577,105 15.2504197,105 L30.0150365,105 L30.0150365,97.5451674 L15.2504197,97.5451674 C11.0319577,97.5451674 7.65718814,94.1852428 7.65718814,89.9853373 Z" id="Shape"></path>
                    <path d="M94.5575043,66.1508725 L99.9360433,60.7959928 L94.5575043,55.5461108 L89.1789654,50.1912311 L83.8004264,44.8363513 L78.4218874,50.1912311 L40.6666529,87.7803867 L39.8229605,94.7102311 C39.0847297,100.905092 43.5141147,105.209995 49.7363461,104.475012 L56.6968084,103.635031 L94.5575043,66.1508725 Z M53.2165772,96.6001887 L48.7871922,97.1251768 C47.4161921,97.3351721 47.0998074,97.0201792 47.3107305,95.6552099 L47.8380382,91.2453089 L83.9058879,55.5461108 L89.2844269,60.9009905 L53.2165772,96.6001887 Z M34.0225754,67.515842 L26.4293438,67.515842 C24.3201129,67.515842 22.632728,69.1958042 22.6327281,71.2957571 C22.6327282,73.39571 24.3201129,75.0756722 26.4293438,75.0756721 L34.0225754,75.0756721 C36.1318063,75.0756721 37.8191911,73.3957099 37.8191911,71.2957571 C37.8191911,69.1958043 36.1318064,67.515842 34.0225754,67.515842 Z M26.5348054,45.0463466 C24.4255744,45.0463466 22.7381896,46.7263089 22.7381897,48.8262617 C22.7381898,50.9262146 24.4255744,52.6061769 26.5348054,52.6061769 L56.6968084,52.6061769 C58.8060393,52.6061769 60.4934241,50.9262146 60.4934241,48.8262617 C60.4934241,46.7263089 58.8060393,45.0463466 56.6968084,45.0463466 L26.5348054,45.0463466 Z" id="Shape"></path>
                </g>
            </g>
        </g>
    </g>
</svg>