<?xml version="1.0" encoding="UTF-8"?>
<svg width="36px" height="36px" viewBox="0 0 36 36" version="1.1" xmlns="http://www.w3.org/2000/svg" xmlns:xlink="http://www.w3.org/1999/xlink">
    <!-- Generator: Sketch 49.2 (51160) - http://www.bohemiancoding.com/sketch -->
    <title>icon/36/扫码发货@2x</title>
    <desc>Created with Sketch.</desc>
    <defs></defs>
    <g id="icon/36/扫码发货" stroke="none" stroke-width="1" fill="none" fill-rule="evenodd" stroke-linecap="round">
        <g id="Group" transform="translate(1.000000, 1.000000)" stroke="#979797" stroke-width="1.5">
            <g id="扫描">
                <path d="M11.2747459,0 L3.07207602,2.75408832e-05 C1.37541529,2.75408832e-05 -2.07781014e-16,1.37544283 0,3.07210356 C0,3.07210356 0,3.07210356 0,3.07210356 C0,4.54013485 0,7.49541555 0,11.9379457" id="Path-2"></path>
                <path d="M33.2747459,0 L25.072076,2.75408832e-05 C23.3754153,2.75408832e-05 22,1.37544283 22,3.07210356 C22,3.07210356 22,3.07210356 22,3.07210356 C22,4.54013485 22,7.49541555 22,11.9379457" id="Path-2-Copy" transform="translate(27.637373, 5.968973) scale(-1, 1) translate(-27.637373, -5.968973) "></path>
            </g>
            <g id="扫描-copy" transform="translate(17.000000, 28.000000) scale(1, -1) translate(-17.000000, -28.000000) translate(0.000000, 22.000000)">
                <path d="M11.2747459,0 L3.07207602,2.75408832e-05 C1.37541529,2.75408832e-05 -2.07781014e-16,1.37544283 0,3.07210356 C0,3.07210356 0,3.07210356 0,3.07210356 C0,4.54013485 0,7.49541555 0,11.9379457" id="Path-2"></path>
                <path d="M33.2747459,0 L25.072076,2.75408832e-05 C23.3754153,2.75408832e-05 22,1.37544283 22,3.07210356 C22,3.07210356 22,3.07210356 22,3.07210356 C22,4.54013485 22,7.49541555 22,11.9379457" id="Path-2-Copy" transform="translate(27.637373, 5.968973) scale(-1, 1) translate(-27.637373, -5.968973) "></path>
            </g>
        </g>
        <path d="M5.5,17.5 L31.5192237,17.5" id="Line" stroke="#979797" stroke-width="1.5"></path>
    </g>
</svg>