<?xml version="1.0" encoding="UTF-8"?>
<svg width="60px" height="60px" viewBox="0 0 60 60" version="1.1" xmlns="http://www.w3.org/2000/svg" xmlns:xlink="http://www.w3.org/1999/xlink">
    <!-- Generator: Sketch 49.2 (51160) - http://www.bohemiancoding.com/sketch -->
    <title>Group 4@2x</title>
    <desc>Created with Sketch.</desc>
    <defs>
        <linearGradient x1="50%" y1="0%" x2="50%" y2="100%" id="linearGradient-1">
            <stop stop-color="#47C2F8" offset="0%"></stop>
            <stop stop-color="#228FEF" offset="100%"></stop>
        </linearGradient>
    </defs>
    <g id="Page-1" stroke="none" stroke-width="1" fill="none" fill-rule="evenodd">
        <g id="扫码率" transform="translate(-158.000000, -625.000000)">
            <g id="Group-4" transform="translate(158.000000, 625.000000)">
                <circle id="Oval" fill="url(#linearGradient-1)" cx="30" cy="30" r="30"></circle>
                <g id="待发货" transform="translate(12.000000, 12.000000)" fill="#FFFFFF" fill-rule="nonzero">
                    <path d="M32.5697851,7.42148762 L24.3365289,7.42148762 L24.3365289,9.5371901 L30.8888595,9.5371901 L33.5705124,21.1735537 L24.8654546,21.1735537 L21.6971901,25.4049587 L14.3049256,25.4049587 L11.1366612,21.1735537 L2.4294876,21.1735537 L5.1111405,9.53719007 L11.6634711,9.53719007 L11.6634711,7.42148762 L3.43021489,7.42148762 L0.0165289091,22.2419835 L3.44608263,35.9834711 L32.5549752,35.9834711 L35.9834711,22.2419835 L32.5697851,7.42148762 Z M30.9036694,33.8677686 L5.09633059,33.8677686 L2.45487604,23.2892562 L10.0788099,23.2892562 L13.2470744,27.5206612 L22.7518678,27.5206612 L25.9201322,23.2892562 L33.5440661,23.2892562 L30.9036694,33.8677686 Z M12.7192066,18.213686 L23.2797355,18.213686 L23.2797355,6.57732232 L27.8242644,6.57732232 L18,0.0165289091 L8.17573552,6.57732232 L12.7202644,6.57732232 L12.7202645,18.213686 L12.7192066,18.213686 Z M14.8317355,4.67530579 L18,2.55960331 L21.1682645,4.67530579 L21.1682645,16.0979835 L14.8317355,16.0979835 L14.8317355,4.67530579 Z" id="Shape"></path>
                </g>
            </g>
        </g>
    </g>
</svg>