<?xml version="1.0" standalone="no"?><!DOCTYPE svg PUBLIC "-//W3C//DTD SVG 1.1//EN" "http://www.w3.org/Graphics/SVG/1.1/DTD/svg11.dtd"><svg t="1535357628869" class="icon" style="" viewBox="0 0 1024 1024" version="1.1" xmlns="http://www.w3.org/2000/svg" p-id="2500" xmlns:xlink="http://www.w3.org/1999/xlink" width="200" height="200"><defs><style type="text/css"></style></defs><path d="M657.8 677V561.9h-19.3V677h19.3zM388.3 272.2H369v174h19.3v-174z m-269.4 0.6c10.6 0 19.2-8.6 19.2-19.2 0-0.2-0.1-0.3-0.1-0.5v-76.5c0-21.3 17.2-38.5 38.5-38.5h50.4v-0.1h7.9c0.2 0 0.3 0.1 0.5 0.1 10.6 0 19.2-8.6 19.2-19.2s-8.6-19.3-19.2-19.3v-0.1h-63.6v0.1h-14.4c-31.9 0-57.8 25.9-57.8 57.8v96.2h0.1c0 10.6 8.6 19.2 19.3 19.2z m-0.8 250.1H909c10.5 0 19-8.5 19-19s-8.5-19-19-19H118.1c-10.5 0-19 8.5-19 19s8.5 19 19 19zM734.8 677V561.9h-19.4V677h19.4zM214.9 446.2h38.7v-174h-38.7v174z m96.4-174h-19.4v174h19.4v-174z m500.5 0h-38.7v174h38.7v-174zM793.2 138c0.2 0 0.3-0.1 0.5-0.1h25.9v0.1h30.9c21.3 0 38.5 17.2 38.5 38.5V253c0 0.2-0.1 0.3-0.1 0.5 0 10.6 8.6 19.2 19.2 19.2s19.3-8.6 19.3-19.2h0.1v-96.2c0-31.9-25.9-57.8-57.8-57.8h-13v-0.1h-63.6v0.1c-10.6 0-19.2 8.6-19.2 19.3 0 10.6 8.6 19.2 19.3 19.2z m-58.4 134.2h-19.4v174h19.4v-174z m-250 0H427v174h57.8v-174z m115.3 0h-38.7v174h38.7v-174z m57.7 0h-19.3v174h19.3v-174zM427 677h57.8V561.9H427V677z m192.5 76.9H658v-39.1h-38.5v39.1z m-365.9 0.7V561.9h-38.7v192.8h38.7zM561.4 677h38.7V561.9h-38.7V677z m346.8 77c-10.6 0-19.2 8.6-19.2 19.2 0 0.2 0.1 0.3 0.1 0.5v76.5c0 19.1-14 34.9-32.3 37.9v-0.4h-63.6v0.1c-10.6 0-19.2 8.6-19.2 19.3 0 10.6 8.6 19.2 19.2 19.2 0.2 0 0.3-0.1 0.5-0.1h25.9v1h50.1c31.9 0 57.8-25.9 57.8-57.8v-96.2h-0.1c0-10.5-8.6-19.2-19.2-19.2z m-96.4-192.1h-38.7v192.8h38.7V561.9zM523 753.9h38.5v-39.1H523v39.1z m173.5 0H735v-39.1h-38.5v39.1z m-385.2-192h-19.4V677h19.4V561.9z m134.9 192h38.5v-39.1h-38.5v39.1z m-210.9 134v-0.1h-63.6v0.6c-19-2.4-33.7-18.4-33.7-38v-76.5c0-0.2 0.1-0.3 0.1-0.5 0-10.6-8.6-19.2-19.2-19.2s-19.3 8.6-19.3 19.2h-0.1v96.2c0 31.9 25.9 57.8 57.8 57.8h69.6v-1h7.9c0.2 0 0.3 0.1 0.5 0.1 10.6 0 19.2-8.6 19.2-19.2 0-10.8-8.6-19.4-19.2-19.4z m56.9-134h38.5v-39.1h-38.5v39.1z m77 0h38.5v-39.1h-38.5v39.1z m19.1-192H369V677h19.3V561.9z" p-id="2501" fill="#ffffff"></path></svg>