<?xml version="1.0" encoding="UTF-8"?>
<svg width="16px" height="16px" viewBox="0 0 16 16" version="1.1" xmlns="http://www.w3.org/2000/svg" xmlns:xlink="http://www.w3.org/1999/xlink">
    <!-- Generator: Sketch 49.2 (51160) - http://www.bohemiancoding.com/sketch -->
    <title>icon/16/搜索@2x</title>
    <desc>Created with Sketch.</desc>
    <defs></defs>
    <g id="icon/16/搜索" stroke="none" stroke-width="1" fill="none" fill-rule="evenodd" opacity="0.3">
        <g id="搜索" fill="#000000" fill-rule="nonzero">
            <path d="M15.838916,15.0330798 L13.1204805,12.1275674 C14.2223413,10.8020637 14.8283258,9.14970463 14.8283258,7.41029383 C14.8283258,3.32964994 11.5039059,0.009029376 7.41736842,0.009029376 C3.33207784,0.009029376 0.00765795881,3.32904942 0.00765795881,7.41029383 C0.00765795881,11.4915382 3.33207784,14.811536 7.41799187,14.811536 C8.48843454,14.8110245 9.52077913,14.5878349 10.4858119,14.1488176 C10.772583,14.0184179 10.8991461,13.6807978 10.768575,13.3949773 C10.6380261,13.1080002 10.2982829,12.9810701 10.0138721,13.1126041 C9.1970456,13.4837638 8.32370653,13.6722795 7.41736842,13.6728133 C3.96023982,13.6728133 1.14768364,10.8635604 1.14768364,7.41029383 C1.14768364,3.95760554 3.96023982,1.14775217 7.41736842,1.14775217 C10.8751205,1.14775217 13.6881888,3.957094 13.6881888,7.41029383 C13.6881888,9.03589685 13.0675084,10.576005 11.9411544,11.7472221 C11.7228307,11.9737923 11.7302232,12.334254 11.9565406,12.5523282 C11.9735968,12.5688311 11.9958633,12.5750808 12.0152575,12.5893374 C12.0306437,12.61209 12.0385483,12.6382456 12.0579648,12.6587519 L15.006102,15.809695 C15.1178579,15.9298415 15.2700721,15.9901371 15.4221973,15.9901371 C15.5618977,15.9901371 15.7015758,15.9394941 15.8116172,15.8364511 C16.041319,15.6229141 16.0538551,15.2625191 15.838916,15.0330798 Z" id="Shape"></path>
        </g>
    </g>
</svg>