<?xml version="1.0" encoding="UTF-8"?>
<svg width="58px" height="39px" viewBox="0 0 58 39" version="1.1" xmlns="http://www.w3.org/2000/svg" xmlns:xlink="http://www.w3.org/1999/xlink">
    <!-- Generator: Sketch 49.2 (51160) - http://www.bohemiancoding.com/sketch -->
    <title>按钮@2x</title>
    <desc>Created with Sketch.</desc>
    <defs>
        <rect id="path-1" x="0" y="0" width="90" height="35" rx="17.5"></rect>
        <filter x="-0.6%" y="-1.4%" width="101.1%" height="105.7%" filterUnits="objectBoundingBox" id="filter-2">
            <feOffset dx="0" dy="1" in="SourceAlpha" result="shadowOffsetOuter1"></feOffset>
            <feColorMatrix values="0 0 0 0 0.843137255   0 0 0 0 0.843137255   0 0 0 0 0.843137255  0 0 0 1 0" type="matrix" in="shadowOffsetOuter1"></feColorMatrix>
        </filter>
        <filter x="-2.2%" y="-5.7%" width="104.4%" height="114.3%" filterUnits="objectBoundingBox" id="filter-3">
            <feGaussianBlur stdDeviation="1.5" in="SourceAlpha" result="shadowBlurInner1"></feGaussianBlur>
            <feOffset dx="0" dy="1" in="shadowBlurInner1" result="shadowOffsetInner1"></feOffset>
            <feComposite in="shadowOffsetInner1" in2="SourceAlpha" operator="arithmetic" k2="-1" k3="1" result="shadowInnerInner1"></feComposite>
            <feColorMatrix values="0 0 0 0 0.419031675   0 0 0 0 0.419031675   0 0 0 0 0.419031675  0 0 0 0.5 0" type="matrix" in="shadowInnerInner1"></feColorMatrix>
        </filter>
        <circle id="path-4" cx="19" cy="18" r="14"></circle>
        <filter x="-30.4%" y="-23.2%" width="160.7%" height="160.7%" filterUnits="objectBoundingBox" id="filter-5">
            <feOffset dx="0" dy="2" in="SourceAlpha" result="shadowOffsetOuter1"></feOffset>
            <feGaussianBlur stdDeviation="2.5" in="shadowOffsetOuter1" result="shadowBlurOuter1"></feGaussianBlur>
            <feColorMatrix values="0 0 0 0 0.843137255   0 0 0 0 0.843137255   0 0 0 0 0.843137255  0 0 0 1 0" type="matrix" in="shadowBlurOuter1"></feColorMatrix>
        </filter>
    </defs>
    <g id="Page-1" stroke="none" stroke-width="1" fill="none" fill-rule="evenodd">
        <g id="授权查询" transform="translate(-317.000000, -129.000000)">
            <g id="按钮" transform="translate(317.000000, 129.000000)">
                <g id="Rectangle">
                    <use fill="black" fill-opacity="1" filter="url(#filter-2)" xlink:href="#path-1"></use>
                    <use fill="#FFFFFF" fill-rule="evenodd" xlink:href="#path-1"></use>
                    <use fill="black" fill-opacity="1" filter="url(#filter-3)" xlink:href="#path-1"></use>
                </g>
                <g id="Oval-9">
                    <use fill="black" fill-opacity="1" filter="url(#filter-5)" xlink:href="#path-4"></use>
                    <use fill="#FFFFFF" fill-rule="evenodd" xlink:href="#path-4"></use>
                </g>
                <g id="正品" transform="translate(9.000000, 8.000000)" fill="#9B9B9B" fill-rule="nonzero">
                    <polygon id="Shape" points="6.66389466 8.47253886 6.66389466 13.474266 5.15315316 13.474266 5.15315316 14.3088083 14.5474705 14.3088083 14.5474705 13.474266 10.7331947 13.474266 10.7331947 10.5920553 13.8683299 10.5920553 13.8683299 9.76303973 10.7331947 9.76303973 10.7331947 7.27046632 14.1843382 7.27046632 14.1843382 6.44145078 5.57172557 6.44145078 5.57172557 7.27046632 9.86555786 7.27046632 9.86555786 13.474266 7.52598753 13.474266 7.52598753 8.47253886"></polygon>
                    <path d="M17.4137214,4.47392056 C17.1004851,4.68117445 17.011781,5.10120899 17.2196812,5.4134715 C18.1372141,6.80345424 18.6195426,8.42279793 18.6195426,10.0946459 C18.6195426,12.3744387 17.7297297,14.5188256 16.1108801,16.1298791 C14.4948025,17.7409326 12.3437283,18.6307427 10.056826,18.6307427 C8.57657657,18.6307427 7.11850312,18.2493955 5.83783784,17.5253886 C4.5959806,16.8234888 3.53984755,15.8120898 2.78586279,14.6044905 C2.78309079,14.5989637 2.78031877,14.5962004 2.77754678,14.5906736 C1.86001387,13.2006908 1.37768538,11.5813472 1.37768538,9.90949913 C1.37768538,7.62970638 2.26749827,5.4853195 3.88634788,3.87426597 C5.50242549,2.26321244 7.65349965,1.3734024 9.94040193,1.37340242 C11.024255,1.37340242 12.0776161,1.57236616 13.0755371,1.96476684 C13.6576577,2.19412781 14.2148302,2.48704663 14.7331947,2.83523316 C15.043659,3.04525042 15.4677755,2.96511227 15.6784477,2.65284974 C15.8891199,2.34335061 15.8087318,1.92055268 15.4954955,1.7105354 C14.8939709,1.30431778 14.2480942,0.964421409 13.5744976,0.699136435 C12.4158004,0.243177886 11.1933472,0.0138169326 9.93762994,0.0138169326 C8.5987526,0.0138169326 7.29868331,0.276338528 6.07345807,0.790328145 C4.89258489,1.28773747 3.83090782,2.00069084 2.91891892,2.90984456 C2.00693,3.81899828 1.29175328,4.87737478 0.792792786,6.05457685 C0.274428274,7.27599308 0.01386,8.56925733 0.0138600208,9.90673575 C0.0138600208,11.8411053 0.573804574,13.7146805 1.63270963,15.325734 C2.50866249,16.7240069 3.72834372,17.8901554 5.16424116,18.7025907 C6.64726264,19.5426598 8.34095634,19.9848014 10.056826,19.9848014 C11.3957034,19.9848014 12.6957727,19.7222798 13.9209979,19.2082902 C15.1018711,18.7108808 16.1635482,17.9979275 17.0755371,17.0887737 C17.987526,16.17962 18.7027027,15.1212435 19.2016632,13.9440415 C19.7200277,12.7226252 19.980596,11.429361 19.980596,10.0918825 C19.980596,8.15474955 19.4178794,6.27841105 18.3562023,4.66735751 C18.1510741,4.35509498 17.7269577,4.26666667 17.4137214,4.47392056 Z" id="Shape"></path>
                </g>
            </g>
        </g>
    </g>
</svg>