<?xml version="1.0" encoding="UTF-8"?>
<svg width="24px" height="24px" viewBox="0 0 24 24" version="1.1" xmlns="http://www.w3.org/2000/svg" xmlns:xlink="http://www.w3.org/1999/xlink">
    <!-- Generator: Sketch 49.2 (51160) - http://www.bohemiancoding.com/sketch -->
    <title>icon/24/设置@2x</title>
    <desc>Created with Sketch.</desc>
    <defs></defs>
    <g id="icon/24/设置" stroke="none" stroke-width="1" fill="none" fill-rule="evenodd">
        <g id="设置" transform="translate(1.000000, 0.000000)" fill="#FFFFFF" fill-rule="nonzero">
            <path d="M20.4562159,12.8317057 C20.4825358,12.5566288 20.4988164,12.2803211 20.4988164,12.000214 C20.4988164,11.7201338 20.4825358,11.4437726 20.4562159,11.1687224 L22.5490831,9.5019398 C23.0024434,9.12848161 23.1189307,8.48497659 22.8283764,7.97648161 L20.5965,4.04235452 C20.3134353,3.54268896 19.7072286,3.30298328 19.1335831,3.5250301 L16.6812945,4.5293913 C16.2316524,4.20385284 15.7607367,3.92500334 15.2760104,3.69664214 L14.9040266,1.02678261 C14.8163557,0.448909699 14.3128788,0.0135919732 13.7342667,0.0135919732 L9.26923903,0.0135919732 C8.68311085,0.0135919732 8.19089492,0.438822742 8.09820439,1.03561204 L7.72749538,3.69664214 C7.24152079,3.92626087 6.77060508,4.20508361 6.32098961,4.5293913 L3.86240647,3.52125753 C3.3326097,3.31432776 2.69137182,3.54271572 2.4082806,4.04235452 L0.176404157,7.97522408 C-0.114176674,8.48749164 0.00231062356,9.13099666 0.463213626,9.50825418 L2.5473164,11.1686957 C2.52099654,11.4424883 2.50474249,11.720107 2.50474249,12.0001873 C2.50474249,12.2802943 2.52099654,12.5578595 2.5473164,12.8316789 L0.451952656,14.4984615 C0.00231062356,14.873204 -0.114150115,15.5154515 0.176404157,16.0226622 L2.40955543,19.9593311 C2.6938418,20.4577124 3.313806,20.6974716 3.8711709,20.4741137 L6.32348614,19.4697525 C6.77437644,19.795291 7.24526559,20.0741405 7.72874365,20.3012441 L8.10072748,22.974903 C8.19216975,23.5616054 8.68438568,23.9868361 9.26929215,23.9868361 L13.7330716,23.9868361 C14.3117102,23.9868361 14.8139388,23.5515452 14.9053811,22.9648161 L15.2760901,20.3025017 C15.7688316,20.0688352 16.2392344,19.790082 16.6813741,19.4697525 L19.1399573,20.4791438 C19.2777448,20.5334314 19.4217737,20.5599197 19.5695473,20.5599197 C19.9903995,20.5599197 20.3836836,20.3302742 20.5965531,19.9580468 L22.8246582,16.0264348 C23.1164873,15.5191973 23.0037714,14.8757191 22.539097,14.4883746 L20.4562159,12.8317057 Z M19.6045785,19.3069967 L16.8253499,18.1676522 C16.6174203,18.0805886 16.3819758,18.1146756 16.2053857,18.2534314 C15.6567852,18.6824615 15.0706836,19.0294047 14.4619804,19.2842809 C14.2578222,19.3700602 14.1137933,19.5593579 14.0824804,19.7801204 L13.6729423,22.7263144 L9.33815935,22.7906622 L8.91985681,19.7801204 C8.88979215,19.5593311 8.74448845,19.3713177 8.54035681,19.2842809 C7.93667321,19.0319197 7.34927021,18.6836923 6.7969515,18.2534314 C6.68691611,18.1685891 6.552272,18.1224913 6.4137067,18.1222207 C6.33477367,18.1222207 6.25461894,18.1373645 6.17823557,18.1689097 L3.49666397,19.3335117 L1.24101732,15.4801338 L3.5981455,13.6051906 C3.77101732,13.4676656 3.8586351,13.2481338 3.83112009,13.0285753 C3.78602309,12.6904348 3.7572067,12.3484682 3.7572067,12.0002408 C3.7572067,11.6520134 3.78604965,11.3100736 3.82984527,10.9744482 C3.8586351,10.7536321 3.7709642,10.5353579 3.59687067,10.397806 L1.26353926,8.60238127 L3.39898037,4.69345819 L6.17568591,5.83154515 C6.38246776,5.9171417 6.61888947,5.88490956 6.79565012,5.74702341 C7.34544573,5.31802007 7.93412356,4.96976589 8.54280023,4.71240134 C8.74695843,4.62662207 8.88973903,4.4386087 8.92105196,4.21779264 L9.26921247,1.27537124 L13.6653464,1.21105017 L14.0836755,4.22030769 C14.1137402,4.44112375 14.2590173,4.62911037 14.4631755,4.71494314 C15.0693557,4.96979264 15.6567587,5.3167893 16.2078557,5.74705017 C16.385694,5.88460201 16.6211917,5.91737793 16.8278199,5.83282943 L19.5093383,4.66951171 L21.7662598,8.52037458 L19.4078834,10.3978595 C19.2350115,10.5354114 19.1461189,10.7536589 19.1736339,10.9732174 C19.2162344,11.3113579 19.2475473,11.6532977 19.2475473,12.0015518 C19.2475473,12.3497793 19.2174827,12.6917191 19.1736339,13.0298863 C19.1460924,13.2494181 19.2350115,13.4677191 19.4078834,13.6052174 L21.7399665,15.3981806 L19.6045785,19.3069967 Z M11.5036651,7.24342475 C8.92110508,7.24342475 6.82072171,9.37704348 6.82072171,12.0001873 C6.82072171,14.6221003 8.92110508,16.7569766 11.5036651,16.7569766 C14.0862252,16.7569766 16.1853337,14.6233579 16.1853337,12.0001873 C16.1853337,9.37704348 14.0849769,7.24342475 11.5036651,7.24342475 Z M11.5036651,15.4952776 C9.61243303,15.4952776 8.07315935,13.928214 8.07315935,12.0002408 C8.07315935,10.0722676 9.61243303,8.50520401 11.5036651,8.50520401 C13.3948972,8.50520401 14.9328961,10.0735518 14.9328961,12.0002408 C14.9328961,13.9269298 13.3935958,15.4952776 11.5036651,15.4952776 Z" id="Shape"></path>
        </g>
    </g>
</svg>