<?xml version="1.0" encoding="UTF-8"?>
<svg width="24px" height="24px" viewBox="0 0 24 24" version="1.1" xmlns="http://www.w3.org/2000/svg" xmlns:xlink="http://www.w3.org/1999/xlink">
    <!-- Generator: Sketch 49.2 (51160) - http://www.bohemiancoding.com/sketch -->
    <title>icon/24/联系客服@2x</title>
    <desc>Created with Sketch.</desc>
    <defs>
        <polygon id="path-1" points="0.00175609756 0.0170933852 23.9997659 0.0170933852 23.9997659 22.9701944 0.00175609756 22.9701944"></polygon>
    </defs>
    <g id="icon/24/联系客服" stroke="none" stroke-width="1" fill="none" fill-rule="evenodd">
        <g id="客服" transform="translate(0.000000, 1.000000)">
            <mask id="mask-2" fill="white">
                <use xlink:href="#path-1"></use>
            </mask>
            <g id="Clip-2"></g>
            <path d="M20.3862732,10.5375499 C20.214439,10.5375499 20.0559805,10.6104877 19.9409561,10.7276057 C19.8275415,10.8429637 19.7558634,11.0041427 19.7558634,11.1788054 L19.7558634,17.2246732 C19.7558634,17.3978444 19.8275415,17.5589935 19.9426829,17.6761115 L19.9409561,17.6761115 L19.9426829,17.6778418 C20.0559805,17.7932296 20.214439,17.8661673 20.3862732,17.8661673 L22.107161,17.8661673 C22.2772976,17.8661673 22.4340293,17.7914695 22.5490537,17.6743515 L22.5506341,17.6759922 L22.552361,17.6743515 C22.6657756,17.5589935 22.7374537,17.3978444 22.7374537,17.2246732 L22.7374537,11.1789248 C22.7374537,11.0160156 22.6757268,10.8650091 22.5756878,10.7513813 L22.5506341,10.7276057 C22.435639,10.6104877 22.278878,10.5375499 22.107161,10.5375499 L20.3862732,10.5375499 Z M13.6507902,19.7649948 C13.6271415,19.7530026 13.6042537,19.7393696 13.5824195,19.7242153 C13.3489756,19.6003554 13.085561,19.57831 12.8454732,19.6443865 C12.5935902,19.7123424 12.366761,19.8803528 12.2250146,20.1279831 L12.2234049,20.1279831 C12.1391415,20.2780649 12.0933073,20.4472685 12.0899707,20.6200817 L12.0899707,20.669393 C12.0914634,20.7530402 12.1032293,20.8363593 12.1249756,20.9171128 C12.1884293,21.1614916 12.3385171,21.3820649 12.5603415,21.5262101 C12.5869756,21.5381128 12.6136098,21.5551167 12.6386341,21.5720013 C12.8738049,21.6958911 13.135639,21.7180259 13.3757268,21.6518301 C13.6175415,21.5856641 13.836,21.4296161 13.9777756,21.1971401 C13.9910341,21.1733645 14.0044098,21.1495888 14.0193951,21.127454 C14.1394537,20.8899663 14.1611707,20.6218418 14.0978341,20.3792231 C14.0326537,20.1314734 13.8793463,19.9091401 13.6507902,19.7649948 Z M14.2528683,18.6381738 C14.7981951,18.9589805 15.1649854,19.4747354 15.3151024,20.0482737 C15.4652195,20.6184708 15.4017659,21.2513139 15.0866634,21.8062374 L15.0849366,21.8096083 L15.0866634,21.8096083 C14.7714439,22.3645318 14.2645171,22.7377821 13.7008683,22.8905486 C13.1388293,23.0449261 12.5186049,22.9787601 11.971522,22.6580726 L11.9582634,22.6495707 C11.4313171,22.3356252 11.0743902,21.8401556 10.9176585,21.2903632 L6.87222439,21.2903632 C6.84878049,21.2903632 6.8237561,21.2887224 6.80042927,21.2869922 C5.39461463,21.244572 3.41683902,20.8254112 1.9811122,19.8871245 C0.825453659,19.1320324 0,18.0494514 0,16.5662944 L0,11.1789248 C0,10.6494176 0.213453659,10.1675811 0.555307317,9.81810636 C0.898858537,9.47015305 1.37241951,9.25304021 1.89272195,9.25304021 L2.16117073,9.25304021 C2.36959024,6.81292218 3.43021463,4.61894293 5.03780488,2.98322827 C6.83882927,1.1505668 9.32675122,0.0170933852 12.0749854,0.0170933852 C14.8231317,0.0170933852 17.3128683,1.1505668 19.113922,2.98322827 C20.7197854,4.61718288 21.7786829,6.81131128 21.9887122,9.25304021 L22.107161,9.25304021 C22.6274634,9.25304021 23.1010244,9.47188327 23.442878,9.81971725 C23.4562537,9.83335019 23.4696293,9.84862387 23.4828878,9.86389754 C23.8031122,10.2117315 23.9997659,10.6766835 23.9997659,11.1789248 L23.9997659,17.2247925 C23.9997659,17.7491686 23.7847317,18.2310052 23.4412683,18.5805992 L23.442878,18.5822399 C23.0993268,18.931834 22.6241561,19.1507665 22.107161,19.1507665 L20.3862732,19.1507665 C19.8708878,19.1507665 19.3957463,18.931834 19.0504683,18.5822399 L19.0504683,18.5839702 C18.7086146,18.234406 18.4934341,17.7541803 18.4934341,17.2247925 L18.4934341,11.1789248 C18.4934341,10.6494176 18.7070049,10.1675811 19.0488585,9.81810636 C19.3922927,9.47015305 19.8659707,9.25304021 20.3862732,9.25304021 L20.7264,9.25304021 C20.5195902,7.16928794 19.6007122,5.29596628 18.221678,3.89096757 C16.6492098,2.29093126 14.4762439,1.30157328 12.0749854,1.30157328 C9.67533659,1.30157328 7.50251707,2.29093126 5.92990244,3.89096757 C4.55086829,5.29420623 3.63371707,7.16752789 3.42863415,9.25304021 L3.61372683,9.25304021 C4.13563902,9.25304021 4.60759024,9.47188327 4.94941463,9.81971725 C4.96404878,9.83314137 4.97742439,9.84793774 4.98945366,9.86389754 C5.30956098,10.2117315 5.50644878,10.6766835 5.50644878,11.1789248 L5.50644878,16.6359805 C5.50644878,16.9905564 5.22462439,17.2790856 4.87603902,17.2790856 C4.52754146,17.2790856 4.24571707,16.9905564 4.24571707,16.6359805 L4.24571707,11.1789248 C4.24571707,11.0160156 4.18238049,10.8650091 4.08225366,10.7513813 L4.05731707,10.7276057 C3.94217561,10.6104877 3.7854439,10.5375499 3.61372683,10.5375499 L1.89272195,10.5375499 C1.72100488,10.5375499 1.56254634,10.6104877 1.44752195,10.7276057 C1.33410732,10.8429637 1.26242927,11.0041427 1.26242927,11.1789248 L1.26242927,16.5664137 C1.26242927,17.5385888 1.84606829,18.2750661 2.66148293,18.8079442 C3.89051707,19.6122283 5.60806829,19.971965 6.83379512,20.0076135 L6.87222439,20.0058534 L10.9193561,20.0058534 C10.9694341,19.8294306 11.0411122,19.6564086 11.1362341,19.4883684 L11.1362341,19.4867276 C11.4513366,18.931834 11.9565659,18.5584643 12.5201854,18.4040571 C13.0822537,18.2514099 13.7042049,18.3176057 14.2495317,18.6382931 L14.2511415,18.639904 L14.2528683,18.6381738 Z" id="Fill-1" fill="#73A8F5" mask="url(#mask-2)"></path>
        </g>
    </g>
</svg>