<?xml version="1.0" encoding="UTF-8"?>
<svg width="16px" height="16px" viewBox="0 0 16 16" version="1.1" xmlns="http://www.w3.org/2000/svg" xmlns:xlink="http://www.w3.org/1999/xlink">
    <!-- Generator: Sketch 49.2 (51160) - http://www.bohemiancoding.com/sketch -->
    <title>顺丰快递@2x</title>
    <desc>Created with Sketch.</desc>
    <defs>
        <rect id="path-1" x="0" y="0" width="16" height="16" rx="2"></rect>
    </defs>
    <g id="Page-1" stroke="none" stroke-width="1" fill="none" fill-rule="evenodd">
        <g id="订单列表-详情" transform="translate(-16.000000, -519.000000)">
            <g id="Group-8" transform="translate(7.000000, 470.000000)">
                <g id="顺丰快递" transform="translate(9.000000, 49.000000)">
                    <mask id="mask-2" fill="white">
                        <use xlink:href="#path-1"></use>
                    </mask>
                    <use id="Mask" fill="#000000" xlink:href="#path-1"></use>
                    <g mask="url(#mask-2)" fill-rule="nonzero" id="Shape">
                        <g transform="translate(2.000000, 4.000000)">
                            <path d="M2.91790159,7.85022465 C1.75655647,7.85022465 0.610976883,7.16384608 0.610976883,7.16384608 L0.610976883,5.51112385 C2.66565309,7.25710665 4.0112241,6.49708683 4.0112241,5.70738591 C4.0112241,4.92304821 3.23859022,4.6975176 2.37136313,4.28062976 C1.49910188,3.86385652 0.605623474,3.37337329 0.605623474,2.07411985 C0.605623474,0.774499707 2.06138133,0.127359786 3.17007645,0.127359786 C4.2790417,0.127359786 5.25650473,0.622679092 5.25650473,0.622679111 L5.25650473,2.07411985 C3.91120384,1.00993167 2.15594997,1.38263017 2.15594997,2.16726583 C2.15594997,2.73116113 3.34894895,3.15274751 3.84809259,3.37348788 C4.34740813,3.59418242 5.48245281,4.23160435 5.48245279,5.6831597 C5.47707483,7.50704683 4.07941861,7.85022465 2.91790159,7.85022465 Z" fill="#FFFFFF"></path>
                            <path d="M9.69685964,4.90310799 C9.15599381,4.90310799 8.7195685,4.49632778 8.7195685,3.99598905 C8.7195685,3.49603994 9.15596924,3.08900761 9.69685964,3.08900761 C10.2382903,3.08900761 10.6745191,3.49603994 10.6745191,3.99598905 C10.6744946,4.49632778 10.2383394,4.90310801 9.69685964,4.90310799 Z" fill="#BF2D2F"></path>
                            <path d="M11.3945275,2.07884132 C11.3945275,2.07884132 9.92320061,1.0637473 7.99432945,1.77964656 L7.99432945,7.88469601 L6.49660385,7.88469601 L6.49660385,0.627400584 C6.49660385,0.627400584 8.67740431,-0.524799546 11.3944048,0.627400584 L11.3944048,2.07884132 L11.3945275,2.07884132 Z" fill="#FFFFFF"></path>
                        </g>
                    </g>
                </g>
            </g>
        </g>
    </g>
</svg>