<?xml version="1.0" encoding="UTF-8"?>
<svg width="36px" height="36px" viewBox="0 0 36 36" version="1.1" xmlns="http://www.w3.org/2000/svg" xmlns:xlink="http://www.w3.org/1999/xlink">
    <!-- Generator: Sketch 49.2 (51160) - http://www.bohemiancoding.com/sketch -->
    <title>icon/36/发货详情@2x</title>
    <desc>Created with Sketch.</desc>
    <defs></defs>
    <g id="icon/36/发货详情" stroke="none" stroke-width="1" fill="none" fill-rule="evenodd">
        <g id="发货" fill="#9B9B9B" fill-rule="nonzero">
            <path d="M13.2524138,16.8431799 L1.31109717,16.8431799 C0.669090884,16.8431799 0.155485881,17.1765132 0.155485881,17.5931799 C0.155485881,18.0098466 0.669090884,18.3431799 1.31109717,18.3431799 L13.2524138,18.3431799 C13.8944201,18.3431799 14.4080251,18.0098466 14.4080251,17.5931799 C14.4080251,17.1765132 13.8944201,16.8431799 13.2524138,16.8431799 Z M8.11636364,21.8431799 L1.31109717,21.8431799 C0.669090884,21.8431799 0.155485881,22.1765132 0.155485881,22.5931799 C0.155485881,23.0098466 0.669090884,23.3431799 1.31109717,23.3431799 L8.11636364,23.3431799 C8.75836992,23.3431799 9.27197492,23.0098466 9.27197492,22.5931799 C9.14357368,22.1765132 8.62996864,21.8431799 8.11636364,21.8431799 Z M24.9896031,21.8431799 L17.4378577,21.8431799 C16.7254289,21.8431799 16.1554859,22.1765132 16.1554859,22.5931799 C16.1554859,23.0098466 16.7254289,23.3431799 17.4378577,23.3431799 L24.9896031,23.3431799 C25.7020319,23.3431799 26.2719749,23.0098466 26.2719749,22.5931799 C26.1294892,22.1765132 25.5595461,21.8431799 24.9896031,21.8431799 Z M26.0173119,21.6830479 L22.3694485,19.576953 C22.0253104,19.3782648 21.5833333,19.5079893 21.375,19.8688333 C21.1666667,20.2296772 21.2753104,20.6773029 21.6194485,20.8759911 L25.2673119,22.982086 C25.61145,23.1807742 26.0534271,23.0510497 26.2617604,22.6902057 C26.4012662,22.2896242 26.2926224,21.8419985 26.0173119,21.6830479 Z M25.2725378,22.3580767 L21.6202071,24.4667509 C21.2756476,24.6656824 21.1666667,25.1135027 21.375,25.4743466 C21.5833333,25.8351906 22.0256476,25.9647205 22.3702071,25.765789 L26.0225378,23.6571148 C26.3670973,23.4581833 26.4760783,23.010363 26.2677449,22.6495191 C25.9904997,22.3284614 25.5481854,22.1989315 25.2725378,22.3580767 Z M4.64952978,26.3548117 L1.31109717,26.3548117 C0.669090884,26.3548117 0.155485881,26.6881451 0.155485881,27.1048117 C0.155485881,27.5214784 0.669090884,27.8548117 1.31109717,27.8548117 L4.64952978,27.8548117 C5.29153606,27.8548117 5.80514107,27.5214784 5.80514107,27.1048117 C5.80514107,26.6881451 5.29153606,26.3548117 4.64952978,26.3548117 Z" id="Shape"></path>
        </g>
        <path d="M1.11702008,12.6461497 L6.61548385,1.53193461 L29.4343047,1.53193461 L35.0944194,11.8887074 C35.1747926,12.035773 35.2169147,12.2006803 35.2169147,12.3682755 L35.2169147,34.5548995 L14.2756243,34.5548995 L1.11702008,34.5548995 L1.11702008,30.603541" id="Path-2" stroke="#979797" stroke-width="1.5" stroke-linecap="round" stroke-linejoin="round"></path>
        <path d="M1.27603819,12.5 L34.5,12.5" id="Line" stroke="#979797" stroke-width="1.5" stroke-linecap="round"></path>
    </g>
</svg>