<?xml version="1.0" encoding="UTF-8"?>
<svg width="140px" height="157px" viewBox="0 0 140 157" version="1.1" xmlns="http://www.w3.org/2000/svg" xmlns:xlink="http://www.w3.org/1999/xlink">
    <!-- Generator: Sketch 49.2 (51160) - http://www.bohemiancoding.com/sketch -->
    <title>缺省页@2x</title>
    <desc>Created with Sketch.</desc>
    <defs></defs>
    <g id="Page-1" stroke="none" stroke-width="1" fill="none" fill-rule="evenodd">
        <g id="发货详情-缺省页" transform="translate(-118.000000, -295.000000)" fill-rule="nonzero">
            <g id="缺省页" transform="translate(118.000000, 295.000000)">
                <path d="M63.3883871,3.03172414 L13.1690323,34.7565517 C4.20903226,40.4049425 1.53548387,52.2431034 7.20774194,61.193908 C12.8619355,70.1447126 24.7122581,72.8155172 33.6722581,67.1490805 L83.8916129,35.4242529 C92.8516129,29.7758621 95.5251613,17.9377011 89.8529032,8.98689655 C84.1806452,0.036091954 72.3303226,-2.63471264 63.3883871,3.03172414 Z" id="Shape" fill="#E5EAEC" opacity="0.667798913"></path>
                <path d="M110.482581,64.7670115 L69.1509677,90.8614943 C60.1909677,96.5098851 57.5174194,108.348046 63.1896774,117.298851 C68.843871,126.249655 80.6941935,128.92046 89.6541935,123.254023 L130.985806,97.1595402 C139.945806,91.5111494 142.619355,79.6729885 136.947097,70.7221839 C131.292903,61.7713793 119.442581,59.1005747 110.482581,64.7670115 Z" id="Shape" fill="#E3E8EB" opacity="0.667798913"></path>
                <path d="M100.474839,20.3197701 L11.4890323,76.5149425 C0.0722580645,83.7152874 -3.32387097,98.8197701 3.88387097,110.224828 C11.0916129,121.629885 26.2116129,125.022529 37.6283871,117.822184 L126.614194,61.6270115 C138.030968,54.4266667 141.427097,39.3221839 134.219355,27.9171264 C126.993548,16.512069 111.891613,13.1194253 100.474839,20.3197701 Z" id="Shape" fill="#E1E8EA" opacity="0.667798913"></path>
                <path d="M87.0890323,118.381609 L49.4967742,80.827931 C48.7922581,80.1241379 48.7922581,78.9691954 49.4967742,78.2834483 L95.1819355,32.6451724 C95.8864516,31.9413793 97.0425806,31.9413793 97.7290323,32.6451724 L135.32129,70.1988506 C136.025806,70.9026437 136.025806,72.0575862 135.32129,72.7433333 L89.636129,118.381609 C88.9316129,119.067356 87.7754839,119.067356 87.0890323,118.381609 Z" id="Shape" fill="#E1E8EA"></path>
                <path d="M88.3535484,118.399655 C86.9625806,118.399655 85.5716129,117.876322 84.5058065,116.811609 L51.0683871,83.3904598 C48.9548387,81.2790805 48.9548387,77.8322989 51.0683871,75.7028736 L92.6348387,34.1790805 C93.6645161,33.1504598 95.0193548,32.5910345 96.4825806,32.5910345 C97.9458065,32.5910345 99.3006452,33.1504598 100.330323,34.1790805 L133.785806,67.6002299 C134.815484,68.6288506 135.375484,69.9822989 135.375484,71.444023 C135.375484,72.9057471 134.815484,74.2591954 133.785806,75.2878161 L92.2012903,116.811609 C91.1354839,117.876322 89.7445161,118.399655 88.3535484,118.399655 Z M85.5174194,115.801034 C87.0890323,117.371034 89.636129,117.371034 91.2077419,115.801034 L132.774194,74.2772414 C133.532903,73.5193103 133.948387,72.5087356 133.948387,71.444023 C133.948387,70.3793103 133.532903,69.3506897 132.774194,68.6108046 L99.3006452,35.1896552 C98.5419355,34.4317241 97.5303226,34.0166667 96.4645161,34.0166667 C95.3806452,34.0166667 94.3690323,34.4317241 93.6283871,35.1896552 L52.0619355,76.7134483 C50.4903226,78.2834483 50.4903226,80.827931 52.0619355,82.397931 L85.5174194,115.801034 Z" id="Shape" fill="#B8BFC8"></path>
                <path d="M124.807742,71.1011494 L94.7845161,41.1087356 C94.08,40.4049425 92.96,40.4049425 92.2554839,41.1087356 L77.84,55.5094253 C77.1354839,56.2132184 77.1354839,57.332069 77.84,58.0358621 L107.863226,88.0282759 C108.567742,88.732069 109.687742,88.732069 110.392258,88.0282759 L124.807742,73.6275862 C125.512258,72.9237931 125.512258,71.7868966 124.807742,71.1011494 Z" id="Shape" fill="#D2DFEC"></path>
                <path d="M102.949677,23.9470115 L102.949677,96.527931 C102.949677,99.3250575 100.655484,101.616897 97.8554839,101.616897 L39.1096774,101.616897 C36.3096774,101.616897 34.0154839,99.3250575 34.0154839,96.527931 L34.0154839,23.9470115 C34.0154839,21.1498851 36.3096774,18.858046 39.1096774,18.858046 L97.8554839,18.858046 C100.655484,18.858046 102.949677,21.1498851 102.949677,23.9470115 Z M22.4541935,86.6567816 L17.2516129,89.3636782 C17.0709677,89.453908 16.836129,89.3817241 16.7458065,89.2012644 L2.70967742,62.1683908 C2.61935484,61.987931 2.6916129,61.7533333 2.87225806,61.6631034 L8.07483871,58.9562069 C8.25548387,58.865977 8.49032258,58.9381609 8.58064516,59.1186207 L22.6167742,86.1514943 C22.7070968,86.331954 22.6348387,86.5485057 22.4541935,86.6567816 Z" id="Shape" fill="#E9EEEF"></path>
                <path d="M22.2012903,87.6312644 L18.2090323,89.7065517 C17.323871,90.1757471 16.2219355,89.8148276 15.7522581,88.9305747 L2.33032258,63.1067816 C1.86064516,62.2225287 2.22193548,61.1217241 3.10709677,60.6525287 L7.09935484,58.5772414 C7.98451613,58.108046 9.08645161,58.4689655 9.55612903,59.3532184 L22.9780645,85.1770115 C23.4296774,86.0793103 23.0864516,87.1801149 22.2012903,87.6312644 Z M3.8116129,62.024023 C3.66709677,62.0962069 3.61290323,62.2766667 3.68516129,62.4210345 L17.1070968,88.2448276 C17.1793548,88.3891954 17.36,88.4433333 17.5045161,88.3711494 L21.4967742,86.2958621 C21.6412903,86.2236782 21.6954839,86.0432184 21.6232258,85.8988506 L8.20129032,60.0750575 C8.12903226,59.9306897 7.9483871,59.8765517 7.80387097,59.9487356 L3.8116129,62.024023 Z" id="Shape" fill="#B8BFC8"></path>
                <path d="M39.5070968,120.781724 L35.3703226,122.929195 C35.1174194,123.055517 34.8283871,122.965287 34.7019355,122.712644 L17.5045161,89.6343678 C17.3780645,89.3817241 17.4683871,89.0929885 17.7212903,88.9666667 L21.8580645,86.8191954 C22.1109677,86.6928736 22.4,86.7831034 22.5264516,87.0357471 L39.723871,120.114023 C39.8503226,120.366667 39.7419355,120.655402 39.5070968,120.781724 Z" id="Shape" fill="#E9EEEF"></path>
                <path d="M39.0554839,121.882529 L36.5445161,123.181839 C35.4787097,123.741264 34.16,123.326207 33.6180645,122.261494 L17.2696774,90.7893103 C16.7096774,89.7245977 17.1251613,88.4072414 18.1909677,87.8658621 L20.7019355,86.5665517 C21.7677419,86.0071264 23.0864516,86.4221839 23.6283871,87.4868966 L39.9767742,118.95908 C40.5367742,120.023793 40.1212903,121.323103 39.0554839,121.882529 Z M18.8774194,89.2193103 C18.5703226,89.3817241 18.443871,89.7787356 18.6064516,90.0855172 L34.9548387,121.557701 C35.1174194,121.864483 35.5148387,121.990805 35.8219355,121.828391 L38.3329032,120.52908 C38.64,120.366667 38.7664516,119.969655 38.603871,119.662874 L22.2554839,88.1906897 C22.0929032,87.883908 21.6954839,87.7575862 21.3883871,87.92 L18.8774194,89.2193103 Z M13.5845161,88.1726437 L12.3019355,88.8403448 C12.1212903,88.9305747 11.9045161,88.8583908 11.8141935,88.677931 L0.270967742,66.4633333 C0.180645161,66.2828736 0.252903226,66.0663218 0.433548387,65.976092 L1.71612903,65.3083908 C1.89677419,65.2181609 2.11354839,65.2903448 2.20387097,65.4708046 L13.7470968,87.6854023 C13.8374194,87.8478161 13.7651613,88.0824138 13.5845161,88.1726437 Z" id="Shape" fill="#B8BFC8"></path>
                <path d="M1.77032258,20.2114943 C1.77032253,22.7581409 3.13033806,25.1113395 5.33806447,26.3846628 C7.54579089,27.6579862 10.265822,27.6579862 12.4735484,26.3846628 C14.6812748,25.1113395 16.0412904,22.7581409 16.0412903,20.2114943 C16.0412904,17.6648476 14.6812748,15.311649 12.4735484,14.0383257 C10.265822,12.7650023 7.54579089,12.7650023 5.33806447,14.0383257 C3.13033806,15.311649 1.77032253,17.6648476 1.77032258,20.2114943 Z" id="Shape" fill="#CCDBEB" opacity="0.43432971"></path>
                <path d="M28.9212903,4.27689655 C28.9212903,5.59247691 29.9888746,6.65896552 31.3058065,6.65896552 C32.6227383,6.65896552 33.6903226,5.59247691 33.6903226,4.27689655 C33.6903226,2.96131619 32.6227383,1.89482759 31.3058065,1.89482759 C29.9888746,1.89482759 28.9212903,2.96131619 28.9212903,4.27689655 Z" id="Shape" fill="#D1DBE2" opacity="0.43432971"></path>
                <path d="M49.2980645,35.8212644 L87.323871,35.8212644 L87.323871,37.1747126 L49.2980645,37.1747126 L49.2980645,35.8212644 Z M48.2864516,58.5411494 L86.3122581,58.5411494 L86.3122581,59.8945977 L48.2864516,59.8945977 L48.2864516,58.5411494 Z M48.2864516,47.1721839 L71.0296774,47.1721839 L71.0296774,48.5256322 L48.2864516,48.5256322 L48.2864516,47.1721839 Z M76.123871,48.5256322 L80.7122581,48.5256322 L80.7122581,47.1721839 L76.123871,47.1721839 L76.123871,48.5256322 Z" id="Shape" fill="#B8BFC8"></path>
                <path d="M97.8554839,18.1001149 L39.1096774,18.1001149 C35.876129,18.1001149 33.2567742,20.7167816 33.2567742,23.9470115 L33.2567742,96.527931 C33.2567742,99.7581609 35.876129,102.374828 39.1096774,102.374828 L97.8554839,102.374828 C101.089032,102.374828 103.708387,99.7581609 103.708387,96.527931 L103.708387,23.9470115 C103.708387,20.7167816 101.070968,18.1001149 97.8554839,18.1001149 Z M102.172903,96.527931 C102.172903,98.91 100.221935,100.858966 97.8374194,100.858966 L39.1096774,100.858966 C36.7251613,100.858966 34.7741935,98.928046 34.7741935,96.527931 L34.7741935,23.9470115 C34.7741935,21.5649425 36.7251613,19.615977 39.1096774,19.615977 L97.8554839,19.615977 C100.24,19.615977 102.190968,21.5649425 102.190968,23.9470115 L102.190968,96.527931 L102.172903,96.527931 Z" id="Shape" fill="#B8BFC8"></path>
                <path d="M13.8554839,154.635977 L11.9948387,154.635977 L11.9948387,155.448046 L11.2903226,155.448046 L11.2903226,147.868736 L13.8554839,147.868736 L13.8554839,154.635977 Z M13.1509677,153.95023 L13.1509677,148.572529 L11.9948387,148.572529 L11.9948387,153.95023 L13.1509677,153.95023 Z M19.6903226,150.864368 C19.2206452,152.217816 18.5883871,153.372759 17.8296774,154.311149 C18.6606452,155.087126 19.6180645,155.70069 20.7380645,156.133793 L20.2864516,156.81954 C19.1483871,156.350345 18.1548387,155.682644 17.3419355,154.870575 C16.4929032,155.736782 15.4993548,156.404483 14.3612903,156.837586 L13.9277419,156.205977 C15.0658065,155.772874 16.0232258,155.141264 16.8180645,154.311149 C16.0051613,153.390805 15.3729032,152.271954 14.8851613,150.972644 L15.5174194,150.611724 C15.9509677,151.838851 16.5470968,152.885517 17.3058065,153.751724 C18.0283871,152.867471 18.5883871,151.802759 19.0219355,150.557586 L19.6903226,150.864368 Z M16.5470968,147.020575 L16.5470968,148.301839 L18.3354839,148.301839 L18.3354839,147.020575 L19.04,147.020575 L19.04,148.301839 L20.5212903,148.301839 L20.5212903,149.005632 L19.04,149.005632 L19.04,150.232759 L18.3354839,150.232759 L18.3354839,149.005632 L16.5470968,149.005632 L16.5470968,150.232759 L15.8425806,150.232759 L15.8425806,149.005632 L14.3432258,149.005632 L14.3432258,148.301839 L15.8425806,148.301839 L15.8425806,147.020575 L16.5470968,147.020575 Z M24.9832258,154.960805 L22.7432258,154.960805 L22.7432258,155.845057 L21.9845161,155.845057 L21.9845161,147.977011 L24.9832258,147.977011 L24.9832258,154.960805 Z M24.2245161,154.238966 L24.2245161,148.698851 L22.7251613,148.698851 L22.7251613,154.238966 L24.2245161,154.238966 Z M31.2516129,147.525862 L31.2516129,148.247701 L29.9690323,148.247701 L29.9690323,151.026782 L31.36,151.026782 L31.36,151.748621 L29.9690323,151.748621 L29.9690323,155.827011 C29.9690323,156.476667 29.6077419,156.801494 28.8851613,156.801494 L27.6206452,156.801494 L27.476129,156.079655 C27.8916129,156.115747 28.2709677,156.133793 28.6322581,156.133793 C29.0116129,156.133793 29.2283871,155.953333 29.2283871,155.646552 L29.2283871,151.748621 L28.9212903,151.748621 C28.1625806,153.733678 26.88,155.267586 25.0374194,156.386437 L24.5677419,155.808966 C26.3019355,154.780345 27.5122581,153.426897 28.1987097,151.766667 L25.6877419,151.766667 C25.9406452,150.62977 26.1212903,149.601149 26.2658065,148.716897 L26.9883871,148.807126 C26.843871,149.655287 26.7174194,150.395172 26.5548387,151.044828 L29.2283871,151.044828 L29.2283871,148.265747 L25.5974194,148.265747 L25.5974194,147.543908 L31.2516129,147.543908 L31.2516129,147.525862 Z M35.0270968,154.690115 C35.1535484,154.816437 35.2077419,154.960805 35.2077419,155.141264 C35.2077419,155.33977 35.1354839,155.484138 35.0270968,155.61046 C34.9006452,155.736782 34.7380645,155.79092 34.5574194,155.79092 C34.3767742,155.79092 34.2322581,155.718736 34.0877419,155.61046 C33.9612903,155.484138 33.9070968,155.33977 33.9070968,155.141264 C33.9070968,154.960805 33.9612903,154.816437 34.0877419,154.690115 C34.2141935,154.563793 34.3587097,154.509655 34.5574194,154.509655 C34.7380645,154.509655 34.9006452,154.563793 35.0270968,154.690115 Z M35.0632258,148.103333 L34.8825806,153.715632 L34.2141935,153.715632 L34.0516129,148.103333 L35.0632258,148.103333 Z M47.6180645,150.503448 L47.6180645,147.110805 L48.4309677,147.110805 L48.4309677,150.503448 L52.0619355,150.503448 L52.0619355,156.783448 L51.2851613,156.783448 L51.2851613,156.368391 L43.8967742,156.368391 L43.8967742,155.61046 L51.2851613,155.61046 L51.2851613,153.76977 L44.4567742,153.76977 L44.4567742,153.029885 L51.2851613,153.029885 L51.2851613,151.261379 L43.9690323,151.261379 L43.9690323,150.503448 L47.6180645,150.503448 Z M46.0825806,149.619195 L45.4322581,150.070345 C45.1070968,149.474828 44.6554839,148.807126 44.0593548,148.067241 L44.7096774,147.652184 C45.3058065,148.410115 45.7574194,149.05977 46.0825806,149.619195 Z M52.0980645,147.886782 C51.7548387,148.644713 51.3032258,149.366552 50.7432258,150.052299 L50.0387097,149.691379 C50.5987097,148.987586 51.0503226,148.265747 51.3935484,147.561954 L52.0980645,147.886782 Z M61.4012903,147.182989 C61.1664516,147.616092 60.9316129,147.995057 60.6787097,148.337931 L63.5870968,148.337931 L63.5870968,149.095862 L53.9587097,149.095862 L53.9587097,148.337931 L56.9032258,148.337931 C56.6864516,147.886782 56.4696774,147.48977 56.1987097,147.128851 L57.0116129,146.984483 C57.2464516,147.381494 57.4812903,147.832644 57.716129,148.337931 L59.8116129,148.337931 C60.1187097,147.886782 60.4077419,147.417586 60.6425806,146.912299 L61.4012903,147.182989 Z M56.8309677,156.783448 L56.6322581,156.025517 L57.4451613,156.061609 C57.716129,156.061609 57.8606452,155.881149 57.8606452,155.52023 L57.8606452,154.527701 L55.4580645,154.527701 L55.4580645,156.873678 L54.6993548,156.873678 L54.6993548,149.962069 L58.6012903,149.962069 L58.6012903,155.682644 C58.6012903,156.404483 58.2941935,156.783448 57.68,156.783448 L56.8309677,156.783448 Z M57.8425806,151.92908 L57.8425806,150.683908 L55.44,150.683908 L55.44,151.911034 L57.8425806,151.911034 L57.8425806,151.92908 Z M57.8425806,153.841954 L57.8425806,152.614828 L55.44,152.614828 L55.44,153.841954 L57.8425806,153.841954 Z M60.5522581,150.467356 L60.5522581,155.105172 L59.7935484,155.105172 L59.7935484,150.467356 L60.5522581,150.467356 Z M60.4258065,156.765402 L60.2632258,156.025517 C60.7148387,156.061609 61.1483871,156.079655 61.5819355,156.079655 C61.8890323,156.079655 62.0335484,155.899195 62.0335484,155.592414 L62.0335484,149.691379 L62.8103226,149.691379 L62.8103226,155.79092 C62.8103226,156.440575 62.4851613,156.783448 61.8529032,156.783448 L60.4258065,156.783448 L60.4258065,156.765402 Z M69.8554839,156.63908 C69.1690323,156.621034 68.6270968,156.566897 68.1935484,156.440575 C67.7780645,156.314253 67.4167742,156.043563 67.0735484,155.664598 C66.9290323,155.484138 66.8025806,155.393908 66.6580645,155.393908 C66.4051613,155.393908 65.9716129,155.881149 65.3935484,156.873678 L64.8154839,156.350345 C65.3935484,155.448046 65.8993548,154.906667 66.3329032,154.708161 L66.3329032,151.441839 L64.7974194,151.441839 L64.7974194,150.738046 L67.0554839,150.738046 L67.0554839,154.762299 C67.1458065,154.834483 67.2180645,154.906667 67.3083871,154.996897 C67.5612903,155.303678 67.8322581,155.538276 68.1393548,155.682644 C68.4645161,155.827011 68.9522581,155.917241 69.5664516,155.935287 C70.1264516,155.953333 70.8129032,155.953333 71.643871,155.953333 C72.1677419,155.953333 72.6735484,155.935287 73.1974194,155.935287 C73.7212903,155.917241 74.1367742,155.917241 74.4077419,155.899195 L74.2270968,156.675172 L71.7341935,156.675172 C71.156129,156.657126 70.5419355,156.657126 69.8554839,156.63908 Z M67.3625806,148.843218 L66.8025806,149.384598 C66.3690323,148.861264 65.7548387,148.283793 64.96,147.67023 L65.483871,147.164943 C66.2425806,147.724368 66.8567742,148.283793 67.3625806,148.843218 Z M74.0645161,147.58 L74.0645161,148.337931 L71.6258065,148.337931 C71.4993548,148.662759 71.3729032,148.987586 71.2103226,149.294368 L71.2103226,155.357816 L70.4335484,155.357816 L70.4335484,150.611724 C69.7651613,151.532069 68.9341935,152.38023 67.9225806,153.102069 L67.4348387,152.47046 C69.0425806,151.333563 70.1806452,149.962069 70.8309677,148.337931 L67.8322581,148.337931 L67.8322581,147.58 L74.0645161,147.58 Z M74.4258065,152.632874 L73.7754839,153.084023 C73.1974194,152.10954 72.4387097,151.098966 71.5354839,150.016207 L72.1316129,149.583103 C73.1070968,150.756092 73.883871,151.766667 74.4258065,152.632874 Z M77.7135484,151.351609 L77.1535484,151.892989 C76.72,151.387701 76.123871,150.846322 75.3832258,150.286897 L75.9251613,149.745517 C76.6477419,150.286897 77.2258065,150.81023 77.7135484,151.351609 Z M77.9664516,152.939655 C77.4787097,154.275057 76.9367742,155.538276 76.3225806,156.711264 L75.5458065,156.386437 C76.196129,155.177356 76.7741935,153.932184 77.2619355,152.668966 L77.9664516,152.939655 Z M78.1290323,148.771034 L77.5870968,149.312414 C77.1174194,148.78908 76.4851613,148.265747 75.6903226,147.688276 L76.2322581,147.146897 C76.9909677,147.706322 77.6051613,148.229655 78.1290323,148.771034 Z M78.6167742,152.416322 L78.6167742,151.676437 L84.2890323,151.676437 L84.2890323,152.38023 C83.8554839,153.390805 83.1870968,154.257011 82.283871,154.996897 C83.0967742,155.538276 84.1083871,155.935287 85.3006452,156.224023 L84.9212903,156.927816 C83.6025806,156.566897 82.5187097,156.097701 81.6696774,155.466092 C80.7845161,156.043563 79.7187097,156.512759 78.4722581,156.891724 L78.0929032,156.187931 C79.2490323,155.881149 80.2245161,155.484138 81.0554839,154.978851 C80.2425806,154.275057 79.6645161,153.408851 79.3212903,152.416322 L78.6167742,152.416322 Z M83.44,147.417586 L83.44,149.763563 C83.44,149.998161 83.5664516,150.124483 83.8374194,150.124483 L85.0658065,150.124483 L85.0658065,150.846322 L83.6387097,150.846322 C82.9883871,150.846322 82.6632258,150.53954 82.6632258,149.925977 L82.6632258,148.157471 L80.3870968,148.157471 L80.3870968,148.662759 C80.3870968,149.817701 79.8090323,150.701954 78.6709677,151.315517 L78.1470968,150.72 C79.1225806,150.250805 79.6103226,149.601149 79.6103226,148.734943 L79.6103226,147.417586 L83.44,147.417586 Z M83.44,152.416322 L80.043871,152.416322 C80.4051613,153.246437 80.9470968,153.95023 81.6516129,154.545747 C82.4645161,153.95023 83.0606452,153.228391 83.44,152.416322 Z M89.4193548,154.527701 L89.4193548,156.81954 L88.6967742,156.81954 L88.6967742,151.207241 C88.1006452,151.965172 87.396129,152.65092 86.6193548,153.282529 L86.1135484,152.632874 C87.4683871,151.550115 88.516129,150.341034 89.2567742,148.951494 L86.4025806,148.951494 L86.4025806,148.193563 L89.6,148.193563 C89.7806452,147.778506 89.9432258,147.363448 90.0696774,146.930345 L90.8464516,147.020575 C90.72,147.417586 90.5935484,147.796552 90.4309677,148.175517 L95.7780645,148.175517 L95.7780645,148.933448 L90.1058065,148.933448 C89.8890323,149.366552 89.6722581,149.781609 89.4012903,150.178621 L94.3870968,150.178621 L94.3870968,155.989425 C94.3870968,156.512759 94.08,156.783448 93.483871,156.801494 L92.3096774,156.801494 L92.1109677,156.097701 C92.5264516,156.115747 92.9058065,156.133793 93.2670968,156.133793 C93.5380645,156.133793 93.6825806,156.007471 93.6825806,155.754828 L93.6825806,154.527701 L89.4193548,154.527701 Z M89.4193548,152.037356 L93.6825806,152.037356 L93.6825806,150.864368 L89.4193548,150.864368 L89.4193548,152.037356 Z M89.4193548,152.723103 L89.4193548,153.86 L93.6825806,153.86 L93.6825806,152.723103 L89.4193548,152.723103 Z M99.6619355,152.091494 L99.4451613,152.687011 L101.685161,152.687011 L101.685161,153.318621 C101.450323,154.022414 101.052903,154.635977 100.492903,155.15931 C101.016774,155.393908 101.504516,155.628506 101.974194,155.881149 L101.55871,156.476667 C101.089032,156.205977 100.529032,155.899195 99.8967742,155.628506 C99.1922581,156.115747 98.2890323,156.512759 97.2232258,156.81954 L96.8619355,156.169885 C97.7470968,155.935287 98.5058065,155.646552 99.1380645,155.285632 C98.6683871,155.087126 98.1625806,154.870575 97.6387097,154.690115 C97.9096774,154.22092 98.1625806,153.76977 98.3793548,153.354713 L97.1148387,153.354713 L97.1148387,152.668966 L98.6864516,152.668966 C98.7767742,152.434368 98.8670968,152.19977 98.9393548,151.983218 L99.6619355,152.091494 Z M99.2283871,149.05977 L99.2283871,147.002529 L99.9509677,147.002529 L99.9509677,149.05977 L101.901935,149.05977 L101.901935,149.745517 L99.9509677,149.745517 L99.9509677,149.871839 C100.529032,150.160575 101.143226,150.503448 101.739355,150.864368 L101.341935,151.459885 C100.8,151.026782 100.348387,150.683908 99.9509677,150.431264 L99.9509677,151.820805 L99.2283871,151.820805 L99.2283871,149.781609 C98.8670968,150.62977 98.2348387,151.369655 97.2954839,151.983218 L96.916129,151.351609 C97.7470968,150.864368 98.3251613,150.322989 98.6503226,149.745517 L97.1148387,149.745517 L97.1148387,149.05977 L99.2283871,149.05977 Z M98.6322581,148.554483 L98.0722581,148.807126 C97.8374194,148.283793 97.6025806,147.814598 97.3496774,147.417586 L97.963871,147.21908 C98.2167742,147.634138 98.4335484,148.085287 98.6322581,148.554483 Z M100.99871,153.354713 L99.156129,153.354713 C98.9754839,153.715632 98.7948387,154.058506 98.5780645,154.383333 C99.0116129,154.527701 99.4090323,154.690115 99.8064516,154.852529 C100.330323,154.419425 100.727742,153.914138 100.99871,153.354713 Z M101.793548,147.435632 C101.576774,147.904828 101.305806,148.374023 100.962581,148.825172 L100.420645,148.554483 C100.763871,148.085287 101.052903,147.634138 101.233548,147.182989 L101.793548,147.435632 Z M102.967742,151.117011 C102.769032,151.604253 102.552258,152.055402 102.335484,152.434368 L101.847742,151.838851 C102.48,150.62977 102.913548,149.005632 103.130323,146.966437 L103.889032,147.092759 C103.816774,147.634138 103.744516,148.157471 103.654194,148.626667 L106.490323,148.626667 L106.490323,149.366552 L105.785806,149.366552 C105.731613,151.153103 105.406452,152.705057 104.792258,153.968276 C105.352258,154.942759 106.002581,155.682644 106.779355,156.205977 L106.363871,156.837586 C105.605161,156.296207 104.972903,155.574368 104.430968,154.672069 C103.907097,155.538276 103.256774,156.260115 102.443871,156.837586 L102.046452,156.187931 C102.877419,155.61046 103.545806,154.870575 104.033548,153.95023 C103.618065,153.138161 103.256774,152.19977 102.967742,151.117011 Z M103.347097,149.944023 C103.618065,151.207241 103.96129,152.29 104.394839,153.192299 C104.810323,152.10954 105.045161,150.846322 105.08129,149.384598 L103.491613,149.384598 L103.347097,149.944023 Z M108.025806,156.765402 L107.863226,156.043563 C108.134194,156.079655 108.423226,156.097701 108.676129,156.097701 C108.947097,156.097701 109.091613,155.935287 109.091613,155.628506 L109.091613,152.993793 C108.658065,153.156207 108.242581,153.300575 107.827097,153.426897 L107.628387,152.668966 C108.116129,152.542644 108.621935,152.398276 109.091613,152.235862 L109.091613,149.799655 L107.809032,149.799655 L107.809032,149.05977 L109.091613,149.05977 L109.091613,147.020575 L109.850323,147.020575 L109.850323,149.05977 L110.88,149.05977 L110.88,149.799655 L109.832258,149.799655 L109.832258,151.911034 C110.175484,151.766667 110.51871,151.604253 110.825806,151.423793 L110.825806,152.181724 C110.500645,152.362184 110.157419,152.506552 109.832258,152.65092 L109.832258,155.79092 C109.832258,156.422529 109.525161,156.72931 108.929032,156.72931 L108.025806,156.72931 L108.025806,156.765402 Z M110.898065,156.855632 L110.301935,156.314253 C111.060645,154.888621 111.458065,153.047931 111.458065,150.792184 L111.458065,147.435632 L117.130323,147.435632 L117.130323,150.052299 L115.107097,150.052299 L115.107097,151.315517 L117.40129,151.315517 L117.40129,152.01931 L115.107097,152.01931 L115.107097,153.336667 L116.913548,153.336667 L116.913548,156.855632 L116.190968,156.855632 L116.190968,156.332299 L113.264516,156.332299 L113.264516,156.855632 L112.541935,156.855632 L112.541935,153.336667 L114.330323,153.336667 L114.330323,152.01931 L112.144516,152.01931 C112.018065,153.841954 111.602581,155.466092 110.898065,156.855632 Z M112.19871,150.052299 L112.19871,150.81023 C112.19871,150.99069 112.180645,151.153103 112.180645,151.333563 L114.348387,151.333563 L114.348387,150.070345 L112.19871,150.070345 L112.19871,150.052299 Z M112.19871,148.157471 L112.19871,149.348506 L116.353548,149.348506 L116.353548,148.157471 L112.19871,148.157471 Z M116.172903,155.646552 L116.172903,154.022414 L113.264516,154.022414 L113.264516,155.646552 L116.172903,155.646552 Z M122.730323,151.153103 C123.055484,151.333563 123.39871,151.532069 123.76,151.748621 C124.356129,152.091494 124.861935,152.271954 125.277419,152.271954 C125.765161,152.271954 126.307097,151.856897 126.885161,151.026782 L127.463226,151.495977 C126.776774,152.506552 126.036129,153.029885 125.277419,153.029885 C124.789677,153.029885 124.229677,152.849425 123.597419,152.506552 C123.236129,152.29 122.892903,152.091494 122.567742,151.911034 C122.134194,151.676437 121.754839,151.586207 121.411613,151.586207 C120.851613,151.586207 120.291613,151.983218 119.731613,152.777241 L119.153548,152.308046 C119.858065,151.315517 120.59871,150.81023 121.429677,150.81023 C121.827097,150.81023 122.260645,150.918506 122.730323,151.153103 Z" id="Shape" fill="#999999"></path>
            </g>
        </g>
    </g>
</svg>