<?xml version="1.0" encoding="UTF-8"?>
<svg width="241px" height="204px" viewBox="0 0 241 204" version="1.1" xmlns="http://www.w3.org/2000/svg" xmlns:xlink="http://www.w3.org/1999/xlink">
    <!-- Generator: Sketch 49.2 (51160) - http://www.bohemiancoding.com/sketch -->
    <title>Group 4@2x</title>
    <desc>Created with Sketch.</desc>
    <defs></defs>
    <g id="Page-1" stroke="none" stroke-width="1" fill="none" fill-rule="evenodd">
        <g id="购物车-缺省页" transform="translate(-64.000000, -235.000000)">
            <g id="Group-4" transform="translate(64.000000, 235.000000)">
                <g id="购物车空" transform="translate(51.000000, 7.000000)" fill="#D7D7D7" fill-rule="nonzero" stroke="#D7D7D7" stroke-width="1.3">
                    <path d="M117.943794,107.236005 L117.867681,107.236005 L43.2014052,104.850957 C37.6147541,104.66866 32.8653396,100.551794 31.9215457,95.052512 L17.6885246,12.9886364 C17.0644028,9.35789474 13.9133489,6.7145933 10.2295082,6.7145933 L2.16159251,6.7145933 C0.989461358,6.7145933 0.0304449649,5.75753589 0.0304449649,4.58779904 C0.0304449649,3.4180622 0.989461358,2.46100478 2.16159251,2.46100478 L10.2295082,2.46100478 C15.998829,2.46100478 20.9156909,6.57787081 21.8899297,12.2594498 L36.1229508,94.3385167 C36.7318501,97.8477273 39.7763466,100.491029 43.3384075,100.597368 L118.004684,102.982416 C119.176815,103.012799 120.105386,104.000239 120.059719,105.169976 C120.029274,106.324522 119.08548,107.236005 117.943794,107.236005 Z" id="Shape"></path>
                    <path d="M32.8957845,90.3583732 C31.8302108,90.3583732 30.9168618,89.5684211 30.7798595,88.4898325 C30.6428571,87.3200957 31.4648712,86.2566986 32.6370023,86.1199761 L110.74356,76.7165072 C113.985948,76.3215311 116.604215,73.9212919 117.258782,70.7311005 L125.76815,29.319378 C126.01171,28.1648325 127.138173,27.4204545 128.279859,27.6635167 C129.436768,27.9065789 130.18267,29.0307416 129.93911,30.1700957 L121.429742,71.5818182 C120.409836,76.5645933 116.314988,80.3320574 111.245902,80.9397129 L33.1393443,90.3431818 C33.0632319,90.3583732 32.971897,90.3583732 32.8957845,90.3583732 Z M41.3899297,126.969617 C36.3512881,126.969617 32.2564403,122.883134 32.2564403,117.854785 C32.2564403,112.826435 36.3512881,108.739952 41.3899297,108.739952 C46.4285714,108.739952 50.5234192,112.826435 50.5234192,117.854785 C50.5234192,122.883134 46.4285714,126.969617 41.3899297,126.969617 Z M41.3899297,112.993541 C38.6955504,112.993541 36.5187354,115.1811 36.5187354,117.854785 C36.5187354,120.528469 38.7107728,122.716029 41.3899297,122.716029 C44.0843091,122.716029 46.2611241,120.528469 46.2611241,117.854785 C46.2611241,115.1811 44.0843091,112.993541 41.3899297,112.993541 Z M106.740047,126.969617 C101.701405,126.969617 97.6065574,122.883134 97.6065574,117.854785 C97.6065574,112.826435 101.701405,108.739952 106.740047,108.739952 C111.778689,108.739952 115.873536,112.826435 115.873536,117.854785 C115.873536,122.883134 111.778689,126.969617 106.740047,126.969617 Z M106.740047,112.993541 C104.045667,112.993541 101.868852,115.1811 101.868852,117.854785 C101.868852,120.528469 104.06089,122.716029 106.740047,122.716029 C109.419204,122.716029 111.611241,120.528469 111.611241,117.854785 C111.611241,115.1811 109.434426,112.993541 106.740047,112.993541 Z" id="Shape"></path>
                    <path d="M69.1861827,53.6407895 L54.4203747,53.6407895 C52.8981265,53.6407895 51.6651054,52.4102871 51.6651054,50.8911483 C51.6651054,50.2683014 51.9238876,49.7214115 52.1217799,49.3720096 L52.2587822,49.1593301 L62.2447307,39.041866 L53.8875878,39.041866 C52.7154567,39.041866 51.7564403,38.0848086 51.7564403,36.9150718 C51.7564403,35.7453349 52.7154567,34.7882775 53.8875878,34.7882775 L67.4051522,34.7882775 C68.3946136,34.7882775 69.2318501,35.4111244 69.4906323,36.3529904 C69.5971897,36.7175837 69.8103044,37.9632775 68.440281,38.8291866 L58.028103,49.387201 L69.1861827,49.387201 C70.3583138,49.387201 71.3173302,50.3442584 71.3173302,51.5139952 C71.3173302,52.6837321 70.3735363,53.6407895 69.1861827,53.6407895 Z" id="Shape"></path>
                    <path d="M94.881733,37.8113636 L80.1159251,37.8113636 C78.5936768,37.8113636 77.3606557,36.5808612 77.3606557,35.0617225 C77.3606557,34.3933014 77.6194379,33.7400718 78.0761124,33.238756 L78.1674473,33.1476077 L88.2903981,23.2276316 L79.5831382,23.2276316 C78.411007,23.2276316 77.4519906,22.2705742 77.4519906,21.1008373 C77.4519906,19.9311005 78.411007,18.9740431 79.5831382,18.9740431 L93.1007026,18.9740431 C94.029274,18.9740431 94.8512881,19.520933 95.2166276,20.3716507 C95.5667447,21.2223684 95.3840749,22.1946172 94.7295082,22.8630383 L94.6990632,22.8934211 L83.8149883,33.5729665 L94.8665105,33.5729665 C96.0386417,33.5729665 96.9976581,34.5300239 96.9976581,35.6997608 C96.9976581,36.8694976 96.0690867,37.8113636 94.881733,37.8113636 Z" id="Shape"></path>
                    <path d="M124.002342,22.7263158 L105.430913,22.7263158 C103.832553,22.7263158 102.523419,21.4198565 102.523419,19.8247608 C102.523419,19.1715311 102.797424,18.579067 103.025761,18.1992823 L103.162763,17.9714115 L116.969555,4.35992823 L105.126464,4.35992823 C103.954333,4.35992823 102.995316,3.40287081 102.995316,2.23313397 C102.995316,1.06339713 103.954333,0.106339713 105.126464,0.106339713 L121.673302,0.106339713 C122.617096,0.106339713 123.454333,0.668421053 123.819672,1.53433014 C124.185012,2.40023923 123.987119,3.40287081 123.332553,4.07129187 L123.31733,4.08648325 L108.734192,18.4727273 L124.017564,18.4727273 C125.189696,18.4727273 126.148712,19.4297847 126.148712,20.5995215 C126.148712,21.7692584 125.174473,22.7263158 124.002342,22.7263158 Z" id="Shape"></path>
                </g>
                <path d="M24.4009869,22.1100798 C23.2117988,22.1100798 22.41891,21.3189702 22.41891,20.1324507 L22.41891,16.5728919 C22.41891,15.3863723 23.2115086,14.5955524 24.4009869,14.5955524 C25.5901749,14.5955524 26.3830637,15.3863724 26.3830637,16.5728919 L26.3830637,20.1324507 C26.3830637,21.1214102 25.3918801,22.11008 24.4009869,22.1100798 Z M33.3198971,13.4090328 L29.7523329,13.4090328 C28.5631449,13.4090328 27.7702561,12.6179232 27.7702561,11.4314036 C27.7702561,10.244884 28.5628546,9.45377437 29.7523329,9.45377437 L33.3198971,9.45377437 C34.5090851,9.45377437 35.3019739,10.244884 35.3019739,11.4314036 C35.3019739,12.6179232 34.5087948,13.4090328 33.3198971,13.4090328 Z M24.5989913,7.87184475 C23.4098032,7.87184475 22.6169145,7.08073514 22.6169146,5.89421552 L22.6169146,2.33465683 C22.6169146,1.14813722 23.4095131,0.357317368 24.5989913,0.357317214 C25.7884694,0.357317061 26.5810681,1.14813722 26.5810681,2.33465683 L26.5810681,5.89421552 C26.5810681,7.08073514 25.5901749,7.87184475 24.5989913,7.87184475 Z M19.0496409,13.0133331 L15.4820768,13.0133331 C14.2928888,13.0133331 13.5,12.2225131 13.5,11.0359936 C13.5,9.84947413 14.2928888,9.05836437 15.4820768,9.05836437 L19.0496409,9.05836437 C20.238829,9.05836437 21.0317177,9.84947398 21.0317176,11.0359936 C21.0317174,12.2225132 20.2388288,13.0133331 19.0496409,13.0133331 Z M218.832937,60.6719666 C218.238343,60.6719666 217.842043,60.4741167 217.446034,60.0787067 C216.653146,59.2875971 216.653146,58.1010775 217.446034,57.3102577 L220.022415,54.7393687 C220.815014,53.9482591 222.004201,53.9482591 222.797381,54.7393687 C223.589979,55.5304783 223.589979,56.7169979 222.797381,57.5078178 L220.22071,60.0787067 C219.82412,60.4741167 219.229526,60.6719665 218.832937,60.6719666 Z M231.319701,60.8698163 C230.724817,60.8698163 230.328808,60.6719665 229.932509,60.2765566 L227.355838,57.7056677 C226.562949,56.914558 226.562949,55.7280384 227.355838,54.9372184 C228.148436,54.1461088 229.337915,54.1461088 230.130513,54.9372184 L232.707184,57.5078178 C233.500073,58.2989274 233.500073,59.485447 232.707184,60.2765566 C232.310594,60.6719666 231.914295,60.8698163 231.319701,60.8698163 Z M228.941325,50.7843998 C228.346731,50.7843998 227.950432,50.58655 227.554133,50.1911401 C226.761534,49.4000305 226.761534,48.2135109 227.554133,47.4224013 L230.130513,44.8518019 C230.923402,44.0606923 232.11259,44.0606923 232.905769,44.8518019 C233.698077,45.6426219 233.698077,46.8291414 232.905769,47.6202512 L230.329098,50.1911401 C229.932509,50.5865501 229.535629,50.7843998 228.941325,50.7843998 Z M221.409607,50.5865501 C220.815014,50.5865501 220.418714,50.3887002 220.022415,49.9932902 L217.446034,47.4224013 C216.653146,46.6315813 216.653146,45.4450618 217.446034,44.653952 C218.238343,43.8628424 219.427531,43.8628424 220.22071,44.653952 L222.797381,47.2248412 C223.589979,48.0156612 223.589979,49.2021806 222.797381,49.9932902 C222.400501,50.58655 221.805907,50.58655 221.409607,50.5865501 Z M41.2479139,61.4630762 C36.887461,61.4630762 33.3198971,57.9035174 33.3198971,53.5528491 C33.3198971,49.2021808 36.8874612,45.6426219 41.2479139,45.6426219 C45.6083666,45.6426219 49.1759308,49.2021808 49.1759308,53.5528491 C49.1759308,57.9035174 45.6083666,61.4630762 41.2479139,61.4630762 Z M41.2479139,49.5978802 C39.0678327,49.5978802 37.2840507,51.3776596 37.2840505,53.5528491 C37.2840504,55.7280386 39.0678325,57.5078178 41.2479139,57.5078178 C43.4279953,57.5078178 45.2117771,55.7280384 45.2117771,53.5528491 C45.2117771,51.3776597 43.4279951,49.5978804 41.2479139,49.5978802 Z" id="Shape" fill="#D7D7D7" fill-rule="nonzero"></path>
                <path d="M200.636681,150 L173.363518,150 C172.545128,150 172,149.400308 172,148.50022 C172,147.599912 172.545128,147 173.363518,147 L200.636681,147 C201.454872,147 202,147.599912 202,148.50022 C202,149.400308 201.318241,150 200.636681,150 Z" id="Path" fill="#D8D8D8"></path>
                <path d="M169.571279,150 L167.428302,150 C166.571112,150 166,149.400308 166,148.50022 C166,147.599912 166.571112,147 167.428302,147 L169.571279,147 C170.428679,147 171,147.599912 171,148.50022 C171,149.400308 170.285744,150 169.571279,150 Z" id="Path" fill="#D8D8D8"></path>
                <path d="M161.67482,150 L153.325374,150 C152.529994,150 152,149.400308 152,148.50022 C152,147.599912 152.529994,147 153.325374,147 L161.67482,147 C162.470006,147 163,147.599912 163,148.50022 C163,149.400308 162.469812,150 161.67482,150 Z" id="Path" fill="#D8D8D8"></path>
                <path d="M144.653159,150 L86.3464468,150 C85.5384998,150 85,149.400308 85,148.50022 C85,147.599912 85.5384999,147 86.3464468,147 L144.653356,147 C145.461303,147 146,147.599912 146,148.50022 C146,149.400308 145.326382,150 144.653159,150 Z" id="Path" fill="#D8D8D8"></path>
                <path d="M78.6513006,150 L52.348897,150 C51.5395983,150 51,149.400308 51,148.50022 C51,147.599912 51.5395983,147 52.348897,147 L78.6513006,147 C79.4605992,147 79.9999999,147.599912 80,148.50022 C80,149.400308 79.3256503,150 78.6513006,150 Z" id="Path" fill="#D8D8D8"></path>
                <path d="M65.4976077,58.6580645 C65.4976077,62.3245226 68.1292736,65.2967742 71.3755981,65.2967742 L109.162679,65.2967742 C113.491112,65.2967742 117,69.2597763 117,74.1483871 C117,79.0369979 113.491112,83 109.162679,83 L29.6698565,83 C25.3414238,83 21.8325359,79.0369979 21.8325359,74.1483871 C21.8325359,69.2597763 25.3414238,65.2967742 29.6698565,65.2967742 L43.9449761,65.2967742 C47.1913006,65.2967742 49.8229665,62.3245226 49.8229665,58.6580645 C49.8229665,54.9916064 47.1913006,52.0193548 43.9449761,52.0193548 L7.83732057,51.7032258 C3.50888794,51.7032258 0,47.7402237 0,42.8516129 C0,37.9630021 3.50888794,34 7.83732057,34 L84.5311005,34.316129 C88.8595331,34.316129 92.3684211,38.2791311 92.3684211,43.1677419 C92.3684211,48.0563528 88.8595331,52.0193548 84.5311005,52.0193548 L71.3755981,52.0193548 C68.1292736,52.0193548 65.4976077,54.9916064 65.4976077,58.6580645 Z" id="、、" fill-opacity="0.875452899" fill="#D7D7D7" opacity="0.29127038"></path>
                <path d="M189.497608,101.658065 C189.497608,105.324523 192.129274,108.296774 195.375598,108.296774 L233.162679,108.296774 C237.491112,108.296774 241,112.259776 241,117.148387 C241,122.036998 237.491112,126 233.162679,126 L153.669856,126 C149.341424,126 145.832536,122.036998 145.832536,117.148387 C145.832536,112.259776 149.341424,108.296774 153.669856,108.296774 L167.944976,108.296774 C171.191301,108.296774 173.822967,105.324523 173.822967,101.658065 C173.822967,97.9916064 171.191301,95.0193548 167.944976,95.0193548 L131.837321,94.7032258 C127.508888,94.7032258 124,90.7402237 124,85.8516129 C124,80.9630021 127.508888,77 131.837321,77 L208.5311,77.316129 C212.859533,77.316129 216.368421,81.2791311 216.368421,86.1677419 C216.368421,91.0563528 212.859533,95.0193548 208.5311,95.0193548 L195.375598,95.0193548 C192.129274,95.0193548 189.497608,97.9916064 189.497608,101.658065 Z" id="、、-copy" fill-opacity="0.875452899" fill="#D7D7D7" opacity="0.29127038"></path>
                <text id="您的购物车空空如也~" font-family="PingFang-SC-Medium, PingFang SC" font-size="18" font-weight="400" fill="#CFCFCF">
                    <tspan x="38" y="202">您的购物车空空如也~</tspan>
                </text>
            </g>
        </g>
    </g>
</svg>