<?xml version="1.0" encoding="UTF-8"?>
<svg width="24px" height="24px" viewBox="0 0 24 24" version="1.1" xmlns="http://www.w3.org/2000/svg" xmlns:xlink="http://www.w3.org/1999/xlink">
    <!-- Generator: Sketch 49.2 (51160) - http://www.bohemiancoding.com/sketch -->
    <title>icon/24/防伪查询@2x</title>
    <desc>Created with Sketch.</desc>
    <defs></defs>
    <g id="icon/24/防伪查询" stroke="none" stroke-width="1" fill="none" fill-rule="evenodd">
        <g id="防伪查询" transform="translate(1.000000, 0.000000)" fill="#73A8F5">
            <path d="M5.40029161,11.8255862 C5.17520324,11.3674828 4.72519588,11.2528621 4.27518851,11.4818276 C3.82518115,11.7109655 3.71268778,12.169069 3.93764065,12.6271724 C4.61260088,14.0015172 5.6252106,15.2613448 6.86280707,16.063069 C6.97526657,16.1776897 7.20032106,16.1776897 7.31281443,16.1776897 C7.53773343,16.1776897 7.87541679,16.063069 7.98787629,15.833931 C8.21282916,15.4904483 8.21282916,14.9178621 7.7628218,14.6887241 C6.7503137,13.8868966 5.96275847,12.9707931 5.40029161,11.8255862 Z" id="Fill-1"></path>
            <path d="M22.7259647,22.7057241 L18.1132283,18.1246207 C19.9134271,16.1776897 20.9259352,13.6580345 20.9259352,10.7946207 C20.9259352,8.84782759 20.3634345,6.90075862 19.3508247,5.18282759 C19.1258719,4.72468966 18.5632695,4.6102069 18.2258571,4.95368966 C17.7758159,5.18282759 17.6633564,5.75541379 18.0007688,6.09903448 C18.900919,7.47334483 19.3508247,9.19131034 19.3508247,10.7946207 C19.3508247,15.7194483 15.4131502,19.727931 10.5753594,19.727931 C5.73770398,19.727931 1.80006333,15.7194483 1.80006333,10.7946207 C1.68756996,5.86989655 5.6252106,1.86141379 10.4630353,1.86141379 C10.9130427,1.86141379 11.3629146,1.51793103 11.3629146,0.945344828 C11.3629146,0.487103448 11.0255022,0.029 10.4630353,0.029 C4.72519588,0.029 0,4.8392069 0,10.6802414 C0,16.5211724 4.72519588,21.3313793 10.4630353,21.3313793 C12.8255655,21.3313793 15.0756362,20.5297931 16.8756657,19.0408276 L21.4884021,23.7364138 C21.6008616,23.850931 21.8259499,23.9655517 22.0508689,23.9655517 C22.2759573,23.9655517 22.5010457,23.850931 22.6133697,23.7364138 C23.0635125,23.622069 23.0635125,23.0493103 22.7259647,22.7057241 Z" id="Fill-3"></path>
        </g>
    </g>
</svg>