<?xml version="1.0" encoding="UTF-8"?>
<svg width="18px" height="18px" viewBox="0 0 18 18" version="1.1" xmlns="http://www.w3.org/2000/svg" xmlns:xlink="http://www.w3.org/1999/xlink">
    <!-- Generator: Sketch 49.2 (51160) - http://www.bohemiancoding.com/sketch -->
    <title>对@2x</title>
    <desc>Created with Sketch.</desc>
    <defs></defs>
    <g id="Page-1" stroke="none" stroke-width="1" fill="none" fill-rule="evenodd">
        <g id="我的物流" transform="translate(-289.000000, -116.000000)" fill="#2290EF" fill-rule="nonzero">
            <g id="对" transform="translate(289.000000, 116.000000)">
                <path d="M8.99121951,18 C7.7777561,18 6.59941463,17.7626953 5.49131707,17.2933594 C4.42009756,16.8398438 3.4595122,16.1912109 2.63414634,15.3650391 C1.80878049,14.5388672 1.16078049,13.5755859 0.707707317,12.5050781 C0.237073171,11.3923828 0,10.2146484 0,9 C0,7.78535156 0.237073171,6.60585938 0.70595122,5.49667969 C1.15902439,4.42441406 1.80878049,3.46289062 2.63414634,2.63496094 C3.4595122,1.80878906 4.42185366,1.16015625 5.49131707,0.706640625 C6.59941463,0.237304688 7.7777561,0 8.99121951,0 C10.782439,0 12.510439,0.525585937 13.9925854,1.52050781 C14.2507317,1.69277344 14.3192195,2.04257812 14.147122,2.30097656 C13.9750244,2.559375 13.625561,2.62792969 13.3674146,2.45566406 C12.0714146,1.58554688 10.5594146,1.12675781 8.99121951,1.12675781 C4.65365854,1.12675781 1.12390244,4.65996094 1.12390244,9.00175781 C1.12390244,13.3435547 4.65365854,16.8767578 8.99121951,16.8767578 C13.3287805,16.8767578 16.8585366,13.3435547 16.8585366,9.00175781 C16.8585366,8.72226563 16.8444878,8.44101563 16.8146341,8.16328125 C16.7812683,7.85390625 17.0060488,7.57792969 17.315122,7.54453125 C17.6241951,7.51113281 17.8999024,7.73613281 17.9332683,8.04550781 C17.9666341,8.36015625 17.9841951,8.68359375 17.9841951,9.00175781 C17.9841951,10.2164063 17.747122,11.3958984 17.2782439,12.5050781 C16.8251707,13.5773438 16.1771707,14.5388672 15.3518049,15.3650391 C14.526439,16.1912109 13.5640976,16.8398438 12.4946341,17.2933594 C11.3830244,17.7609375 10.2046829,18 8.99121951,18 Z" id="Shape"></path>
                <path d="M8.06926829,13.6986328 C7.92526829,13.6986328 7.78126829,13.6441406 7.67239024,13.5333984 L4.02321951,9.88242187 C3.80370732,9.66269531 3.80370732,9.30585938 4.02321951,9.08613281 C4.24273171,8.86640625 4.59921951,8.86640625 4.81873171,9.08613281 L8.07102439,12.3416016 L15.7732683,4.63007812 C15.9927805,4.41035156 16.3492683,4.41035156 16.5687805,4.63007812 C16.7882927,4.84980469 16.7882927,5.20664062 16.5687805,5.42636719 L8.46790244,13.5351562 C8.35726829,13.6441406 8.21326829,13.6986328 8.06926829,13.6986328 Z" id="Shape"></path>
            </g>
        </g>
    </g>
</svg>