<?xml version="1.0" encoding="UTF-8"?>
<svg width="60px" height="60px" viewBox="0 0 60 60" version="1.1" xmlns="http://www.w3.org/2000/svg" xmlns:xlink="http://www.w3.org/1999/xlink">
    <!-- Generator: Sketch 49.2 (51160) - http://www.bohemiancoding.com/sketch -->
    <title>支付成功@2x</title>
    <desc>Created with Sketch.</desc>
    <defs></defs>
    <g id="Page-1" stroke="none" stroke-width="1" fill="none" fill-rule="evenodd">
        <g id="支付成功页" transform="translate(-158.000000, -102.000000)" fill="#228EEC" fill-rule="nonzero">
            <g id="支付成功" transform="translate(158.000000, 102.000000)">
                <path d="M29.0242545,48.8842105 L8.62568588,27.8347567 L13.8780119,23.563853 L25.6652087,32.9598411 C30.4900199,27.1026018 41.2389662,15.510149 56.079841,6.2971996 L57.3013121,9.22581927 C43.6819085,21.9165045 32.5665209,39.793287 29.0242545,48.8842105 Z M54.7972962,25.8823436 C55.0415905,27.2246276 55.102664,28.6279245 55.102664,29.9702085 C55.102664,43.8811519 43.8040557,55.1685402 29.8792843,55.1685402 C15.9545129,55.1685402 4.65590457,43.8811519 4.65590457,29.9702085 C4.65590457,16.0592651 15.9545129,4.77187686 29.8792843,4.77187686 C33.23833,4.77187686 36.4752286,5.44301887 39.3456859,6.60226415 L39.3456859,1.53819265 C36.292008,0.500973188 33.1161829,0.0128699106 29.8792843,0.0128699106 C25.8484294,0.0128699106 21.9397217,0.806037736 18.2142346,2.39237339 C14.7330417,3.91769613 11.4961431,6.11416087 8.80890656,8.85974181 C6.06059642,11.6053227 3.92302187,14.777994 2.3961829,18.3777557 C0.808270378,22.0385303 0.0143141153,26.0043694 0.0143141153,30.0312214 C0.0143141153,34.0580735 0.808270378,37.9628997 2.3961829,41.6846872 C3.92302187,45.2234359 6.06059642,48.4571202 8.80890656,51.2027011 C11.5572167,53.948282 14.7330417,56.0837339 18.3363817,57.6090566 C22.0007952,59.1953923 25.9705765,59.9885601 30.0014314,59.9885601 C34.0322863,59.9885601 37.940994,59.1953923 41.6664811,57.6090566 C45.2087475,56.0837339 48.4456461,53.948282 51.1939563,51.2027011 C53.9422664,48.4571202 56.079841,45.2844489 57.6066799,41.6846872 C59.1945924,38.0239126 59.9885487,34.0580735 59.9885487,30.0312214 C59.9885487,28.6279245 59.8664016,27.2856405 59.6831809,25.9433565 L54.7972962,25.9433565 L54.7972962,25.8823436 Z" id="Shape"></path>
            </g>
        </g>
    </g>
</svg>