<?xml version="1.0" encoding="UTF-8"?>
<svg width="36px" height="36px" viewBox="0 0 36 36" version="1.1" xmlns="http://www.w3.org/2000/svg" xmlns:xlink="http://www.w3.org/1999/xlink">
    <!-- Generator: Sketch 49.2 (51160) - http://www.bohemiancoding.com/sketch -->
    <title>icon/36/团队订单@2x</title>
    <desc>Created with Sketch.</desc>
    <defs></defs>
    <g id="icon/36/团队订单" stroke="none" stroke-width="1" fill="none" fill-rule="evenodd">
        <g id="团队订单-copy" transform="translate(3.000000, 0.000000)" fill="#9B9B9B" fill-rule="nonzero">
            <path d="M29.5203322,6.67222563 C29.5203322,5.99685161 28.9713256,5.44749492 28.2934302,5.44749492 L6.64210167,5.44749492 C5.96519018,5.44749492 5.41519959,5.99882062 5.41519959,6.67616364 L5.41519959,33.2618771 C5.41519959,33.9411892 5.96617404,34.4905459 6.64505331,34.4905459 L24.9059211,34.4905459 L29.5203322,29.9558919 L29.5203322,6.67222563 Z M3.93937516,6.67616364 C3.93937508,5.18237809 5.14926791,3.97127323 6.64210167,3.97072964 L28.2934302,3.97072964 C29.7851775,3.97018564 30.9950703,5.17952763 30.9961567,6.67222563 L30.9961567,30.5761333 L25.5100253,35.9673112 L6.64505331,35.9673112 C5.15113249,35.9678552 3.93947765,34.7567501 3.93839127,33.2618771 L3.93839127,6.67616364 L3.93937516,6.67616364 Z" id="Shape"></path>
            <path d="M23.125093,28.0912296 L28.2904786,28.0912296 L28.2904786,26.6144643 L21.6492685,26.6144643 L21.6492685,33.2599081 L23.125093,33.2599081 L23.125093,28.0912296 Z M9.10476072,11.1084286 L15.0080585,11.1084286 C15.2717277,11.1084865 15.5153929,10.9677642 15.6472442,10.739284 C15.7790955,10.5108039 15.7790955,10.229288 15.6472442,10.0008078 C15.5153929,9.77232765 15.2717277,9.63160538 15.0080585,9.63166329 L9.10476072,9.63166329 C8.69728631,9.63175279 8.36701045,9.96231174 8.36701045,10.3700459 C8.36701045,10.7777801 8.69728631,11.1083391 9.10476072,11.1084286 Z M9.10476072,20.9535306 L25.8307712,20.9535306 C26.0944404,20.9535885 26.3381055,20.8128662 26.4699569,20.5843861 C26.6018082,20.3559059 26.6018082,20.07439 26.4699569,19.8459098 C26.3381055,19.6174297 26.0944404,19.4767074 25.8307712,19.4767653 L9.10476072,19.4767653 C8.8410915,19.4767074 8.59742633,19.6174297 8.46557501,19.8459098 C8.33372369,20.07439 8.33372369,20.3559059 8.46557501,20.5843861 C8.59742633,20.8128662 8.8410915,20.9535885 9.10476072,20.9535306 Z M9.10476072,16.0309796 L25.8307712,16.0309796 C26.2383088,16.0309796 26.5686834,15.7003944 26.5686834,15.2925969 C26.5686834,14.8847995 26.2383088,14.5542143 25.8307712,14.5542143 L9.10476072,14.5542143 C8.69722305,14.5542143 8.36684849,14.8847995 8.36684849,15.2925969 C8.36684849,15.7003944 8.69722305,16.0309796 9.10476072,16.0309796 Z" id="Shape"></path>
            <path d="M2.75576395,30.5525051 C2.02769055,30.5525051 1.47966775,30.0031484 1.47966775,29.3238364 L1.47966775,2.73812286 C1.47966775,2.05979532 2.02965834,1.50945414 2.70656979,1.5094541 L24.3578983,1.5094541 C25.0397292,1.5094541 25.5848004,2.05585726 25.5848004,2.74599893 L25.5848004,2.85823309 C25.5847425,3.1220704 25.7253752,3.36589091 25.9537098,3.49782629 C26.1820444,3.62976166 26.4633809,3.62976166 26.6917155,3.49782629 C26.9200501,3.36589091 27.0606827,3.1220704 27.0606248,2.85823309 L27.0606248,2.74599893 C27.0637678,2.02696075 26.7803105,1.33633623 26.2730245,0.827063735 C25.7657385,0.317791236 25.0764849,0.0318958128 24.3578983,0.0326888182 L2.70656979,0.0326888182 C1.21373602,0.0332324146 0.00384319015,1.24433729 0.00384328899,2.73812286 L0.00384328899,29.3238364 C0.00358230588,30.041101 0.288082767,30.729092 0.794757808,31.2364594 C1.30143285,31.7438267 1.98877828,32.0290093 2.70558593,32.0292704 C3.16309151,32.0292704 3.49269232,31.6984749 3.49269229,31.2908877 C3.49269229,30.8830903 3.16231773,30.5525051 2.75478005,30.5525051 L2.75576395,30.5525051 Z" id="Shape"></path>
        </g>
    </g>
</svg>