<?xml version="1.0" encoding="UTF-8"?>
<svg width="24px" height="24px" viewBox="0 0 24 24" version="1.1" xmlns="http://www.w3.org/2000/svg" xmlns:xlink="http://www.w3.org/1999/xlink">
    <!-- Generator: Sketch 51.3 (57544) - http://www.bohemiancoding.com/sketch -->
    <title>icon/24/我的授权@2x</title>
    <desc>Created with Sketch.</desc>
    <defs></defs>
    <g id="icon/24/我的授权" stroke="none" stroke-width="1" fill="none" fill-rule="evenodd">
        <g id="授权" fill="#73A8F5" fill-rule="nonzero">
            <path d="M5.98946379,6.37382618 C6.36183849,6.37382618 6.75743979,6.06963276 6.75743979,5.69426107 L6.75743979,3.69527574 C6.75743979,3.0651608 6.94250327,2.48000055 7.27816498,2.04618776 C7.5756152,1.66257438 7.95548235,1.45128733 8.34808667,1.45128733 L16.1087651,1.45128733 C16.4811398,1.45128733 16.7823363,1.14709391 16.7823363,0.772471469 C16.7823363,0.39784903 16.4811398,0 16.1087651,0 L8.1600262,0 C7.34334928,0 6.58586271,0.397099785 6.02767528,1.11787336 C5.50844858,1.78844752 5.22223703,2.67105799 5.22223703,3.60162013 L5.22223703,5.69426107 C5.22223703,6.06963276 5.61708908,6.37382618 5.98946379,6.37382618 Z M20.3120289,17.9803786 L12.6742266,17.9803786 C12.3018519,17.9803786 11.9999062,18.3782276 11.9999062,18.7535993 C11.9999062,19.1282218 12.3018519,19.4324152 12.6742266,19.4324152 L20.3120289,19.4324152 C20.685395,19.4307633 20.9868441,19.126967 20.9856,18.7535993 C20.9856,18.3774784 20.6836544,17.9803786 20.3120289,17.9803786 Z M20.3120289,14.2154231 L14.303085,14.2154231 C13.9307103,14.2154231 13.6295138,14.6597253 13.6295138,15.0343477 C13.6295138,15.4097194 13.9307103,15.7139129 14.303085,15.7139129 L20.3120289,15.7139129 C20.4914665,15.7131198 20.6632395,15.6410769 20.789559,15.5136334 C20.9158784,15.3861898 20.9863967,15.2137853 20.9856,15.0343477 C20.9856,14.6597253 20.6836544,14.2154231 20.3120289,14.2154231 Z M23.2153528,8.03565132 C22.8437273,8.03565132 22.448126,8.33984474 22.448126,8.71521642 L22.448126,19.4841131 C22.448126,20.114228 22.2630626,21.4486331 21.9274009,21.8824459 C21.6306999,22.2660593 21.2500835,22.4773464 20.8574792,22.4773464 L8.25368181,22.4773464 C7.86107749,22.4773464 7.4804611,22.2660593 7.18376012,21.8824459 C6.84809842,21.4486331 6.66303493,21.472609 6.66303493,20.842494 C6.66303493,20.4671224 6.36108925,20.1629289 5.98871454,20.1629289 C5.61633984,20.1629289 5.3151434,20.4671224 5.3151434,20.842494 C5.3151434,21.7738054 5.60135494,22.1873886 6.12058164,22.858712 C6.67951832,23.5787363 7.43700489,23.9758361 8.25368181,23.9758361 L21.0447904,23.9758361 C21.8622166,23.9758361 22.6189539,23.5787363 23.1771413,22.8579628 C23.6971173,22.1873886 23.9833288,20.5555333 23.9833288,19.6242219 L23.9833288,8.71446718 C23.9833288,8.33909549 23.5877275,8.03565132 23.2153528,8.03565132 Z M22.8362349,4.36659915 L19.6991466,0.27347438 C19.571775,0.101148059 19.5110861,0 19.3844637,0 L19.379219,0 C19.2071314,0.0017791452 19.0427999,0.0718517485 18.9223802,0.194800621 C18.8019606,0.317749494 18.7353184,0.48350184 18.7371162,0.655589268 L18.7371162,4.27818825 C18.7371162,4.90230924 18.9199319,5.49646043 19.2510982,5.95125207 C19.6189774,6.45624311 20.4603794,6.73720994 20.9856,6.73720994 L22.753818,6.73196523 C22.753818,6.73196523 23.9833288,6.68551205 23.9833288,6.3925573 C23.9833288,5.91229133 23.9833288,5.8066478 22.8362349,4.36659915 Z M20.5383009,5.62158432 C20.1314609,5.62158432 19.8265182,4.99072013 19.8265182,4.42653874 L19.8265182,2.71975891 L21.9723556,5.62233356 L20.5383009,5.62233356 L20.5383009,5.62158432 Z M20.3120289,10.4811866 L12.659991,10.4811866 C12.2876163,10.4811866 11.9864198,10.8790356 11.9864198,11.2536581 C11.9864198,11.6282805 12.2876162,11.9324739 12.659991,11.9324739 L20.3120289,11.9324739 C20.6836544,11.9324739 20.9856,11.6282805 20.9856,11.2536581 C20.9856,10.8790356 20.6836544,10.4811866 20.3120289,10.4811866 Z M11.2379242,17.2266383 L11.2379242,14.9848976 C11.2379242,14.1682207 10.5785887,13.5036405 9.76790571,13.5036405 L7.45498677,13.5036405 C6.71398359,12.5850662 6.91553046,12.4951569 7.30214082,11.8710358 C7.43587624,11.6669025 7.55457074,11.4533025 7.65728289,11.23193 C8.25143408,9.93723482 8.06037663,9.00966966 7.79589319,8.45897467 C7.62431611,8.09858789 6.93950629,6.92302267 5.40280505,6.92302267 C3.78893158,6.92302267 3.10562025,8.17650935 2.98424258,8.42750639 C2.7190099,8.97820137 2.5287017,9.90651578 3.12060515,11.1967155 C3.22699792,11.4364738 3.35436955,11.6410177 3.47799496,11.8403168 C3.86835154,12.4689333 4.07214615,12.5610904 3.30117317,13.5028912 L1.46926944,13.5028912 C0.654898871,13.5078417 -0.00207863844,14.1705146 2.34146341e-07,14.9848976 L2.34146341e-07,17.2266383 C2.34146341e-07,18.0433152 0.659335727,18.7078954 1.47001868,18.7078954 L9.76865495,18.7078954 C10.5829048,18.703356 11.2400014,18.0408981 11.2379242,17.2266383 Z M4.06690143,8.95572403 C4.16130629,8.75942187 4.53443024,8.1188175 5.37658148,8.1188175 C6.27267835,8.1188175 6.67202587,8.89728293 6.71473283,8.98644307 C6.93576007,9.44573018 6.88556066,10.0301412 6.56263612,10.7329329 C6.48995937,10.8970175 6.38956055,11.0573559 6.28391703,11.2281837 C5.92353024,11.8088485 5.44476276,12.3438094 6.02392905,13.5036405 L4.74122182,13.5036405 C5.34511319,12.3265768 4.86185025,11.7833742 4.49621875,11.1959662 C4.39125682,11.0352187 4.29738328,10.867498 4.21525192,10.6939721 C3.8960736,10.0001714 3.84587419,9.41501114 4.06690143,8.95572403 Z M1.52995828,16.9921246 L1.52995828,15.218662 C1.52995828,15.0695623 1.64983746,14.9489338 1.7974387,14.9489338 L9.48693888,14.9489338 C9.63454012,14.9489338 9.7544193,15.0695623 9.7544193,15.218662 L9.7544193,16.9921246 C9.7544193,17.1412243 9.63454012,17.2618528 9.48693888,17.2618528 L1.7974387,17.2618528 C1.64917852,17.2610274 1.52954299,17.1403865 1.52995828,16.9921246 Z" id="Shape"></path>
        </g>
    </g>
</svg>