<?xml version="1.0" encoding="UTF-8"?>
<svg width="24px" height="24px" viewBox="0 0 24 24" version="1.1" xmlns="http://www.w3.org/2000/svg" xmlns:xlink="http://www.w3.org/1999/xlink">
    <!-- Generator: Sketch 49.2 (51160) - http://www.bohemiancoding.com/sketch -->
    <title>icon/24/团队管理@2x</title>
    <desc>Created with Sketch.</desc>
    <defs></defs>
    <g id="icon/24/团队管理" stroke="none" stroke-width="1" fill="none" fill-rule="evenodd">
        <g id="团队管理2" transform="translate(0.000000, 2.000000)" fill="#73A8F5" fill-rule="nonzero">
            <path d="M15.3446829,10.4052837 C12.4974634,10.4052837 10.1497561,8.07490229 10.1497561,5.18725572 C10.1497561,2.29960915 12.4974634,0.0198881947 15.3446829,0.0198881947 C18.1919024,0.0198881947 20.5396097,2.35026963 20.5396098,5.23791619 C20.5396098,8.12556274 18.2418537,10.4052837 15.3446829,10.4052837 Z M15.3446829,1.23573937 C13.1967805,1.23573937 11.3985366,3.00885568 11.3985366,5.18725572 C11.3985366,7.36565576 13.1468293,9.13877207 15.3446829,9.13877207 C17.5425366,9.13877207 19.2908293,7.36565576 19.2908293,5.18725572 C19.2908293,3.00885568 17.5425366,1.23573937 15.3446829,1.23573937 Z" id="Shape"></path>
            <path d="M6.35346342,18.916242 L5.10468292,18.916242 C5.10468292,13.4955722 9.50039024,9.13877209 14.8451707,9.13877207 L14.8451707,10.4052837 C10.1497561,10.4052837 6.35346342,14.2554791 6.35346342,18.916242 Z" id="Shape"></path>
            <path d="M9.80009756,10.4052837 C6.65317074,10.4052837 4.10565854,8.07490229 4.10565854,5.18725572 C4.10565854,2.29960915 6.65317074,0.0198881947 9.80009756,0.0198881947 L9.80009756,1.28639984 C7.3524878,1.28639984 5.35443902,3.05951615 5.35443902,5.23791619 C5.35443902,7.41631623 7.3524878,9.18943254 9.80009756,9.18943254 L9.80009756,10.4052837 Z" id="Shape"></path>
            <path d="M1.25843902,18.916242 L0.00965854,18.916242 C0.00965854,13.4955722 4.40536586,9.13877209 9.75014634,9.13877207 L9.75014634,10.4052837 C5.10468292,10.4052837 1.25843902,14.2554791 1.25843902,18.916242 Z M23.3868293,13.9008559 L22.5876098,13.698214 C22.5376585,13.4955722 22.4377561,13.2929303 22.3378537,13.0902884 L22.7874146,12.3303814 C22.9372683,12.0770791 23.0371707,11.6717954 22.7874146,11.418493 L22.3378537,10.9625489 C22.2379512,10.8612279 22.0381463,10.8105675 21.8882927,10.8105675 C21.738439,10.8105675 21.5386341,10.8612279 21.4387317,10.9625489 L20.7394146,11.418493 C20.5396098,11.3171721 20.3398049,11.2158512 20.14,11.1651907 L19.9401951,10.3546233 C19.8902439,10.0506605 19.6404878,9.74669767 19.2908293,9.74669767 L18.6414634,9.74669767 C18.2918049,9.74669767 18.092,10.1013209 17.9920976,10.4052837 L17.7922927,11.2158512 C17.5924878,11.2665116 17.3926829,11.3678326 17.192878,11.4691535 L16.4436098,11.0132093 C16.2937561,10.9118884 16.1439024,10.8612279 15.9940488,10.8612279 C15.8441951,10.8612279 15.6443902,10.9118884 15.5444878,11.0132093 L15.0949268,11.4691535 C14.8451707,11.7224558 14.9450732,12.1277396 15.0949268,12.3810419 L15.5444878,13.1409489 C15.4445854,13.2929303 15.3946341,13.4955722 15.3446829,13.698214 L14.5454634,13.9008559 C14.2457561,13.9515163 13.8960976,14.2048187 13.8960976,14.5594419 L13.8960976,15.218028 C13.8960976,15.5726513 14.2457561,15.7752931 14.5454634,15.8766141 L15.3946341,16.0792559 C15.4445854,16.2312373 15.5444878,16.4338792 15.594439,16.5858606 L15.0449756,17.3457676 C14.8951219,17.5990699 14.7952195,18.0043536 15.0449756,18.257656 L15.4945366,18.7136002 C15.594439,18.8149211 15.7942439,18.8655816 15.9440976,18.8655816 C16.0939512,18.8655816 16.2937561,18.8149211 16.3936585,18.7136002 L17.1429268,18.257656 C17.3427317,18.3589769 17.5425366,18.4602978 17.7423415,18.5109583 L17.9421463,19.3215258 C17.9920976,19.6254886 18.2418537,19.9801118 18.5915122,19.9801118 L19.240878,19.9801118 C19.5905366,19.9801118 19.8402927,19.676149 19.8902439,19.3721862 L20.0900488,18.5616188 C20.2898537,18.5109583 20.4896585,18.4096374 20.6395122,18.3083164 L21.3388293,18.7642606 C21.4886829,18.8655816 21.6385366,18.916242 21.7883902,18.916242 C21.9382439,18.916242 22.1380488,18.8655816 22.2379512,18.7642606 L22.6875122,18.3083164 C22.9372683,18.0550141 22.8373659,17.6497304 22.6875122,17.396428 L22.2379512,16.6365211 C22.3378537,16.4845397 22.3878049,16.2818978 22.4877073,16.0792559 L23.336878,15.8766141 C23.6365854,15.8259536 23.9862439,15.5726513 23.9862439,15.218028 L23.9862439,14.5594419 C23.9862439,14.2048187 23.6865366,13.9515163 23.3868293,13.9008559 Z M22.8373659,15.1673675 C22.8373659,15.1673675 22.7374634,15.2686885 22.637561,15.2686885 L21.9382439,15.4206699 L21.6884878,15.4713303 L21.6385366,15.7246327 C21.5885854,15.8766141 21.5386341,15.977935 21.4886829,16.1299164 L21.3887805,16.3325583 L21.8882927,17.1937862 C21.9382439,17.2951071 21.9881951,17.3964281 21.9382439,17.4470885 L21.5386341,17.8523722 L21.4387317,17.8523722 C21.3887805,17.8523722 21.3388293,17.8523722 21.288878,17.8017118 L20.6395122,17.396428 L20.4397073,17.2444467 L20.2399024,17.3457676 C20.0900488,17.396428 19.9401951,17.497749 19.7903415,17.5484094 L19.5405854,17.6497304 L19.4906341,17.8523722 L19.3407805,18.5616188 C19.3407805,18.6629397 19.240878,18.7642606 19.1909268,18.7642606 L18.6414634,18.7642606 C18.6414634,18.7642606 18.541561,18.6629397 18.541561,18.5616188 L18.3417561,17.8523722 L18.2918049,17.5990699 L18.0420488,17.5484094 C17.8921951,17.497749 17.7423415,17.4470885 17.5924878,17.3457676 L17.3926829,17.2444467 L17.1429268,17.396428 L16.493561,17.8017118 C16.4436098,17.8523722 16.3936585,17.8523722 16.3437073,17.8523722 L16.2438049,17.8523722 L15.8441951,17.4470885 C15.8441951,17.4470885 15.8441951,17.3457676 15.8941463,17.1937862 L16.2937561,16.5352001 L16.3936585,16.3325583 L16.2937561,16.1299164 C16.2438049,15.977935 16.1938537,15.8766141 16.1439024,15.7752931 L16.1439024,15.5219908 L15.8941463,15.4713303 L15.1948293,15.2686885 C15.0449756,15.218028 14.9950244,15.1673675 14.9950244,15.1673675 L14.9950244,14.6101024 C14.9950244,14.5594419 15.0949268,14.458121 15.1948293,14.458121 L15.8941463,14.3061396 L16.1439024,14.2554791 L16.2438049,14.0021768 C16.2937561,13.8501954 16.3437073,13.7488745 16.3936585,13.5968931 L16.493561,13.3942512 L16.3936585,13.1916094 L15.9940488,12.5330233 C15.9440976,12.4317024 15.8941463,12.3303814 15.9440976,12.279721 L16.3437073,11.8744372 L16.4436098,11.8744372 C16.493561,11.8744372 16.5435122,11.8744372 16.5934634,11.9250977 L17.2428293,12.3303814 L17.4426341,12.4823628 L17.642439,12.3810419 C17.7922927,12.279721 17.9421463,12.2290605 18.092,12.1784 L18.3417561,12.1277396 L18.3917073,11.8744372 L18.5915122,11.1651907 L18.6914146,10.9625489 L19.240878,10.9625489 C19.2908293,10.9625489 19.3907317,11.0638698 19.3907317,11.1651907 L19.5905366,12.1277396 L19.8402927,12.2290605 C19.9901463,12.279721 20.14,12.3303814 20.2898537,12.4317024 L20.4896585,12.5330233 L20.6894634,12.3810419 L21.288878,11.9757582 C21.3388293,11.9250977 21.3887805,11.9250977 21.4387317,11.9250977 L21.5386341,11.9250977 L21.9382439,12.3303814 C21.9382439,12.3303814 21.9382439,12.4317024 21.8882927,12.5836838 L21.4886829,13.1916094 L21.3887805,13.3942512 L21.4886829,13.5968931 C21.5885854,13.7488745 21.6385366,13.9008559 21.6884878,14.0528373 L21.7883902,14.3061396 L22.0381463,14.3568001 L22.7374634,14.5087815 C22.8373659,14.5087815 22.9372683,14.6101024 22.9372683,14.6607629 L22.9372683,15.1673675 L22.8373659,15.1673675 Z M18.9411707,12.8369861 C17.8422439,12.8369861 16.8931707,13.7488745 16.8931707,14.8634047 C16.8931707,15.977935 17.7922927,16.8898234 18.9411707,16.8898234 C20.0400976,16.8898234 20.9891707,15.977935 20.9891707,14.8634047 C20.9392195,13.7488745 20.0400976,12.8369861 18.9411707,12.8369861 Z M18.9411707,15.977935 C18.3417561,15.977935 17.8422439,15.4713303 17.8422439,14.8634047 C17.8422439,14.2554791 18.3417561,13.7488745 18.9411707,13.7488745 C19.5405854,13.7488745 20.0400976,14.2554791 20.0400976,14.8634047 C20.0400976,15.4713303 19.5405854,15.977935 18.9411707,15.977935 Z" id="Shape"></path>
        </g>
    </g>
</svg>