<?xml version="1.0" standalone="no"?><!DOCTYPE svg PUBLIC "-//W3C//DTD SVG 1.1//EN" "http://www.w3.org/Graphics/SVG/1.1/DTD/svg11.dtd"><svg t="1535372615335" class="icon" style="" viewBox="0 0 1024 1024" version="1.1" xmlns="http://www.w3.org/2000/svg" p-id="3478" xmlns:xlink="http://www.w3.org/1999/xlink" width="32" height="32"><defs><style type="text/css"></style></defs><path d="M503.314 135.825C305.336 137.338 142.19 291.801 130.483 490.17c-4.75 80.487 14.791 154.986 58.105 223.124 2.31 3.634 4.63 7.263 7.024 10.842 7.49 11.196 11.471 22.798-2.3 31.673-14.326 9.232-22.2-1.251-29.573-11.784-165.696-236.695-29.107-578.406 254.07-635.56 233.885-47.205 451.564 100.54 494.024 335.31 40.567 224.301-123.761 447.69-349.844 476.377-103.176 13.092-198.133-7.97-285.345-64.626-10.516-6.832-19.544-14.522-13.276-27.684 7.633-16.027 19.705-13.1 32.216-4.752 47.882 31.95 100.489 51.216 157.363 60.244 195.497 31.033 393.377-114.221 421.577-310.024 30.68-213.022-103.17-396.834-315.492-432.663-18.322-3.091-37.134-3.283-55.718-4.822z" p-id="3479" fill="#515151"></path><path d="M489.013 389.664c0-43.584 0.892-87.195-0.434-130.739-0.538-17.678 8.356-16.962 20.853-17.56 13.771-0.659 18.03 3.25 17.886 17.573-0.748 74.299 0.275 148.62-0.809 222.911-0.254 17.418 5.151 20.853 21.308 20.611 61.432-0.921 122.893 0.102 184.329-0.713 14.808-0.196 19.822 3.577 19.263 18.835-0.482 13.14-0.855 20.143-17.761 19.907-75.721-1.056-151.469-0.826-227.199-0.131-14.101 0.129-18.047-3.763-17.764-17.805 0.89-44.281 0.328-88.59 0.328-132.889z" p-id="3480" fill="#515151"></path></svg>