<?xml version="1.0" encoding="UTF-8"?>
<svg width="24px" height="24px" viewBox="0 0 24 24" version="1.1" xmlns="http://www.w3.org/2000/svg" xmlns:xlink="http://www.w3.org/1999/xlink">
    <!-- Generator: Sketch 49.2 (51160) - http://www.bohemiancoding.com/sketch -->
    <title>icon/24/我的邀请码@2x</title>
    <desc>Created with Sketch.</desc>
    <defs></defs>
    <g id="icon/24/我的邀请码" stroke="none" stroke-width="1" fill="none" fill-rule="evenodd">
        <g id="推广码" fill="#73A8F5" fill-rule="nonzero">
            <path d="M22.4601517,8.89378918 L17.6485846,13.7061537 L16.5176847,12.5745449 L21.3292813,7.76368673 C22.7364528,6.35574736 22.7372207,4.07675813 21.3316146,2.67035458 C19.9267764,1.26551639 17.6462514,1.26708176 16.2398478,2.67348531 L11.1449503,7.76835329 C9.73774933,9.17475684 9.73698141,11.4552819 11.1418787,12.8601201 C11.441542,13.1597834 11.7849174,13.381415 12.1470771,13.5531618 L10.9607693,14.7379042 C10.6235963,14.5303018 10.3028744,14.2852489 10.0101518,13.9917879 C7.98014362,11.9624886 7.98170899,8.66896783 10.0132234,6.63662639 L15.1081209,1.5417289 C17.1404919,-0.490612529 20.4340126,-0.492177894 22.4640799,1.53859817 C24.4940585,3.56943332 24.4925227,6.86144778 22.4601517,8.89378918 Z M7.74911988,21.3438777 L12.8432495,16.2489507 C14.25048,14.8425766 14.2512184,12.562022 12.8463507,11.1571544 C12.5466578,10.8574615 12.2032529,10.6358299 11.8418611,10.4641127 L13.0274305,9.27777534 C13.3645739,9.4869431 13.6861524,9.73202556 13.978048,10.0239212 C16.0088241,12.0546972 16.0072587,15.3483066 13.9749764,17.3806185 L8.88001979,22.4739506 C6.84761931,24.5062921 3.55486644,24.5078279 1.52488786,22.4786172 C-0.505888212,20.4478411 -0.504322846,17.1542908 1.52801856,15.1235148 L6.34038309,10.3111207 L7.47051508,11.4427885 L2.65968637,16.2536172 C1.25251491,17.6599912 1.251747,19.9405458 2.65661472,21.3453545 C4.06219128,22.7518171 6.34194842,22.7502517 7.74911988,21.3438777 Z" id="Shape"></path>
        </g>
    </g>
</svg>