<?xml version="1.0" encoding="UTF-8"?>
<svg width="32px" height="32px" viewBox="0 0 32 32" version="1.1" xmlns="http://www.w3.org/2000/svg" xmlns:xlink="http://www.w3.org/1999/xlink">
    <!-- Generator: Sketch 49.2 (51160) - http://www.bohemiancoding.com/sketch -->
    <title>x@2x</title>
    <desc>Created with Sketch.</desc>
    <defs></defs>
    <g id="Page-1" stroke="none" stroke-width="1" fill="none" fill-rule="evenodd">
        <g id="我的物流-copy" transform="translate(-172.000000, -530.000000)" fill="#FFFFFF" fill-rule="nonzero">
            <g id="x" transform="translate(172.000000, 530.000000)">
                <path d="M16,32 C13.8392857,32 11.7464286,31.5785714 9.77142857,30.7428571 C7.86428571,29.9357143 6.15357143,28.7821429 4.68571429,27.3142857 C3.21785714,25.8464286 2.06428571,24.1357143 1.25714286,22.2285714 C0.421428571,20.2535714 0,18.1571429 0,16 C0,13.8392857 0.421428571,11.7464286 1.25714286,9.77142857 C2.06428571,7.86428571 3.21785714,6.15357143 4.68571429,4.68571429 C6.15357143,3.21785714 7.86428571,2.06428571 9.77142857,1.25714286 C11.7464286,0.421428571 13.8392857,0 16,0 C18.1607143,0 20.2535714,0.421428571 22.2285714,1.25714286 C24.1357143,2.06428571 25.8464286,3.21785714 27.3142857,4.68571429 C28.7821429,6.15357143 29.9357143,7.86428571 30.7428571,9.77142857 C31.575,11.7428571 32,13.8392857 32,16 C32,18.1607143 31.5785714,20.2535714 30.7428571,22.2285714 C29.9357143,24.1357143 28.7821429,25.8464286 27.3142857,27.3142857 C25.8464286,28.7821429 24.1357143,29.9357143 22.2285714,30.7428571 C20.2535714,31.575 18.1607143,32 16,32 Z M16,2.28571429 C12.3357143,2.28571429 8.89285714,3.71071429 6.30357143,6.30357143 C3.71071429,8.89285714 2.28571429,12.3357143 2.28571429,16 C2.28571429,19.6642857 3.71071429,23.1071429 6.30357143,25.6964286 C8.89285714,28.2857143 12.3357143,29.7142857 16,29.7142857 C19.6642857,29.7142857 23.1071429,28.2857143 25.6964286,25.6964286 C28.2892857,23.1071429 29.7142857,19.6607143 29.7142857,16 C29.7142857,12.3392857 28.2892857,8.89285714 25.6964286,6.30357143 C23.1071429,3.71071429 19.6642857,2.28571429 16,2.28571429 Z" id="Shape"></path>
                <path d="M10.3571429,22.7857143 C10.0642857,22.7857143 9.77142857,22.675 9.55,22.45 C9.10357143,22.0035714 9.10357143,21.2785714 9.55,20.8321429 L20.8357143,9.54642857 C21.2821429,9.1 22.0071429,9.1 22.4535714,9.54642857 C22.9,9.99285714 22.9,10.7178571 22.4535714,11.1642857 L11.1678571,22.45 C10.9428571,22.6714286 10.65,22.7857143 10.3571429,22.7857143 Z" id="Shape"></path>
                <path d="M21.6428571,22.7857143 C21.35,22.7857143 21.0571429,22.675 20.8357143,22.45 L9.55,11.1642857 C9.10357143,10.7178571 9.10357143,9.99285714 9.55,9.54642857 C9.99642857,9.1 10.7214286,9.1 11.1678571,9.54642857 L22.4535714,20.8321429 C22.9,21.2785714 22.9,22.0035714 22.4535714,22.45 C22.2285714,22.6714286 21.9357143,22.7857143 21.6428571,22.7857143 Z" id="Shape"></path>
            </g>
        </g>
    </g>
</svg>