<?xml version="1.0" encoding="UTF-8"?>
<svg width="16px" height="16px" viewBox="0 0 16 16" version="1.1" xmlns="http://www.w3.org/2000/svg" xmlns:xlink="http://www.w3.org/1999/xlink">
    <!-- Generator: Sketch 49.2 (51160) - http://www.bohemiancoding.com/sketch -->
    <title>圆通快递@2x</title>
    <desc>Created with Sketch.</desc>
    <defs></defs>
    <g id="Page-1" stroke="none" stroke-width="1" fill="none" fill-rule="evenodd">
        <g id="订单列表-详情" transform="translate(-16.000000, -549.000000)">
            <g id="Group-8" transform="translate(7.000000, 470.000000)">
                <g id="圆通快递" transform="translate(9.000000, 79.000000)">
                    <rect id="Rectangle-4" fill="#3B1A4F" x="0" y="0" width="16" height="16" rx="2"></rect>
                    <g id="Group-7" transform="translate(2.000000, 5.000000)" fill-rule="nonzero">
                        <polygon id="Shape" fill="#EA6000" points="3.47156254 4.89447549 4.02286587 2.20486364 3.29105908 2.20603048 3.48854398 1.15922297 6.97420045 1.15922297 6.77425687 2.20969763 5.26469961 2.20969763 4.7073538 4.89447549"></polygon>
                        <path d="M2.18611877,4.88720368 L1.0169823,4.88720368 L1.26899537,3.57750666 L0.588070424,1.1592438 L1.81779837,1.1592438 C1.81779837,1.1592438 2.06376896,2.18663203 2.08070875,2.2763316 C2.12921526,2.19759183 2.78219896,1.1592438 2.78219896,1.1592438 L4.08585352,1.1592438 L2.43086003,3.61142789 L2.18611877,4.88720368 Z M8.59891902,0.181528925 C7.04445989,0.181528925 5.78447788,1.44153179 5.78447788,2.99480325 C5.78447788,4.54917905 7.04445989,5.80922357 8.59891902,5.80922357 C10.152128,5.80922357 11.4121517,4.54915822 11.4121517,2.99480325 C11.4121309,1.44153179 10.1533365,0.181528925 8.59891902,0.181528925 Z M8.4886542,1.44519894 C8.4886542,1.257382 8.73462479,1.01630791 8.92600471,1.01630791 L8.95871743,1.01630791 C9.09077686,1.01630791 9.20708418,1.12653107 9.20708418,1.24892254 L9.20708418,1.27436346 C9.20708418,1.49487229 8.9683854,1.74809386 8.75760704,1.74809386 L8.71397617,1.74809386 C8.58677156,1.74809386 8.48865418,1.64143368 8.4886542,1.50579042 L8.4886542,1.44519894 Z M8.67405413,3.87679692 C8.57587426,4.00152204 8.46077543,4.11064087 8.33844649,4.20634126 C8.2136172,4.30083313 8.07791143,4.3783644 7.93495471,4.42439142 C7.73986595,4.48617057 7.54727755,4.4995057 7.34610465,4.4995057 C7.12201201,4.4995057 6.88333406,4.41347328 6.74887846,4.31898141 C6.63615496,4.24024164 6.43141908,4.02092048 6.42783527,3.85008499 C6.53930861,3.85858612 6.44842138,3.94095138 6.60467155,3.94095138 C6.66642986,3.98462393 6.73433484,4.06938534 6.83001437,4.06938534 C6.82640971,4.01733667 6.80819894,4.01848266 6.80819894,3.98820774 C6.80819894,3.9616 6.81186609,3.97489345 6.81909624,3.94095138 L6.83357735,3.94218071 C6.87841672,3.9676633 7.08444444,4.08880461 7.33401968,4.09238842 C7.51821113,4.09722241 7.54723587,4.09478458 7.65262504,4.0766363 C7.8465053,4.04517374 8.04274003,3.95549501 8.18817627,3.80645412 C8.32744502,3.66230972 8.44133533,3.47088814 8.49230052,3.26613143 C8.52734691,3.12313302 8.52859707,2.93535776 8.48619553,2.79360952 C8.41472759,2.56220339 8.21603418,2.50284123 8.01857012,2.50284123 C7.3340197,2.50284123 7.30130696,3.05047741 7.16437185,3.09039945 C7.19106294,2.94865122 7.31705907,2.8578265 7.31705907,2.75118715 L7.15960039,2.9244813 L7.14616108,2.91598015 L7.2443618,2.74391534 L7.23467299,2.73547669 C7.19343829,2.74758249 7.12199116,2.86391065 7.11230236,2.90993768 L7.08927842,2.90993768 C7.09415407,2.71976625 7.30247378,2.45679339 7.40548764,2.34659104 C7.5278166,2.21448994 7.73142732,2.11999805 7.90338796,2.08728533 C8.01854928,2.06544906 8.13727359,2.06544906 8.25230989,2.08124284 C8.4607546,2.11153859 8.63277775,2.22661657 8.75516922,2.36471849 C8.88724949,2.51373854 8.95871743,2.73908135 8.95019546,2.95717319 C8.94661165,3.12923801 8.94896613,3.25156697 8.88837465,3.46970049 C8.84603561,3.62115837 8.76846268,3.75805179 8.67405413,3.87679692 Z M9.95462225,4.49952653 C9.82737597,4.49952653 9.85165007,4.36986325 9.84314893,4.23907483 C9.8334393,4.12635133 9.80437288,4.0173575 9.75834585,3.93853439 C9.66991729,3.78951435 9.50026946,3.66476839 9.27496833,3.66476839 L8.94663248,3.66476839 L8.94663248,3.64174446 L9.03629038,3.62599234 L9.03629038,3.60298924 L8.99026335,3.60298924 C9.01080778,3.52176999 9.23981776,3.57144332 9.25071505,3.45999084 L9.0932147,3.47699313 L9.08833905,3.46359549 L9.31974518,3.36670746 L9.16099466,3.36670746 C9.21191817,3.29523952 9.42273821,3.28311287 9.54758833,3.28311287 L9.62507793,3.28311287 C10.0600323,3.33276538 10.2708106,3.74957146 10.308399,4.02458763 C10.3168377,4.08030347 10.3205257,4.16996135 10.3205257,4.16996135 C10.3205257,4.35294431 10.1424184,4.49952653 9.95462225,4.49952653 Z M9.87344468,2.78277473 C9.69414972,2.9802388 9.27742698,3.27340324 8.97209424,3.30246965 C8.97813672,3.24312834 9.17314212,3.17168122 9.21681466,3.12925884 L9.16341165,3.12315385 L9.21681466,3.02264034 L9.06293979,3.06500021 L9.05806414,3.05414457 L9.21314749,2.95721487 L9.20708418,2.9438589 L9.12713593,2.9438589 C9.16584947,2.88330909 9.22156531,2.90995849 9.22644096,2.82636392 L9.06779462,2.85907666 L9.23737992,2.746374 L9.11623863,2.77302342 L9.11623863,2.74881182 C9.28586561,2.70151378 9.49543548,2.49436093 9.60695049,2.37201113 C9.71721533,2.25086984 9.84925393,1.96972785 9.84925391,1.73711322 L10.3254221,1.73711322 C10.2938554,2.18061038 10.1012045,2.53192848 9.87344468,2.78277473 Z" id="Shape" fill="#FFFFFF"></path>
                    </g>
                </g>
            </g>
        </g>
    </g>
</svg>