<?xml version="1.0" encoding="UTF-8"?>
<svg width="24px" height="24px" viewBox="0 0 24 24" version="1.1" xmlns="http://www.w3.org/2000/svg" xmlns:xlink="http://www.w3.org/1999/xlink">
    <!-- Generator: Sketch 49.2 (51160) - http://www.bohemiancoding.com/sketch -->
    <title>icon/24/钻石董事 @2x</title>
    <desc>Created with Sketch.</desc>
    <defs>
        <polygon id="path-1" points="0.0653535088 0.0176470588 20.226512 0.0176470588 20.226512 20.8775824 0.0653535088 20.8775824"></polygon>
    </defs>
    <g id="icon/24/钻石董事-" stroke="none" stroke-width="1" fill="none" fill-rule="evenodd">
        <g id="Group" transform="translate(0.000000, 2.000000)">
            <g id="Page-1">
                <g id="Group-3">
                    <mask id="mask-2" fill="white">
                        <use xlink:href="#path-1"></use>
                    </mask>
                    <g id="Clip-2"></g>
                    <path d="M10.1888267,11.6682 C10.0166489,11.6682 9.01513778,11.6255824 8.11682667,10.9047882 C7.13549333,10.0987588 6.83700444,8.80822941 6.83700444,8.78546471 C6.79407111,8.59461176 6.64473778,8.46640588 6.45256,8.44646471 C5.70642667,8.38390588 5.46820444,7.57205294 5.46820444,7.25290588 C5.46820444,6.99367059 5.58882667,6.69746471 5.66909333,6.50387647 C5.69211556,6.4497 5.76660444,6.44678824 5.79256,6.49814118 C6.11958222,7.13908235 6.65051556,8.22146471 6.75371556,7.65172941 L6.70793778,3.96287647 C6.70500444,3.83749412 6.82553778,3.74352353 6.94900444,3.77484706 L9.71540444,4.34458235 C10.0023378,4.40440588 10.29496,4.41861176 10.5876711,4.3902 L13.26216,4.13096471 C13.3482044,4.11958235 13.4257156,4.18796471 13.42296,4.27337647 L13.2880267,7.22167059 C13.3082044,7.38967059 13.2908711,7.56067059 13.4631378,7.60337647 C13.6351378,7.66602353 13.6811822,7.58343529 13.7873156,7.43237647 L14.2638489,6.63764118 C14.31256,6.55787647 14.4330044,6.5607 14.4732711,6.6462 C14.59656,6.89414118 14.7258044,7.34122941 14.65976,7.73722941 C14.5620711,8.32681765 13.7127378,8.50628824 13.6696267,8.50628824 C13.4974489,8.52631765 13.3482044,8.65443529 13.3052711,8.82534706 C12.7714933,11.0757 10.5073156,11.6054647 10.1888267,11.6682 M10.1458044,19.9404353 C9.57762667,19.9347882 8.69949333,19.8435529 8.69949333,19.8435529 L9.72393778,14.3572588 L9.44260444,14.1777882 C9.35362667,14.1207882 9.29913778,14.0210824 9.29913778,13.9158176 L9.29913778,13.6309059 C9.29913778,13.4344059 9.45993778,13.2719647 9.66091556,13.2719647 L10.5790489,13.2719647 C10.7770044,13.2719647 10.9407378,13.4314059 10.9407378,13.6309059 L10.9407378,13.9214647 C10.9407378,14.0239941 10.8890044,14.1207882 10.8057156,14.1777882 L10.5217156,14.3715529 L11.5202933,19.8748765 C11.5146044,19.8777 10.7139822,19.9489941 10.1458044,19.9404353 M15.2321837,20.3702998 C13.2656245,20.7341339 11.44386,20.8775824 9.78704889,20.8775824 C4.13104889,20.8775824 0.538248889,19.1826706 0.317271111,19.0716706 C0.119226667,18.9604941 0.00731555556,18.7183765 0.0962933333,18.4990235 L1.02891556,16.2544941 C1.07193778,16.1433176 1.11789333,16.0122 1.18384889,15.9012 C1.76064889,14.4939353 2.24856,13.5026118 4.19984889,12.9728471 L7.59184889,12.2862882 L7.62616,11.8163471 C6.75673778,11.0528471 6.09958222,9.78243529 5.95033778,9.27543529 C5.10669333,9.05608235 4.59584889,8.2842 4.61878222,7.22731765 C4.63327111,6.60358235 4.95744889,6.04231765 5.16118222,5.74037647 C4.93167111,5.05099412 4.75949333,4.32181765 4.77380444,3.70364118 C4.81967111,2.4732 5.21860444,1.94325882 5.55140444,1.70105294 C5.72660444,1.59005294 5.90438222,1.52458235 6.08233778,1.52458235 C6.48127111,1.23975882 7.63487111,0.513229412 9.67513778,0.160111765 C12.1832267,-0.258652941 14.2235822,0.356611765 14.2895378,0.379464706 C14.4215378,0.422170588 14.5335378,0.533258824 14.5764711,0.664288235 C14.6225156,0.795317647 14.5994933,0.9492 14.5105156,1.06011176 C14.3555822,1.25961176 14.0915822,1.74384706 14.2235822,2.05161176 C14.2695378,2.13975882 14.3354933,2.25093529 14.4242933,2.40472941 C14.8059822,3.01717059 15.4546044,4.01705294 15.0155822,5.96828824 C15.2939822,6.27878824 15.7646489,6.93958235 15.66696,7.82264118 C15.5551378,8.70287647 14.8233156,9.12164118 14.2465156,9.27543529 C13.9566489,10.2667588 13.1302489,11.1640235 12.5161156,11.6710235 L12.5103378,12.3803471 L14.2435766,12.6894617 C13.3528257,13.569251 12.8,14.7963681 12.8,16.1538462 C12.8,17.9609872 13.7797308,19.5370997 15.2321837,20.3702998 Z" id="Combined-Shape" fill="#FFFFFF" mask="url(#mask-2)"></path>
                </g>
            </g>
            <g id="钻石-(1)" transform="translate(14.400000, 12.923077)" fill="#FFFFFF">
                <path d="M9.55621708,2.46368254 C8.96329358,1.68646396 8.37041695,0.908856423 7.77744657,0.131421756 C7.72467481,0.0545717929 7.62881138,0 7.53042832,0 L1.84385198,0 C1.75567637,0 1.68893527,0.0304677205 1.64306614,0.0764718175 C1.64155436,0.0779087703 1.64004258,0.0793457231 1.63848392,0.0808583049 C1.63794483,0.0814957502 1.63734715,0.0820791746 1.63674947,0.0827598364 C1.62287388,0.0965567439 1.60983036,0.112179554 1.59797049,0.129941587 C1.0784329,0.907840832 0.559082817,1.68591294 0.0395921055,2.46368254 C-0.0275708901,2.56430165 -0.00389801433,2.68330943 0.0701676168,2.76425417 C0.0745623339,2.77029369 0.0791445588,2.77624678 0.0840900804,2.78198379 C1.55480851,4.51629935 3.02543318,6.2510903 4.49605785,7.98536265 C4.56038479,8.06125104 4.6387045,8.08513903 4.71286389,8.07454015 C4.77719083,8.07462658 4.84292408,8.04858857 4.89887175,7.98536265 C6.43633128,6.2510903 7.97407207,4.51629935 9.51162535,2.78198379 C9.51954756,2.77308116 9.52663771,2.76374637 9.53328252,2.75426032 C9.60451209,2.67301307 9.62854826,2.55859705 9.55621708,2.46368254 Z M8.76269525,2.33356809 L7.00951958,2.33356809 C7.20980148,1.82991074 7.41003651,1.32616696 7.61036529,0.82246639 C7.994487,1.32612374 8.37852667,1.82986752 8.76269525,2.33356809 Z M4.69717182,0.648541084 C5.11438868,1.21015193 5.53161725,1.77188162 5.94888099,2.33356809 L3.40700009,2.33356809 C3.83699092,1.77188162 4.26699348,1.21019514 4.69717182,0.648541084 Z M6.19572345,2.85879053 C5.69871025,4.10874497 5.20163846,5.35873182 4.70471901,6.60884832 C4.22144077,5.35480991 3.73632261,4.10401275 3.233274,2.85879053 L6.19572345,2.85879053 Z M6.48586853,2.12913184 C6.08864471,1.5945422 5.69151464,1.05985531 5.29434941,0.525179228 L7.12355955,0.525179228 C6.9110076,1.0598229 6.69840877,1.59449898 6.48586853,2.12913184 Z M2.9123659,2.07198866 C2.69972019,1.55524748 2.48332432,1.03964073 2.26212356,0.525222445 L4.09659565,0.525222445 C3.7018563,1.04074276 3.30710524,1.55638192 2.9123659,2.07198866 Z M1.78987313,0.844323198 C2.00160474,1.33967215 2.20897679,1.83615554 2.41300885,2.33352487 L0.795389682,2.33352487 C1.12691542,1.83712791 1.45844115,1.34068774 1.78987313,0.844323198 Z M2.62721322,2.85879053 C3.14766491,4.14322103 3.64847514,5.43372347 4.14718763,6.72748876 C3.05372344,5.43794789 1.96030612,4.14837462 0.867076307,2.85879053 L2.62721322,2.85879053 Z M6.80068262,2.85879053 L8.71155247,2.85879053 C7.55643332,4.16175016 6.40144309,5.46470979 5.24646457,6.76758298 C5.76449038,5.46466657 6.28260994,4.16170694 6.80068262,2.85879053 Z" id="Fill-1"></path>
            </g>
        </g>
    </g>
</svg>